{"glyphs":{"0":{"ha":561,"x_min":-42,"x_max":604,"o":"m 521 633 q 459 617 493 632 q 383 574 425 603 q 299 504 343 544 q 208 411 256 464 q 119 303 158 356 q 50 203 79 251 q 8 119 21 156 q -6 57 -6 82 q -3 37 -6 46 q 6 21 0 28 q 23 11 13 15 q 46 7 33 7 q 103 19 71 7 q 174 57 135 32 q 253 115 213 81 q 338 194 294 150 q 434 303 390 249 q 510 411 478 357 q 560 506 543 464 q 576 576 576 547 q 572 601 576 590 q 561 618 568 611 q 544 628 554 625 q 521 632 535 632 l 521 633 m -42 79 q -26 167 -40 119 q 15 269 -11 215 q 86 375 46 324 q 178 474 126 426 q 268 549 222 515 q 364 608 314 582 q 453 648 414 635 q 524 661 493 661 q 558 656 543 661 q 582 642 572 651 q 599 619 593 632 q 604 589 604 606 q 588 504 604 550 q 539 404 571 458 q 463 293 508 350 q 357 175 417 236 q 271 95 314 131 q 186 33 228 60 q 109 -3 144 8 q 46 -15 74 -15 q 8 -9 24 -15 q -18 7 -7 -3 q -35 38 -29 19 q -40 78 -40 56 l -42 79 z "},"1":{"ha":561,"x_min":32,"x_max":628,"o":"m 603 675 l 628 668 q 494 488 558 575 q 369 317 429 400 q 255 154 310 233 q 147 0 200 75 l 47 0 q 165 144 104 71 q 286 293 225 218 q 414 445 349 368 q 547 601 479 522 q 451 533 501 568 q 343 461 400 499 q 212 379 286 425 q 44 279 138 333 l 32 308 q 213 413 128 361 q 374 514 297 465 q 507 603 450 563 q 603 674 564 643 l 603 675 z "},"2":{"ha":561,"x_min":-144,"x_max":586,"o":"m -15 85 q -6 84 -10 83 q 1 85 -1 85 q 9 85 6 85 q 15 86 13 86 q 27 86 22 86 q 33 86 32 86 q 85 80 58 86 q 143 61 113 74 q 194 42 174 49 q 226 36 215 36 q 258 42 242 36 q 288 60 274 49 q 319 89 303 71 q 351 132 335 107 l 374 122 q 334 63 356 88 q 289 19 313 38 q 241 -5 265 3 q 192 -12 217 -12 q 147 -6 174 -12 q 86 13 121 0 q 27 33 51 26 q -11 39 3 39 q -25 38 -18 39 q -40 36 -32 38 q -54 34 -47 36 q -68 29 -61 32 q -98 17 -83 24 q -126 0 -112 10 l -144 25 q -13 115 -83 68 q 140 210 57 163 q 269 285 224 258 q 325 317 315 311 q 413 382 374 347 q 482 456 451 417 q 529 527 514 496 q 544 582 544 558 q 540 604 544 594 q 525 619 535 614 q 503 630 517 626 q 472 633 490 633 q 431 627 454 633 q 381 607 408 621 q 330 578 354 594 q 283 542 306 561 q 240 498 258 519 q 208 456 222 476 q 189 416 196 435 q 182 381 182 397 q 185 370 182 375 q 193 360 188 365 q 205 353 199 356 q 219 351 211 351 q 263 364 240 351 q 311 400 286 376 q 356 453 336 424 q 389 519 375 483 l 410 517 q 376 441 397 475 q 328 379 356 407 q 272 339 299 353 q 218 325 244 325 q 192 330 204 325 q 172 343 181 335 q 160 365 164 353 q 156 393 156 378 q 163 438 156 415 q 186 486 171 461 q 221 533 201 511 q 265 576 240 556 q 317 611 290 596 q 371 638 343 626 q 424 654 399 649 q 472 660 450 660 q 521 653 500 660 q 557 633 542 646 q 579 604 572 621 q 586 565 586 588 q 571 482 586 522 q 524 404 556 442 q 444 333 493 368 q 331 263 396 297 q 279 238 310 253 q 208 204 249 224 q 74 137 129 167 q -14 83 18 107 l -15 85 z "},"3":{"ha":561,"x_min":-89,"x_max":572,"o":"m 342 357 q 371 345 358 351 q 390 329 383 339 q 401 306 397 319 q 404 274 404 292 q 396 224 404 249 q 369 172 388 199 q 326 122 351 146 q 268 75 301 99 q 204 35 238 53 q 135 4 171 18 q 67 -12 100 -6 q 7 -19 35 -19 q -31 -15 -12 -19 q -62 0 -49 -10 q -83 22 -76 8 q -89 51 -89 35 q -85 74 -89 64 q -75 93 -82 85 q -58 106 -68 101 q -37 111 -49 111 q -23 108 -29 111 q -11 100 -17 106 q -3 88 -6 94 q 0 75 0 82 q -6 54 0 63 q -22 42 -11 46 q -39 35 -33 38 q -44 29 -44 32 q -40 19 -44 24 q -28 11 -36 15 q -10 6 -21 8 q 10 4 0 4 q 60 13 33 4 q 118 38 88 21 q 181 76 150 54 q 240 126 211 99 q 264 151 253 139 q 286 175 275 163 q 305 199 296 188 q 322 224 314 211 q 347 267 339 249 q 354 296 354 285 q 352 310 354 304 q 344 319 350 317 q 331 326 339 324 q 314 328 324 328 q 294 326 304 328 q 271 319 283 324 q 234 306 257 315 q 175 281 211 296 l 163 301 q 313 372 247 336 q 426 447 379 408 q 498 520 475 485 q 521 586 521 556 q 517 606 521 597 q 506 621 514 615 q 486 631 497 628 q 460 633 475 633 q 388 619 425 633 q 314 575 351 604 q 258 522 276 547 q 239 472 239 496 q 242 459 239 465 q 249 449 244 453 q 260 441 254 443 q 276 439 267 439 q 306 447 290 439 q 340 468 322 454 q 374 501 358 483 q 404 542 390 519 l 422 533 q 391 484 408 506 q 351 446 374 463 q 330 431 340 438 q 308 419 319 424 q 287 413 297 415 q 265 411 276 411 q 242 415 253 411 q 224 426 232 419 q 213 445 217 435 q 208 468 208 456 q 217 512 208 490 q 246 554 226 533 q 266 576 254 565 q 292 597 278 586 q 376 645 332 629 q 468 661 421 661 q 510 655 492 661 q 543 638 529 649 q 565 611 558 626 q 572 576 572 596 q 568 547 572 563 q 557 518 564 532 q 537 488 549 503 q 510 458 525 474 q 437 403 479 428 q 342 356 394 378 l 342 357 z "},"4":{"ha":561,"x_min":-60,"x_max":615,"o":"m 513 656 l 615 656 q 394 475 536 586 q 49 210 253 364 l 28 196 q 60 197 44 196 q 90 199 76 197 q 119 200 106 200 q 147 200 133 200 q 181 200 164 200 q 215 197 197 200 q 249 194 232 196 q 285 189 267 192 q 324 231 304 210 q 365 272 344 251 q 385 294 375 283 q 406 315 396 304 q 427 337 417 326 q 449 358 438 347 l 482 360 q 446 316 464 338 q 410 272 428 294 q 392 250 401 261 q 375 228 383 239 q 358 206 367 217 q 340 183 349 194 q 341 183 340 183 q 343 183 342 183 q 363 181 354 182 q 376 181 371 181 q 390 181 383 181 q 404 183 397 182 q 422 187 413 185 q 442 192 432 189 l 449 169 q 430 162 440 164 q 408 157 419 160 q 385 154 397 156 q 357 153 372 153 q 347 153 351 153 q 339 154 343 153 q 332 154 336 154 q 322 154 328 154 q 294 113 308 133 q 264 74 279 93 q 255 61 260 68 q 246 49 250 54 q 228 24 238 36 q 211 0 219 11 l 111 0 q 154 49 135 26 q 190 90 174 72 q 225 128 208 110 q 257 163 242 146 q 229 167 243 165 q 200 171 215 169 q 170 172 186 172 q 138 172 154 172 q 83 170 108 172 q 35 164 57 168 q -6 152 13 158 q -43 136 -25 146 l -60 163 q 78 269 8 213 q 221 388 149 325 q 367 515 294 449 q 513 654 440 582 l 513 656 z "},"5":{"ha":561,"x_min":-75,"x_max":619,"o":"m 610 669 l 619 651 q 580 626 601 636 q 532 608 558 615 q 481 598 507 601 q 428 594 456 594 q 420 594 424 594 q 414 594 417 594 q 408 595 411 594 q 400 596 404 596 q 383 597 392 596 q 363 600 374 599 l 213 408 q 255 433 235 422 q 293 451 275 444 q 328 462 313 458 q 357 465 343 465 q 397 458 379 465 q 428 436 414 451 q 449 403 442 422 q 456 361 456 385 q 444 295 456 329 q 411 226 433 261 q 358 157 389 192 q 288 90 328 122 q 253 66 271 78 q 219 44 236 54 q 185 25 203 33 q 151 10 168 17 q 85 -10 117 -3 q 24 -17 53 -17 q -16 -12 1 -17 q -47 1 -33 -7 q -68 26 -61 13 q -75 56 -75 39 q -71 80 -75 69 q -60 99 -67 90 q -44 111 -53 107 q -25 115 -35 115 q -8 113 -15 115 q 1 106 -1 111 q 9 94 7 101 q 11 81 11 88 q 6 61 11 69 q -8 47 1 53 q -25 38 -19 42 q -31 32 -31 35 q -29 28 -31 31 q -26 25 -28 26 q -20 21 -24 22 q -12 17 -17 19 q 6 10 -3 13 q 28 8 15 8 q 76 16 51 8 q 129 38 101 24 q 184 72 157 53 q 238 117 211 92 q 307 190 276 153 q 360 267 338 228 q 394 337 383 306 q 406 392 406 368 q 402 412 406 403 q 392 426 399 421 q 376 435 386 432 q 351 438 365 438 q 309 429 333 438 q 257 404 285 421 q 198 364 228 388 q 136 310 168 340 l 115 326 l 372 656 q 399 647 386 650 q 425 643 413 644 q 451 640 439 642 q 475 639 464 639 q 508 641 492 639 q 543 647 525 643 q 576 656 560 650 q 610 668 593 663 l 610 669 z "},"6":{"ha":561,"x_min":-4,"x_max":661,"o":"m 85 10 q 129 19 104 8 q 182 47 154 29 q 238 94 210 67 q 297 156 267 121 q 346 215 325 188 q 382 269 367 243 q 404 315 397 296 q 411 349 411 335 q 409 365 411 358 q 401 376 407 371 q 388 383 396 381 q 371 385 381 385 q 331 378 353 385 q 281 357 308 371 q 226 322 254 343 q 169 276 197 301 q 114 221 139 250 q 69 160 89 192 q 40 103 50 129 q 29 58 29 78 q 33 39 29 49 q 44 22 38 29 q 62 13 51 17 q 85 8 72 8 l 85 10 m 150 294 q 216 345 185 322 q 276 382 247 368 q 328 405 304 397 q 374 413 353 413 q 406 407 392 413 q 431 390 421 401 q 447 363 442 379 q 451 322 451 346 q 444 274 451 300 q 421 218 436 247 q 387 163 407 190 q 340 111 367 136 q 278 58 310 81 q 210 17 246 35 q 144 -8 175 0 q 85 -17 113 -17 q 46 -10 63 -17 q 17 6 29 -4 q 1 35 6 18 q -4 74 -4 53 q 5 140 -4 104 q 36 219 14 176 q 87 306 57 263 q 156 394 117 350 q 265 505 210 456 q 376 589 321 554 q 482 642 433 625 q 574 660 531 660 q 609 655 593 660 q 636 642 625 650 q 655 622 649 633 q 661 596 661 611 q 657 573 661 583 q 644 554 653 563 q 626 542 636 546 q 606 538 617 538 q 590 540 597 538 q 579 546 583 542 q 572 555 574 549 q 569 568 569 561 q 575 586 569 579 q 593 597 581 593 q 604 602 600 600 q 611 607 608 604 q 615 612 614 610 q 617 617 617 614 q 616 622 617 619 q 613 625 615 624 q 610 627 611 626 q 606 629 608 628 q 593 633 600 632 q 578 635 586 635 q 490 612 539 635 q 385 543 442 589 q 269 435 328 497 q 150 293 211 374 l 150 294 z "},"7":{"ha":561,"x_min":-133,"x_max":668,"o":"m 318 724 l 356 724 l 290 646 q 306 649 299 647 q 321 653 314 651 q 328 655 325 654 q 336 656 332 656 q 358 659 347 658 q 378 660 368 660 q 418 656 396 660 q 467 644 440 651 q 513 634 494 638 q 542 631 532 631 q 567 634 554 631 q 590 643 579 638 q 613 660 601 650 q 636 685 625 671 l 668 686 q 482 483 572 583 q 306 285 392 383 q 140 88 221 186 q -18 -107 58 -10 l -133 -107 l 561 607 q 536 596 549 600 q 511 589 524 592 q 488 585 500 588 q 464 583 476 583 q 424 588 446 583 q 378 603 401 593 q 338 616 354 611 q 314 621 321 621 q 288 616 301 621 q 260 603 275 611 q 233 580 246 593 q 207 550 219 567 l 174 551 l 318 724 l 318 724 z "},"8":{"ha":561,"x_min":-37,"x_max":601,"o":"m 281 331 q 164 286 215 311 q 74 229 113 261 q 18 165 36 197 q 0 97 0 132 q 6 61 0 78 q 26 32 13 44 q 59 12 40 18 q 101 6 78 6 q 183 22 144 6 q 256 71 221 39 q 308 138 292 103 q 325 211 325 174 q 323 235 325 222 q 315 261 321 247 q 301 292 310 275 q 281 329 293 310 l 281 331 m 351 357 q 370 317 363 333 q 382 288 378 300 q 387 265 385 276 q 389 243 389 254 q 366 151 389 196 q 296 64 343 106 q 200 3 250 22 q 96 -17 150 -17 q 39 -9 64 -17 q -1 11 14 -1 q -29 48 -21 26 q -37 96 -37 69 q -19 172 -37 136 q 38 240 0 208 q 133 301 76 272 q 267 354 190 331 q 257 381 261 368 q 250 403 253 393 q 247 424 249 414 q 244 443 244 433 q 263 522 244 485 q 318 593 282 560 q 396 643 354 626 q 485 660 438 660 q 534 653 513 660 q 571 635 556 647 q 594 606 586 624 q 601 567 601 589 q 585 504 601 533 q 538 447 569 475 q 460 398 507 421 q 351 356 413 375 l 351 357 m 340 381 q 442 419 400 399 q 510 463 483 440 q 549 510 536 485 q 561 567 561 536 q 556 594 561 582 q 540 617 551 607 q 515 631 529 626 q 482 635 500 635 q 419 624 449 635 q 363 589 389 613 q 323 538 336 565 q 310 482 310 511 q 311 459 310 471 q 317 435 313 447 q 326 409 319 424 q 340 379 332 394 l 340 381 z "},"9":{"ha":561,"x_min":-85,"x_max":581,"o":"m 422 349 q 356 296 388 318 q 296 258 324 274 q 245 237 269 244 q 201 229 221 229 q 169 235 183 229 q 143 251 154 240 q 126 278 132 263 q 121 314 121 293 q 128 366 121 339 q 150 421 136 393 q 185 476 165 449 q 232 529 206 503 q 295 583 263 560 q 363 624 328 606 q 431 651 399 642 q 490 660 463 660 q 528 653 511 660 q 557 635 544 647 q 575 606 569 622 q 581 569 581 589 q 570 502 581 539 q 538 422 560 465 q 485 335 515 379 q 415 247 456 292 q 308 136 363 185 q 196 51 253 88 q 91 0 140 17 q 0 -17 42 -17 q -34 -12 -18 -17 q -61 0 -50 -8 q -79 19 -74 7 q -85 46 -85 31 q -81 67 -85 57 q -69 88 -78 78 q -51 101 -61 96 q -31 106 -42 106 q -15 103 -22 106 q -3 96 -8 101 q 1 85 0 92 q 3 72 3 79 q -1 55 3 63 q -18 43 -6 47 q -29 39 -25 42 q -37 35 -33 36 q -42 30 -40 32 q -43 25 -43 28 q -40 18 -43 21 q -31 13 -37 15 q -18 9 -25 11 q -1 7 -11 7 q 81 30 33 7 q 188 99 129 53 q 303 207 244 144 q 422 347 363 269 l 422 349 m 489 635 q 443 624 468 633 q 390 594 418 614 q 335 549 364 576 q 275 486 306 521 q 228 427 249 456 q 192 372 207 399 q 170 326 178 346 q 163 292 163 307 q 165 277 163 283 q 172 265 167 271 q 185 259 178 261 q 201 257 192 257 q 242 265 219 257 q 292 286 265 272 q 347 321 319 301 q 404 367 375 340 q 460 423 435 394 q 504 482 485 451 q 533 538 524 513 q 543 582 543 564 q 539 603 543 593 q 528 619 535 613 q 511 630 521 626 q 489 633 501 633 l 489 635 z "}," ":{"ha":281,"x_min":0,"x_max":0,"o":""},"!":{"ha":460,"x_min":-190,"x_max":411,"o":"m -118 89 q -101 85 -108 88 q -87 75 -94 82 q -78 61 -82 69 q -75 44 -75 53 q -81 21 -75 32 q -97 0 -86 10 q -120 -15 -108 -10 q -146 -19 -132 -19 q -165 -17 -157 -19 q -178 -7 -172 -14 q -187 4 -185 -1 q -190 19 -190 10 q -185 44 -190 32 q -168 67 -179 57 q -144 83 -157 78 q -117 88 -132 88 l -118 89 m -44 139 l -65 150 q 49 308 -12 219 q 182 501 110 396 q 313 678 263 619 q 381 738 363 738 q 393 735 388 738 q 403 728 399 733 q 409 718 407 724 q 411 706 411 713 q 366 628 411 689 q 231 463 321 567 q 78 285 147 367 q -43 138 10 204 l -44 139 z "},"\"":{"ha":451,"x_min":63,"x_max":386,"o":"m 344 589 l 324 589 l 286 896 q 284 903 285 899 q 283 911 283 907 q 283 919 283 915 q 283 925 283 922 q 287 953 283 942 q 296 974 290 965 q 312 985 303 982 q 335 989 321 989 q 357 985 347 989 q 374 972 367 981 q 383 952 381 964 q 386 925 386 940 q 386 921 386 924 q 386 915 386 918 q 385 907 386 913 q 383 894 385 901 l 344 589 l 344 589 m 125 589 l 107 589 l 65 896 q 65 899 65 897 q 65 903 65 901 q 64 908 64 906 q 64 911 64 910 q 64 915 64 914 q 64 918 64 917 q 63 922 63 921 q 63 925 63 924 q 67 953 63 940 q 76 974 71 965 q 93 985 83 981 q 115 989 103 989 q 139 985 129 989 q 154 974 149 981 q 165 953 161 965 q 168 925 168 940 q 168 923 168 924 q 168 921 168 922 q 167 918 167 919 q 167 915 167 917 q 167 912 167 914 q 167 907 167 910 q 165 901 165 904 q 165 896 165 899 l 125 589 l 125 589 z "},"#":{"ha":1068,"x_min":86,"x_max":981,"o":"m 474 594 l 401 388 l 606 388 l 676 594 l 474 594 l 474 594 m 549 985 l 611 985 l 493 647 l 696 647 l 815 985 l 881 985 l 761 647 l 981 647 l 961 594 l 743 594 l 669 388 l 906 388 l 888 335 l 651 335 l 532 0 l 467 0 l 585 335 l 381 335 l 263 0 l 200 0 l 318 335 l 86 335 l 108 388 l 338 388 l 408 594 l 160 594 l 178 647 l 429 647 l 549 985 l 549 985 z "},"$":{"ha":561,"x_min":-68,"x_max":653,"o":"m 631 781 l 653 764 l 581 671 q 608 651 596 661 q 626 628 619 640 q 637 603 633 617 q 640 574 640 589 q 635 536 640 553 q 618 506 629 519 q 592 485 606 492 q 561 478 578 478 q 546 480 553 478 q 533 488 539 482 q 524 498 528 492 q 521 511 521 504 q 524 524 521 518 q 532 533 526 529 q 544 540 538 538 q 561 543 551 543 l 571 544 q 587 545 579 543 q 600 553 594 547 q 609 565 607 558 q 611 579 611 571 q 603 612 611 597 q 579 639 596 626 q 543 656 564 650 q 497 663 522 663 q 426 651 458 663 q 369 615 394 639 q 331 564 343 593 q 318 499 318 535 q 328 441 318 476 q 356 360 338 406 q 384 278 375 314 q 393 219 393 243 q 374 130 393 171 q 317 56 354 89 q 231 6 278 21 q 126 -10 183 -10 q 112 -10 119 -10 q 96 -8 104 -10 q 78 -5 89 -7 q 57 0 68 -3 l -44 -131 l -68 -115 l 28 7 q -1 28 11 15 q -24 56 -14 40 q -38 88 -33 71 q -43 122 -43 104 q -36 167 -43 146 q -14 204 -29 188 q 15 229 -1 221 q 50 238 31 238 q 67 235 58 238 q 81 228 75 233 q 89 216 86 222 q 92 201 92 210 q 88 186 92 193 q 78 172 85 179 q 63 163 72 167 q 44 160 54 160 q 36 160 40 160 q 29 160 32 160 q 23 161 25 161 q 21 161 21 161 q 6 158 11 161 q -3 150 0 156 q -9 135 -7 144 q -11 115 -11 126 q -2 76 -11 94 q 25 44 7 58 q 69 24 44 31 q 124 17 93 17 q 205 30 168 17 q 271 69 242 43 q 316 129 301 97 q 331 199 331 161 q 322 252 331 219 q 293 329 313 285 q 266 410 275 374 q 257 472 257 446 q 273 560 257 521 q 322 628 289 599 q 398 673 354 658 q 496 688 442 688 q 504 688 500 688 q 511 688 508 688 q 519 686 515 686 q 525 686 522 686 q 539 684 532 685 q 551 682 546 683 l 631 781 l 631 781 z "},"%":{"ha":1074,"x_min":36,"x_max":1122,"o":"m 903 411 q 860 401 883 410 q 811 375 838 393 q 759 334 786 358 q 704 278 732 310 q 651 211 675 243 q 610 149 628 179 q 585 94 593 118 q 576 54 576 71 q 580 35 576 43 q 589 19 583 26 q 604 9 596 13 q 624 6 613 6 q 665 15 642 6 q 715 43 688 25 q 771 88 743 63 q 828 144 799 114 q 877 207 856 176 q 915 268 899 238 q 942 323 933 299 q 950 365 950 347 q 947 385 950 376 q 938 399 944 393 q 923 408 932 406 q 903 410 914 410 l 903 411 m 897 439 q 931 433 917 438 q 956 419 946 429 q 972 397 967 410 q 976 368 976 385 q 967 317 976 346 q 938 253 957 289 q 893 183 918 218 q 836 115 868 149 q 776 59 806 85 q 715 14 746 33 q 660 -12 685 -3 q 614 -21 635 -21 q 583 -15 596 -21 q 558 0 569 -10 q 543 28 549 11 q 538 64 538 44 q 546 125 538 93 q 571 192 554 157 q 612 258 589 226 q 664 317 635 289 q 722 367 692 344 q 783 406 751 389 q 844 430 815 422 q 897 438 874 438 l 897 439 m 550 850 q 509 840 532 849 q 460 814 486 832 q 406 772 433 797 q 350 715 379 747 q 298 649 321 681 q 257 586 275 618 q 232 532 240 556 q 224 490 224 508 q 227 472 224 481 q 236 457 231 464 q 251 448 243 451 q 269 444 260 444 q 312 454 289 444 q 361 482 335 464 q 417 526 389 501 q 474 583 446 551 q 524 646 501 615 q 564 707 546 676 q 589 761 581 738 q 597 803 597 785 q 594 823 597 814 q 585 838 592 832 q 570 846 579 843 q 550 849 561 849 l 550 850 m 1101 876 l 1122 850 l 57 -12 l 36 10 l 1101 876 l 1101 876 m 544 878 q 577 872 563 876 q 603 858 592 868 q 619 835 614 849 q 624 807 624 822 q 614 756 624 785 q 585 693 604 728 q 564 658 575 675 q 540 624 553 640 q 513 588 528 606 q 483 553 499 571 q 463 533 474 543 q 443 514 453 524 q 403 481 424 496 q 363 453 383 465 q 306 424 332 433 q 260 414 281 414 q 228 420 242 414 q 203 438 214 426 q 188 465 193 449 q 182 501 182 482 q 191 563 182 531 q 217 629 200 594 q 258 697 235 665 q 311 756 282 728 q 369 806 339 783 q 429 844 399 828 q 490 869 461 861 q 544 876 519 876 l 544 878 z "},"&":{"ha":965,"x_min":-86,"x_max":672,"o":"m 250 342 q 132 278 185 311 q 39 208 79 246 q -19 138 0 171 q -37 74 -37 104 q -33 50 -37 60 q -17 32 -28 40 q 6 22 -7 25 q 36 18 18 18 q 79 22 57 18 q 125 36 101 26 q 172 59 149 46 q 222 90 196 72 l 222 110 q 224 165 222 136 q 229 222 225 193 q 238 281 232 251 q 250 340 243 310 l 250 342 m 321 365 q 310 316 315 342 q 300 261 304 290 q 292 203 296 233 q 288 140 289 172 l 313 167 q 508 340 431 282 q 622 399 585 399 q 642 394 633 399 q 658 382 651 390 q 669 365 665 375 q 672 343 672 354 q 668 316 672 329 q 653 292 664 303 q 632 276 643 282 q 607 269 621 269 q 594 272 600 269 q 582 279 588 274 q 576 290 578 283 q 574 303 574 296 q 576 315 574 310 q 582 325 578 319 q 585 328 583 326 q 589 331 588 329 q 595 335 592 333 q 603 336 599 336 q 619 338 613 336 q 632 340 626 339 q 638 346 636 343 q 640 353 640 349 q 639 360 640 357 q 635 365 638 364 q 627 369 632 368 q 615 371 622 371 q 521 316 589 371 q 342 151 453 261 q 309 120 324 133 q 286 97 294 107 l 286 89 q 290 60 286 72 q 299 40 293 49 q 315 28 306 32 q 336 24 324 24 q 369 32 350 24 q 411 58 388 40 q 460 99 435 76 q 510 151 485 122 l 531 140 q 476 76 504 104 q 419 28 449 49 q 366 0 392 8 q 318 -8 340 -8 q 285 -4 300 -8 q 258 7 271 0 q 238 28 247 15 q 225 57 229 42 q 174 27 199 40 q 125 6 149 14 q 78 -4 101 0 q 32 -8 56 -8 q -17 -3 4 -8 q -56 17 -39 3 q -78 52 -71 32 q -86 97 -86 72 q -64 186 -86 144 q 1 263 -42 228 q 112 326 47 299 q 260 374 176 354 q 301 485 276 435 q 358 571 326 535 q 424 625 390 607 q 492 643 457 643 q 524 638 510 643 q 550 621 539 632 q 567 596 561 610 q 574 564 574 582 q 558 510 574 536 q 510 458 542 483 q 431 410 478 433 q 321 364 383 386 l 321 365 m 329 399 q 412 435 375 414 q 475 479 449 456 q 515 526 503 503 q 528 572 528 550 q 526 590 528 582 q 517 603 524 597 q 503 610 511 608 q 486 613 496 613 q 438 599 461 613 q 394 556 415 585 q 358 488 374 528 q 329 397 342 447 l 329 399 z "},"'":{"ha":231,"x_min":63,"x_max":168,"o":"m 124 589 l 106 589 l 64 897 q 64 901 64 899 q 64 906 64 903 q 63 914 63 908 q 63 925 63 919 q 66 953 63 942 q 76 974 69 965 q 92 985 83 982 q 115 989 101 989 q 138 985 128 989 q 154 972 147 981 q 165 952 161 964 q 168 925 168 940 q 168 923 168 924 q 168 921 168 922 q 167 918 167 919 q 167 915 167 917 q 167 912 167 914 q 167 907 167 910 q 165 901 165 904 q 165 896 165 899 l 124 589 l 124 589 z "},"(":{"ha":450,"x_min":-179,"x_max":740,"o":"m 722 1040 l 740 1017 q 478 796 604 919 q 239 522 353 672 q 30 200 125 371 q -144 -161 -65 29 l -179 -161 q -21 218 -110 42 q 178 542 68 394 q 425 814 289 690 q 722 1039 561 938 l 722 1040 z "},")":{"ha":450,"x_min":-378,"x_max":542,"o":"m 510 1042 l 542 1042 q 383 659 474 835 q 182 335 293 483 q -62 65 72 188 q -357 -160 -197 -58 l -378 -137 q -115 83 -240 -40 q 122 357 10 206 q 334 679 238 508 q 510 1040 431 850 l 510 1042 z "},"*":{"ha":688,"x_min":331,"x_max":640,"o":"m 486 903 q 497 892 492 899 q 506 874 501 885 q 512 852 510 864 q 514 828 514 840 q 513 815 514 822 q 510 797 513 807 q 505 775 508 789 q 496 742 501 761 q 531 774 514 761 q 564 797 547 788 q 594 811 579 807 q 622 815 608 815 q 626 815 624 815 q 629 815 628 815 q 635 815 632 815 q 640 811 638 814 q 629 783 639 796 q 603 758 619 769 q 563 738 586 747 q 508 721 539 728 q 563 706 539 715 q 603 685 586 696 q 629 660 619 674 q 640 632 639 647 q 636 630 639 631 q 631 628 633 629 q 627 628 629 628 q 622 628 625 628 q 594 633 608 628 q 563 647 579 638 q 531 671 547 657 q 496 703 514 685 q 503 676 500 689 q 508 653 507 664 q 513 632 511 642 q 514 615 514 622 q 512 592 514 603 q 506 569 510 581 q 498 553 503 560 q 486 543 493 546 q 474 553 479 546 q 465 569 469 560 q 460 592 461 581 q 458 615 458 603 q 460 632 458 622 q 463 653 461 642 q 467 676 464 664 q 474 703 469 689 q 440 670 457 685 q 408 646 424 656 q 378 632 393 636 q 349 628 363 628 q 345 628 347 628 q 340 628 343 628 q 335 630 338 629 q 331 632 333 631 q 342 660 333 647 q 368 685 351 674 q 408 706 385 696 q 463 721 432 715 q 408 739 432 729 q 368 758 385 749 q 343 783 353 769 q 331 811 333 796 q 336 813 333 813 q 340 815 339 814 q 342 815 342 815 q 343 815 343 815 q 347 815 344 815 q 349 815 349 815 q 377 811 363 815 q 407 797 392 807 q 439 774 422 788 q 474 742 456 761 q 467 768 469 756 q 463 790 464 781 q 460 810 461 801 q 458 828 458 819 q 460 852 458 840 q 465 874 461 864 q 474 892 469 885 q 486 901 479 899 l 486 903 z "},"+":{"ha":1157,"x_min":172,"x_max":983,"o":"m 550 828 l 606 828 l 606 440 l 983 440 l 983 385 l 606 385 l 606 0 l 550 0 l 550 385 l 172 385 l 172 440 l 550 440 l 550 828 l 550 828 z "},",":{"ha":276,"x_min":-371,"x_max":-114,"o":"m -362 -144 l -371 -119 q -305 -93 -333 -107 q -256 -62 -276 -79 q -224 -32 -235 -47 q -214 -1 -214 -17 q -215 3 -214 0 q -217 11 -215 6 q -219 22 -218 17 q -219 29 -219 26 q -215 52 -219 42 q -200 71 -210 63 q -179 83 -190 79 q -156 88 -168 88 q -138 85 -146 88 q -125 75 -131 82 q -117 61 -119 69 q -114 43 -114 53 q -131 -5 -114 19 q -182 -56 -147 -29 q -261 -104 -217 -82 q -361 -144 -306 -126 l -362 -144 z "},"-":{"ha":460,"x_min":-139,"x_max":161,"o":"m -103 249 l 161 249 l 121 197 l -139 197 l -103 249 l -103 249 z "},".":{"ha":276,"x_min":-224,"x_max":-110,"o":"m -151 89 q -135 85 -142 88 q -121 75 -128 82 q -112 61 -115 69 q -110 44 -110 53 q -115 21 -110 32 q -131 0 -121 10 q -153 -16 -142 -11 q -179 -21 -165 -21 q -197 -18 -189 -21 q -211 -8 -206 -15 q -221 3 -218 -3 q -224 19 -224 10 q -218 44 -224 32 q -201 67 -212 57 q -178 83 -190 78 q -150 88 -165 88 l -151 89 z "},"/":{"ha":378,"x_min":-375,"x_max":554,"o":"m 478 899 l 554 899 l -294 -128 l -375 -128 l 478 899 l 478 899 z "},":":{"ha":308,"x_min":-235,"x_max":131,"o":"m -165 89 q -147 85 -154 88 q -133 75 -140 82 q -123 61 -126 69 q -119 44 -119 53 q -126 21 -119 32 q -143 0 -132 10 q -167 -16 -154 -11 q -193 -21 -179 -21 q -210 -18 -201 -21 q -224 -8 -218 -15 q -232 3 -229 -3 q -235 19 -235 10 q -230 44 -235 32 q -214 67 -225 57 q -190 83 -203 78 q -164 88 -178 88 l -165 89 m 86 418 q 103 414 96 417 q 117 404 111 411 q 127 390 124 399 q 131 374 131 382 q 125 350 131 361 q 108 328 119 339 q 85 313 97 318 q 58 308 72 308 q 42 311 49 308 q 28 319 35 314 q 19 333 22 326 q 15 349 15 340 q 21 374 15 363 q 36 396 26 386 q 60 412 47 407 q 86 417 72 417 l 86 418 z "},";":{"ha":308,"x_min":-364,"x_max":131,"o":"m -356 -144 l -364 -119 q -299 -93 -328 -107 q -250 -62 -271 -79 q -219 -32 -229 -47 q -208 -1 -208 -17 q -208 -1 -208 -1 q -210 1 -208 0 q -210 6 -210 3 q -210 11 -210 8 q -211 22 -211 17 q -211 29 -211 26 q -207 52 -211 42 q -193 71 -203 63 q -174 83 -185 79 q -150 88 -162 88 q -133 85 -140 88 q -119 75 -125 82 q -111 61 -114 69 q -108 43 -108 53 q -125 -5 -108 19 q -176 -56 -142 -29 q -256 -104 -211 -82 q -354 -144 -300 -126 l -356 -144 m 86 418 q 103 414 96 417 q 117 404 111 411 q 127 390 124 399 q 131 374 131 382 q 125 350 131 361 q 108 328 119 339 q 85 313 97 318 q 58 308 72 308 q 42 311 49 308 q 28 319 35 314 q 19 333 22 326 q 15 349 15 340 q 21 374 15 363 q 36 396 26 386 q 60 412 47 407 q 86 417 72 417 l 86 418 z "},"<":{"ha":1157,"x_min":178,"x_max":978,"o":"m 978 761 l 978 700 l 268 413 l 978 125 l 978 65 l 178 393 l 178 433 l 978 761 l 978 761 z "},"=":{"ha":1157,"x_min":172,"x_max":983,"o":"m 172 318 l 983 318 l 983 261 l 172 261 l 172 318 l 172 318 m 172 563 l 983 563 l 983 510 l 172 510 l 172 563 l 172 563 z "},">":{"ha":1157,"x_min":178,"x_max":978,"o":"m 178 761 l 978 433 l 978 393 l 178 65 l 178 125 l 888 413 l 178 700 l 178 761 l 178 761 z "},"?":{"ha":563,"x_min":-190,"x_max":461,"o":"m -118 89 q -101 85 -108 88 q -87 75 -94 82 q -79 61 -82 69 q -76 44 -76 53 q -82 21 -76 32 q -97 0 -87 10 q -120 -16 -108 -11 q -146 -21 -132 -21 q -165 -18 -157 -21 q -178 -8 -172 -15 q -187 3 -185 -3 q -190 19 -190 10 q -185 44 -190 32 q -168 67 -179 57 q -144 83 -157 78 q -117 88 -132 88 l -118 89 m -39 132 l -64 144 q 17 226 -32 181 q 135 322 65 271 q 185 360 164 343 q 219 386 206 376 q 299 463 264 424 q 363 542 335 501 q 404 616 390 583 q 418 672 418 649 q 415 695 418 685 q 404 711 411 706 q 387 721 397 718 q 363 724 376 724 q 325 719 346 724 q 281 703 304 714 q 235 678 257 693 q 193 646 213 664 q 151 605 169 626 q 119 561 133 583 q 99 519 106 539 q 92 482 92 500 q 94 469 92 475 q 100 461 96 464 q 111 455 106 457 q 122 453 117 453 q 151 459 136 453 q 183 478 167 465 q 216 509 200 492 q 247 549 232 526 l 258 531 q 228 486 244 506 q 192 451 211 467 q 152 431 172 438 q 113 424 132 424 q 90 428 100 424 q 74 439 81 432 q 63 458 67 447 q 58 482 58 468 q 67 525 58 501 q 92 575 75 549 q 128 624 107 601 q 175 668 149 647 q 200 687 188 678 q 225 703 213 696 q 249 716 236 710 q 274 728 261 722 q 320 744 297 739 q 363 750 343 750 q 404 743 386 750 q 435 722 422 736 q 454 690 447 708 q 461 646 461 671 q 446 562 461 603 q 400 481 431 521 q 326 403 371 440 q 224 332 282 367 q 213 326 219 331 q 199 317 207 322 q 56 223 115 269 q -37 131 -3 176 l -39 132 z "},"@":{"ha":1368,"x_min":101,"x_max":1269,"o":"m 810 232 q 766 167 789 194 q 715 121 743 140 q 658 94 689 103 q 594 85 628 85 q 524 100 556 85 q 467 146 492 115 q 429 218 442 178 q 417 310 417 258 q 425 382 417 346 q 450 454 433 418 q 490 524 467 490 q 543 585 513 557 q 589 625 565 608 q 639 654 613 642 q 691 673 665 667 q 742 679 717 679 q 793 670 769 679 q 836 643 817 661 q 869 600 856 625 q 890 543 882 575 l 928 668 l 1011 668 l 896 260 l 896 256 q 887 213 890 231 q 883 183 883 194 q 888 152 883 165 q 901 129 892 139 q 924 115 911 119 q 954 110 938 110 q 988 115 969 110 q 1026 129 1007 119 q 1066 152 1047 139 q 1103 182 1085 165 q 1162 251 1136 214 q 1206 332 1188 289 q 1234 424 1225 376 q 1243 519 1243 471 q 1210 697 1243 618 q 1111 836 1176 776 q 957 925 1044 896 q 760 954 869 954 q 645 944 700 954 q 539 915 590 935 q 441 868 488 897 q 354 803 394 839 q 274 708 308 760 q 215 599 239 657 q 180 476 192 540 q 168 340 168 411 q 178 230 168 281 q 206 136 188 179 q 255 54 225 93 q 325 -19 285 15 q 410 -81 365 -54 q 507 -125 456 -107 q 613 -152 558 -143 q 724 -161 667 -161 q 840 -152 783 -161 q 949 -125 896 -143 q 1052 -81 1003 -107 q 1147 -19 1101 -54 l 1164 -39 q 1063 -105 1115 -76 q 954 -151 1011 -133 q 842 -180 899 -171 q 724 -189 785 -189 q 602 -181 660 -189 q 492 -158 544 -174 q 394 -119 440 -143 q 308 -62 349 -94 q 218 22 257 -24 q 153 121 179 67 q 114 235 126 175 q 101 363 101 296 q 116 496 101 432 q 158 619 131 560 q 230 732 188 679 q 328 832 272 785 q 422 897 372 868 q 525 943 472 925 q 637 972 579 963 q 754 982 694 982 q 966 950 872 982 q 1129 854 1060 918 q 1234 708 1199 792 q 1269 518 1269 624 q 1259 415 1269 465 q 1229 317 1249 365 q 1183 230 1210 269 q 1119 158 1156 190 q 1078 126 1099 140 q 1035 101 1057 111 q 992 88 1014 92 q 949 83 971 83 q 890 92 915 83 q 847 119 865 101 q 821 167 831 139 q 810 231 811 194 l 810 232 m 739 658 q 701 651 719 657 q 668 635 683 646 q 652 622 660 629 q 636 607 644 615 q 620 589 628 599 q 604 567 613 579 q 558 490 578 529 q 524 407 539 450 q 502 327 510 365 q 494 257 494 289 q 503 196 494 222 q 525 150 511 169 q 560 121 540 131 q 607 111 581 111 q 622 112 614 111 q 636 114 629 113 q 666 125 651 118 q 694 142 681 132 q 738 179 717 157 q 779 232 758 201 q 815 297 799 264 q 842 367 831 331 q 859 437 853 403 q 865 501 865 471 q 856 562 865 535 q 828 611 847 589 q 788 646 810 635 q 739 657 765 657 l 739 658 z "},"A":{"ha":901,"x_min":-261,"x_max":1000,"o":"m 385 379 q 362 354 375 368 q 331 321 349 340 q 241 229 279 267 q 178 169 203 192 q 218 137 197 151 q 261 111 239 122 q 310 93 285 101 q 364 82 336 85 q 376 126 371 101 q 385 176 381 150 q 390 234 388 204 q 392 296 392 264 q 392 308 392 303 q 392 319 392 314 q 390 330 390 325 q 390 340 390 335 q 388 359 389 350 q 385 378 388 368 l 385 379 m 379 418 q 351 499 369 463 q 307 563 333 536 q 252 604 281 590 q 193 618 224 618 q 138 606 163 618 q 93 567 113 593 q 64 508 74 540 q 54 433 54 475 q 56 402 54 418 q 61 371 57 386 q 69 338 64 354 q 81 307 74 322 q 113 246 93 275 q 156 189 132 217 q 215 242 186 215 q 271 299 244 269 q 326 356 299 326 q 379 417 353 386 l 379 418 m 946 858 q 856 822 908 851 q 738 736 804 792 q 590 599 671 681 q 415 410 510 517 q 416 401 415 406 q 417 390 417 396 q 419 374 418 382 q 419 357 419 365 q 422 334 421 344 q 422 313 422 324 q 422 265 422 288 q 419 224 421 243 q 415 185 418 204 q 408 150 413 167 q 526 320 465 235 q 654 493 588 406 q 792 673 719 582 q 946 857 865 764 l 946 858 m 1000 888 q 843 672 918 775 q 703 471 768 568 q 573 277 636 374 q 450 85 510 181 q 494 97 474 89 q 532 114 514 104 q 568 138 550 124 q 604 172 586 153 l 622 156 q 583 114 604 132 q 536 82 561 96 q 484 61 511 68 q 428 53 457 54 l 393 0 l 313 0 l 350 58 q 297 69 324 61 q 247 86 271 76 q 200 113 224 97 q 153 146 176 128 q 56 72 101 103 q -24 21 11 40 q -94 -6 -60 3 q -160 -15 -129 -15 q -201 -9 -183 -15 q -233 8 -219 -3 q -255 38 -249 21 q -261 75 -261 54 q -254 112 -261 94 q -232 144 -247 129 q -212 163 -222 156 q -190 174 -201 169 q -180 176 -185 175 q -169 176 -175 176 q -151 174 -160 176 q -135 165 -142 171 q -125 151 -129 160 q -121 135 -121 143 q -125 117 -121 125 q -135 101 -129 108 q -150 90 -142 94 q -168 86 -158 86 q -178 88 -172 86 q -189 90 -183 89 q -198 94 -194 93 q -203 94 -201 94 q -215 92 -210 94 q -222 86 -219 90 q -228 76 -226 82 q -229 61 -229 69 q -224 42 -229 51 q -208 26 -219 33 q -185 15 -199 19 q -153 11 -171 11 q -94 22 -126 11 q -25 51 -61 32 q 50 101 10 71 q 133 169 90 131 q 81 236 104 201 q 43 306 58 271 q 21 377 29 342 q 13 447 13 413 q 25 529 13 492 q 61 596 38 567 q 116 641 85 626 q 185 656 147 656 q 252 641 219 656 q 315 597 285 626 q 368 531 346 568 q 404 444 390 493 q 599 647 511 563 q 753 785 686 732 q 873 864 819 838 q 967 890 926 890 q 977 890 971 890 q 990 888 983 889 q 996 886 993 886 q 1000 886 999 886 l 1000 888 z "},"B":{"ha":1154,"x_min":-235,"x_max":1100,"o":"m 957 832 q 988 847 972 839 q 1018 861 1003 854 q 1053 874 1035 868 q 1093 888 1071 881 l 1100 867 q 1070 852 1085 860 q 1040 838 1056 844 q 1011 823 1025 831 q 983 808 997 815 q 1010 772 999 790 q 1029 736 1022 754 q 1040 701 1036 719 q 1043 663 1043 682 q 1028 583 1043 619 q 983 515 1014 547 q 909 461 953 485 q 808 422 865 438 q 838 388 825 404 q 858 356 851 371 q 870 324 867 340 q 874 288 874 307 q 867 235 874 261 q 847 185 861 208 q 812 135 833 160 q 761 85 790 110 q 708 45 738 63 q 647 15 679 28 q 585 -3 615 3 q 526 -8 554 -8 q 482 -4 501 -8 q 449 8 463 0 q 428 31 435 18 q 422 63 422 44 q 443 127 422 96 q 504 186 464 158 q 598 233 546 215 q 714 257 650 250 l 718 236 q 615 210 663 228 q 528 167 567 193 q 470 115 489 140 q 451 64 451 89 q 455 46 451 54 q 467 31 458 38 q 485 22 474 25 q 510 19 496 19 q 557 26 532 19 q 608 46 582 32 q 660 80 636 61 q 707 121 685 99 q 754 176 735 149 q 788 229 774 203 q 808 279 801 256 q 814 325 814 303 q 812 353 814 340 q 803 376 810 367 q 789 397 797 388 q 769 413 781 406 q 759 412 764 413 q 750 411 754 411 q 741 410 744 411 q 733 410 738 410 q 726 410 729 410 q 721 410 724 410 q 716 408 718 408 q 711 408 714 408 q 688 410 697 408 q 671 417 678 413 q 660 424 664 419 q 657 435 657 429 q 660 444 657 440 q 668 451 663 449 q 683 458 675 456 q 699 460 690 460 q 713 459 706 460 q 731 456 721 458 q 749 451 739 454 q 771 446 760 449 q 853 475 815 453 q 925 536 892 497 q 973 614 957 575 q 989 693 989 653 q 987 721 989 708 q 979 744 985 733 q 967 766 975 756 q 950 786 960 776 q 778 637 867 731 q 597 410 690 543 q 574 378 583 392 q 557 354 564 364 q 415 180 485 251 q 278 68 344 108 q 135 10 213 29 q -26 -8 58 -8 q -114 -2 -75 -8 q -181 18 -153 4 q -222 53 -208 33 q -235 97 -235 72 q -227 133 -235 117 q -204 165 -219 150 q -172 188 -189 181 q -136 196 -156 196 q -116 193 -125 196 q -100 185 -107 190 q -90 172 -94 179 q -86 156 -86 165 q -90 140 -86 147 q -100 126 -94 133 q -115 117 -107 121 q -131 114 -122 114 q -142 115 -136 114 q -156 119 -149 117 q -167 124 -162 122 q -174 125 -172 125 q -185 123 -181 125 q -193 117 -189 121 q -199 106 -197 113 q -200 93 -200 100 q -190 63 -200 76 q -157 38 -179 49 q -106 22 -135 28 q -40 17 -76 17 q 81 32 24 17 q 190 78 139 47 q 311 178 243 110 q 464 353 379 247 q 474 366 468 358 q 489 383 481 374 q 713 637 604 531 q 926 810 822 743 q 875 843 904 829 q 813 867 846 857 q 743 881 781 876 q 665 886 706 886 q 538 875 601 886 q 411 840 474 864 q 292 785 349 818 q 186 713 236 753 q 126 653 153 683 q 79 589 99 622 q 49 526 60 557 q 39 468 39 496 q 47 425 39 444 q 72 390 56 406 q 113 369 90 376 q 163 361 135 361 q 289 392 224 361 q 421 486 354 424 q 535 624 489 549 q 607 788 582 700 l 631 789 q 569 614 613 694 q 456 467 525 533 q 313 367 386 400 q 165 333 240 333 q 99 342 128 333 q 51 369 71 351 q 20 414 31 389 q 10 472 10 439 q 22 542 10 507 q 60 615 35 578 q 117 689 83 654 q 194 754 151 724 q 303 824 247 794 q 419 872 360 853 q 542 902 481 892 q 667 913 603 913 q 755 908 714 913 q 832 892 796 903 q 899 866 868 882 q 957 831 931 850 l 957 832 z "},"C":{"ha":1011,"x_min":26,"x_max":1063,"o":"m 375 475 q 474 484 424 476 q 575 504 524 492 q 674 536 625 518 q 772 576 724 554 q 876 633 829 603 q 957 697 922 663 q 1012 759 993 731 q 1031 810 1031 788 q 1026 835 1031 825 q 1013 851 1021 846 q 991 862 1004 858 q 958 865 978 865 q 839 840 906 865 q 694 761 772 814 q 537 638 617 710 q 375 474 457 565 l 375 475 m 644 901 l 636 881 q 585 890 610 886 q 539 896 561 894 q 497 900 517 899 q 458 901 478 901 q 306 881 376 901 q 176 821 236 861 q 88 735 118 781 q 58 638 58 689 q 73 577 58 604 q 115 529 88 550 q 183 494 143 507 q 272 478 222 482 q 455 647 363 572 q 640 778 547 722 q 814 863 735 835 q 957 890 893 890 q 1002 885 983 890 q 1035 872 1021 881 q 1056 850 1049 863 q 1063 819 1063 838 q 1044 758 1063 790 q 990 690 1026 726 q 908 621 956 654 q 799 557 860 588 q 689 510 744 531 q 575 475 633 490 q 460 453 517 461 q 347 443 403 446 q 263 344 299 390 q 206 258 228 297 q 172 184 183 219 q 161 117 161 149 q 171 71 161 90 q 200 36 181 51 q 247 13 219 21 q 310 6 275 6 q 372 12 340 6 q 438 28 404 18 q 501 54 471 39 q 560 88 532 69 q 615 131 592 108 q 654 175 638 153 q 681 220 672 199 q 689 263 689 242 q 682 295 689 281 q 661 321 675 310 q 630 338 647 332 q 589 343 613 343 q 502 324 546 343 q 414 269 458 306 q 334 185 371 233 q 267 76 297 138 l 244 82 q 307 199 271 146 q 390 292 343 253 q 486 351 438 332 q 586 371 535 371 q 640 363 617 371 q 682 340 664 356 q 709 306 700 326 q 718 260 718 286 q 712 221 718 242 q 693 179 706 200 q 665 140 682 160 q 625 101 647 121 q 553 50 590 72 q 474 11 515 28 q 394 -11 433 -3 q 317 -19 354 -19 q 226 -9 265 -19 q 160 24 188 1 q 120 79 133 47 q 107 153 107 111 q 115 219 107 185 q 142 290 124 253 q 185 367 160 328 q 244 450 211 407 q 152 474 193 458 q 83 515 111 490 q 40 572 54 540 q 26 640 26 603 q 56 753 26 701 q 143 846 85 804 q 276 908 201 888 q 442 929 351 929 q 488 928 464 929 q 536 922 511 926 q 588 914 561 919 q 644 900 615 908 l 644 901 z "},"D":{"ha":1014,"x_min":-285,"x_max":971,"o":"m 57 50 q -1 70 26 61 q -53 85 -28 79 q -101 92 -78 90 q -147 94 -125 94 q -189 92 -171 94 q -221 83 -207 90 q -242 71 -235 78 q -249 56 -249 64 q -240 39 -249 46 q -214 28 -232 32 q -172 20 -197 22 q -115 18 -147 18 q -76 20 -97 18 q -33 25 -56 22 q 10 35 -11 29 q 57 49 32 40 l 57 50 m 771 663 q 672 555 725 618 q 558 410 619 492 q 529 371 542 388 q 510 344 517 354 q 424 244 467 289 q 338 165 382 200 q 247 101 294 131 q 146 47 199 71 q 194 33 171 39 q 236 25 217 28 q 274 19 256 21 q 310 18 292 18 q 399 28 356 18 q 485 60 443 39 q 566 113 528 82 q 639 185 604 144 q 699 267 672 224 q 743 361 725 311 q 772 458 763 410 q 781 550 781 506 q 781 579 781 565 q 779 607 781 593 q 776 634 778 621 q 771 661 774 647 l 771 663 m 781 721 q 851 764 810 740 q 949 814 893 788 l 954 817 l 971 799 q 923 772 946 785 q 878 743 900 758 q 836 714 856 729 q 797 683 817 699 q 803 653 800 668 q 808 624 807 639 q 810 610 810 617 q 811 596 811 603 q 811 582 811 589 q 811 568 811 575 q 803 465 811 515 q 778 365 794 414 q 736 272 761 318 q 676 183 711 226 q 597 100 639 136 q 508 39 556 64 q 411 3 461 14 q 308 -7 361 -7 q 268 -5 289 -7 q 225 0 247 -3 q 171 10 203 1 q 99 29 139 18 q 39 12 68 19 q -17 0 10 4 q -45 -3 -31 -1 q -74 -6 -60 -4 q -102 -6 -87 -6 q -131 -7 -117 -7 q -194 -3 -167 -7 q -243 7 -222 0 q -274 28 -264 17 q -285 56 -285 40 q -276 83 -285 71 q -247 104 -267 94 q -203 118 -229 114 q -146 122 -178 122 q -93 119 -121 122 q -33 108 -65 115 q 27 90 -4 101 q 93 64 58 79 q 160 99 125 76 q 231 154 194 121 q 315 236 268 186 q 417 353 361 286 q 433 372 424 360 q 454 399 442 383 q 618 580 543 506 q 754 697 693 654 q 706 776 736 742 q 632 835 675 811 q 537 870 589 858 q 424 882 485 882 q 322 874 372 882 q 224 847 272 865 q 133 806 176 831 q 53 750 90 782 q -6 694 18 724 q -49 633 -31 664 q -76 572 -68 603 q -85 511 -85 540 q -73 451 -85 478 q -37 406 -61 425 q 16 376 -15 386 q 88 367 47 367 q 215 391 153 367 q 335 463 276 415 q 433 574 392 511 q 497 715 475 638 l 518 700 q 460 553 499 618 q 364 439 421 488 q 242 365 307 389 q 103 340 176 340 q 8 353 50 340 q -64 392 -33 365 q -110 451 -94 417 q -125 529 -125 486 q -116 599 -125 564 q -87 668 -107 633 q -43 734 -69 703 q 15 792 -17 765 q 94 845 51 822 q 185 885 136 868 q 285 908 233 900 q 393 917 338 917 q 522 904 463 917 q 631 865 582 892 q 718 804 681 840 q 781 719 756 768 l 781 721 z "},"E":{"ha":901,"x_min":-36,"x_max":938,"o":"m 404 572 q 590 595 503 574 q 754 657 678 617 q 869 736 832 697 q 907 810 907 775 q 903 828 907 821 q 892 842 899 836 q 872 850 883 847 q 843 853 860 853 q 726 831 788 853 q 596 767 665 810 q 480 675 528 724 q 404 571 432 626 l 404 572 m 544 897 l 532 876 q 494 886 514 882 q 456 893 475 890 q 416 897 436 896 q 376 897 396 897 q 274 885 321 897 q 188 847 226 872 q 131 790 150 821 q 113 722 113 760 q 128 663 113 690 q 178 617 144 636 q 254 585 210 596 q 354 574 299 575 q 362 611 356 592 q 379 650 368 631 q 407 691 390 671 q 444 731 424 711 q 528 792 482 765 q 625 840 574 819 q 728 872 678 861 q 828 882 779 882 q 876 877 856 882 q 910 864 896 872 q 931 842 925 856 q 938 811 938 829 q 898 726 938 768 q 779 639 858 683 q 606 572 700 596 q 404 542 513 547 l 404 533 q 404 527 404 531 q 404 521 404 524 q 405 518 404 519 q 406 515 406 517 q 406 513 406 514 q 407 510 407 511 l 428 511 q 467 508 450 510 q 493 501 483 506 q 510 493 504 499 q 517 481 517 488 q 514 472 517 475 q 504 465 511 468 q 490 461 499 463 q 471 460 482 460 q 451 461 461 460 q 432 464 440 463 q 415 470 422 467 q 400 479 407 474 q 249 422 319 460 q 122 329 179 385 q 35 221 64 274 q 6 118 6 168 q 18 74 6 94 q 57 39 31 54 q 115 15 82 24 q 189 7 147 7 q 328 26 263 7 q 454 82 394 44 q 545 159 515 119 q 575 238 575 199 q 568 272 575 257 q 547 296 561 286 q 513 312 533 307 q 468 317 493 317 q 385 303 426 317 q 300 265 343 290 q 215 201 258 239 q 128 110 172 163 l 108 119 q 184 214 143 172 q 272 286 225 256 q 368 331 319 315 q 465 346 417 346 q 524 339 497 346 q 568 317 550 332 q 597 283 588 303 q 606 239 606 264 q 574 147 606 192 q 476 61 542 103 q 341 0 413 19 q 192 -19 269 -19 q 94 -8 136 -19 q 21 26 53 4 q -22 83 -7 50 q -36 158 -36 115 q -10 277 -36 222 q 71 379 17 332 q 202 457 126 425 q 375 506 278 489 q 367 519 369 513 q 361 529 364 525 q 360 533 361 532 q 358 538 360 535 q 356 541 357 539 q 356 544 356 543 q 240 560 292 547 q 151 597 188 572 q 96 654 114 621 q 78 728 78 688 q 97 808 78 772 q 156 874 117 844 q 245 917 196 903 q 354 932 294 932 q 404 930 379 932 q 453 924 429 928 q 499 912 476 918 q 544 896 522 906 l 544 897 z "},"F":{"ha":878,"x_min":-160,"x_max":1188,"o":"m 857 781 l 869 761 q 806 701 838 733 q 742 632 774 669 q 679 549 710 593 q 618 453 649 504 q 638 456 629 454 q 656 458 647 457 q 672 462 664 460 q 688 465 681 464 q 704 484 696 475 q 722 501 713 493 q 739 517 731 510 q 756 531 747 525 q 786 548 774 542 q 808 554 799 554 q 811 554 810 554 q 814 553 813 554 q 815 552 814 553 q 818 551 817 551 q 820 547 819 550 q 821 542 821 544 q 813 521 821 532 q 788 494 804 510 q 749 467 771 481 q 703 443 728 454 q 694 426 699 435 q 686 411 689 418 q 678 394 682 403 q 672 378 675 386 q 664 348 667 363 q 661 321 661 333 l 610 306 q 624 355 613 325 q 657 424 636 385 l 660 431 q 645 426 653 428 q 631 421 638 424 q 614 417 624 419 q 592 413 604 415 q 465 222 532 304 q 324 85 397 140 q 169 3 250 29 q 1 -24 88 -24 q -62 -16 -33 -24 q -114 6 -92 -8 q -149 41 -137 21 q -160 86 -160 61 q -153 121 -160 106 q -133 150 -147 136 q -106 169 -121 163 q -74 175 -90 175 q -54 172 -62 175 q -39 163 -46 169 q -30 149 -33 157 q -26 131 -26 140 q -28 114 -26 121 q -36 101 -31 107 q -49 93 -42 96 q -64 90 -56 90 q -76 92 -69 90 q -87 96 -82 94 q -99 100 -94 99 q -106 101 -104 101 q -115 99 -111 101 q -122 94 -119 97 q -127 88 -125 92 q -129 78 -129 83 q -120 47 -129 60 q -93 22 -111 33 q -51 7 -75 13 q 0 1 -28 1 q 119 23 61 1 q 232 86 178 44 q 352 204 288 128 q 492 390 417 281 q 456 383 474 388 q 421 374 438 379 q 385 362 403 368 q 349 349 367 356 q 278 313 314 333 q 207 268 243 293 l 194 290 q 269 337 231 315 q 347 375 307 358 q 431 406 388 393 q 518 428 474 418 q 599 533 558 483 q 681 626 639 583 q 767 709 724 671 q 857 779 811 747 l 857 781 m 1178 899 l 1188 878 q 1141 849 1165 861 q 1089 829 1117 836 q 1032 817 1063 821 q 969 813 1001 813 q 867 819 928 813 q 724 836 806 825 q 584 853 643 847 q 489 860 525 860 q 342 839 408 860 q 218 778 275 818 q 135 690 163 738 q 107 589 107 642 q 116 538 107 561 q 143 500 125 515 q 186 475 161 483 q 243 467 211 467 q 348 485 296 467 q 451 539 400 504 q 544 622 503 575 q 617 729 586 669 l 643 731 q 575 612 617 664 q 479 519 533 560 q 369 459 426 479 q 250 439 311 439 q 176 449 208 439 q 121 481 144 460 q 87 528 99 500 q 75 590 75 556 q 110 708 75 653 q 213 811 144 764 q 367 883 282 860 q 554 906 453 906 q 664 901 601 906 q 804 885 726 896 q 937 869 882 875 q 1022 864 992 864 q 1067 866 1046 864 q 1106 871 1088 868 q 1123 876 1114 874 q 1142 882 1132 879 q 1160 889 1151 885 q 1178 897 1169 893 l 1178 899 z "},"G":{"ha":960,"x_min":-53,"x_max":978,"o":"m 386 558 q 595 585 497 561 q 775 653 693 610 q 900 740 858 697 q 942 825 942 782 q 938 846 942 836 q 926 861 933 856 q 906 870 918 868 q 879 872 894 872 q 776 852 832 872 q 654 790 719 832 q 523 692 590 750 q 386 557 456 633 l 386 558 m 568 896 l 554 875 q 521 883 538 879 q 488 889 504 888 q 452 893 469 892 q 415 894 435 894 q 297 879 351 894 q 199 835 243 864 q 132 772 154 806 q 110 700 110 739 q 122 651 110 674 q 157 610 133 628 q 215 580 181 592 q 293 561 249 568 q 435 697 360 636 q 594 806 510 758 q 750 876 679 853 q 876 899 821 899 q 920 894 901 899 q 951 881 939 890 q 971 858 964 871 q 978 826 978 844 q 963 774 978 801 q 919 719 949 747 q 853 665 892 690 q 765 615 814 639 q 674 578 722 594 q 575 550 626 561 q 472 533 524 539 q 369 526 421 526 l 360 528 q 312 469 333 497 q 275 415 290 442 q 253 367 261 389 q 244 328 244 346 q 251 299 244 311 q 272 275 258 286 q 303 261 285 265 q 344 257 322 257 q 419 269 378 257 q 507 306 460 281 q 615 369 556 331 q 747 463 675 408 l 765 446 q 707 378 736 419 q 646 281 678 338 q 629 250 636 263 q 617 229 622 238 q 533 125 582 171 q 419 46 483 79 q 287 -4 356 11 q 143 -19 218 -19 q 59 -12 96 -19 q -1 6 22 -6 q -40 39 -26 19 q -53 85 -53 58 q -46 117 -53 101 q -24 147 -39 133 q -15 156 -19 153 q -4 163 -10 160 q 14 172 4 169 q 33 175 24 175 q 52 173 44 175 q 65 164 60 171 q 75 151 72 158 q 78 136 78 144 q 75 120 78 126 q 67 107 72 114 q 53 99 61 101 q 38 96 46 96 q 29 97 33 96 q 18 100 25 99 q 8 104 13 103 q 1 106 4 106 q -1 105 0 106 q -4 104 -3 104 q -8 101 -6 103 q -11 97 -10 100 q -13 94 -12 96 q -15 90 -14 92 q -17 84 -17 88 q -18 76 -18 81 q -8 49 -18 61 q 21 25 1 36 q 69 10 42 15 q 131 6 96 6 q 266 24 203 6 q 385 81 329 43 q 497 181 440 118 q 608 333 553 244 q 531 285 567 306 q 463 253 494 265 q 401 235 431 240 q 343 229 371 229 q 284 237 310 229 q 239 261 258 244 q 211 299 221 276 q 201 350 201 322 q 206 392 201 369 q 221 438 211 414 q 244 485 231 461 q 275 536 257 510 q 190 558 228 543 q 126 594 153 572 q 88 645 100 618 q 75 704 75 672 q 98 789 75 750 q 168 860 121 828 q 273 908 215 892 q 399 924 331 924 q 420 924 410 924 q 442 922 431 924 q 463 920 451 921 q 483 917 474 919 q 526 907 506 913 q 568 894 547 901 l 568 896 z "},"H":{"ha":821,"x_min":-264,"x_max":1129,"o":"m 639 514 q 816 598 735 551 q 964 700 897 644 q 1065 797 1032 756 q 1099 864 1099 838 q 1098 874 1099 869 q 1094 881 1097 878 q 1088 885 1092 883 q 1076 886 1083 886 q 1008 861 1050 886 q 910 788 967 836 q 785 670 853 739 q 639 513 717 601 l 639 514 m 176 356 q 16 279 88 319 q -115 190 -56 239 q -204 105 -175 143 q -233 38 -233 67 q -232 26 -233 32 q -226 18 -231 21 q -217 13 -222 15 q -201 11 -211 11 q -135 33 -174 11 q -47 99 -96 56 q 56 206 0 143 q 176 354 113 269 l 176 356 m 606 469 q 480 323 535 390 q 386 200 425 256 q 328 106 347 144 q 310 46 310 68 q 312 31 310 38 q 319 21 314 25 q 331 13 324 15 q 347 11 338 11 q 391 23 364 11 q 454 58 418 35 q 531 114 490 82 q 619 189 572 146 l 636 171 q 549 92 592 126 q 467 32 507 57 q 394 -4 426 7 q 338 -15 361 -15 q 308 -10 321 -15 q 285 1 294 -6 q 270 26 275 13 q 265 56 265 39 q 281 130 265 88 q 326 224 296 172 q 399 333 357 276 q 497 450 442 389 q 440 435 468 442 q 389 421 413 428 q 372 417 381 419 q 357 413 364 414 q 326 404 340 408 q 296 396 311 400 q 148 219 219 296 q 11 89 76 142 q -109 10 -53 36 q -212 -15 -165 -15 q -236 -12 -226 -15 q -251 -3 -246 -10 q -261 10 -258 1 q -264 31 -264 19 q -231 116 -264 71 q -129 214 -197 161 q 24 314 -62 267 q 218 403 110 361 q 310 513 264 460 q 404 613 357 565 q 500 705 451 661 q 600 788 549 749 q 574 781 586 783 q 550 776 561 779 q 530 774 540 775 q 510 772 519 772 q 454 783 483 772 q 390 814 425 793 q 328 845 356 835 q 281 856 301 856 q 210 843 243 856 q 150 807 178 831 q 108 755 122 782 q 93 699 93 728 q 99 667 93 681 q 118 642 106 653 q 149 626 131 632 q 189 621 167 621 q 237 628 213 621 q 286 649 261 635 q 333 683 310 663 q 379 729 357 703 l 396 721 q 354 667 378 690 q 301 626 331 644 q 244 601 274 610 q 183 593 214 593 q 135 599 157 593 q 96 619 113 606 q 72 652 81 633 q 64 693 64 671 q 83 765 64 731 q 140 831 103 800 q 221 878 179 863 q 308 894 263 894 q 369 883 338 894 q 435 850 401 872 q 496 817 469 828 q 542 806 522 806 q 578 810 560 806 q 617 824 597 814 q 671 855 638 833 q 751 911 704 876 l 775 896 q 654 799 713 850 q 539 690 596 747 q 431 569 483 633 q 326 433 378 504 q 385 448 354 440 q 447 464 415 456 q 499 476 479 471 q 524 483 518 482 q 704 664 619 585 q 861 799 789 743 q 989 885 935 856 q 1078 914 1043 914 q 1101 911 1092 914 q 1117 904 1111 908 q 1126 892 1124 899 q 1129 874 1129 885 q 1092 788 1129 836 q 981 679 1056 739 q 812 567 906 619 q 606 468 718 514 l 606 469 z "},"I":{"ha":789,"x_min":-289,"x_max":1058,"o":"m 582 486 q 641 496 611 488 q 701 521 671 504 q 765 560 732 536 q 835 617 799 585 l 839 594 q 778 539 810 563 q 710 496 746 515 q 639 467 675 478 q 567 453 603 457 q 428 238 500 328 q 281 90 357 147 q 116 8 204 35 q -72 -19 28 -19 q -160 -11 -121 -19 q -231 13 -200 -3 q -274 51 -260 29 q -289 101 -289 74 q -282 137 -289 121 q -260 167 -275 153 q -229 189 -246 182 q -194 196 -212 196 q -176 193 -185 196 q -160 183 -167 190 q -150 170 -154 178 q -146 153 -146 163 q -149 139 -146 146 q -158 125 -153 132 q -171 117 -164 119 q -185 114 -178 114 q -197 115 -190 114 q -210 119 -203 117 q -222 124 -217 122 q -228 125 -226 125 q -238 123 -233 125 q -247 118 -243 121 q -255 109 -253 114 q -257 97 -257 104 q -244 61 -257 78 q -206 32 -231 44 q -147 13 -181 19 q -74 6 -114 6 q 72 32 1 6 q 210 110 143 58 q 346 249 275 163 q 492 456 417 335 q 426 477 454 463 q 378 511 397 492 q 350 557 360 532 q 340 613 340 582 q 366 712 340 668 q 443 790 392 756 q 568 844 494 824 q 738 872 642 865 q 786 877 757 875 q 853 881 815 879 q 915 885 890 882 q 951 890 939 888 q 960 892 954 890 q 974 897 965 894 q 1008 908 993 904 q 1033 911 1022 911 q 1044 910 1039 911 q 1051 907 1049 910 q 1053 905 1053 906 q 1056 903 1054 904 q 1058 899 1057 901 q 1058 894 1058 897 q 1050 880 1058 886 q 1026 867 1042 874 q 992 858 1011 861 q 950 856 972 856 q 890 828 929 856 q 793 746 851 800 q 682 626 735 692 q 582 485 629 561 l 582 486 m 876 851 l 860 851 q 670 831 756 850 q 517 775 585 813 q 414 693 449 738 q 379 597 379 649 q 389 555 379 575 q 417 519 399 535 q 458 496 435 504 q 511 485 482 488 q 592 595 550 543 q 682 694 635 647 q 778 781 729 742 q 876 850 826 819 l 876 851 z "},"J":{"ha":674,"x_min":-425,"x_max":886,"o":"m 18 46 q -135 0 -64 26 q -267 -61 -207 -26 q -357 -127 -328 -97 q -386 -181 -386 -157 q -383 -197 -386 -190 q -374 -210 -381 -204 q -358 -218 -367 -215 q -337 -221 -349 -221 q -265 -203 -304 -221 q -178 -150 -225 -186 q -81 -66 -131 -115 q 18 44 -32 -17 l 18 46 m 401 479 q 461 496 432 485 q 518 524 490 507 q 575 560 547 539 q 629 606 603 581 l 643 592 q 593 539 621 563 q 531 496 565 515 q 459 463 497 476 q 378 439 421 449 q 309 328 339 375 q 258 249 279 281 q 220 192 239 218 q 182 142 201 165 q 231 160 206 149 q 283 185 257 171 q 338 215 310 199 q 396 251 365 232 l 407 231 q 359 194 385 211 q 301 161 333 178 q 233 127 271 144 q 149 90 194 110 q 22 -53 85 10 q -104 -160 -40 -115 q -227 -226 -168 -204 q -342 -249 -286 -249 q -376 -244 -361 -249 q -403 -231 -392 -239 q -419 -210 -414 -222 q -425 -182 -425 -197 q -394 -110 -425 -147 q -300 -37 -362 -74 q -149 28 -236 -3 q 49 86 -61 60 l 89 146 q 213 322 163 247 q 294 444 264 397 q 231 465 260 451 q 183 499 203 478 q 153 547 163 519 q 143 604 143 574 q 176 712 143 664 q 275 797 208 760 q 428 853 342 835 q 622 872 515 872 q 626 872 622 872 q 635 874 629 872 q 674 874 654 874 q 713 874 694 874 q 750 878 731 874 q 792 890 769 882 q 833 901 815 897 q 864 906 850 906 q 874 906 869 906 q 879 903 878 906 q 883 901 882 903 q 885 897 883 899 q 885 897 885 897 q 886 894 886 896 q 877 881 886 888 q 849 868 868 875 q 811 859 831 863 q 772 856 792 856 q 717 828 756 856 q 619 743 679 800 q 505 622 560 688 q 401 478 450 556 l 401 479 m 701 846 l 681 846 q 486 825 575 844 q 326 767 397 806 q 220 681 256 728 q 185 582 185 635 q 194 542 185 560 q 219 508 203 524 q 261 485 238 494 q 315 474 285 476 q 400 582 356 531 q 492 679 444 633 q 592 767 539 726 q 701 844 644 808 l 701 846 z "},"K":{"ha":953,"x_min":-269,"x_max":1147,"o":"m 1088 865 l 1082 865 q 1031 832 1064 864 q 950 738 997 800 q 907 681 926 706 q 872 636 888 656 q 802 559 838 593 q 729 499 767 525 q 656 455 693 472 q 583 431 619 438 q 596 412 590 421 q 606 393 601 403 q 610 372 608 383 q 611 349 611 361 q 610 328 611 339 q 607 308 610 318 q 602 288 606 299 q 594 268 599 278 q 567 222 585 249 q 524 163 550 194 q 517 151 521 157 q 506 139 513 146 q 456 72 472 97 q 439 35 439 46 q 441 25 439 29 q 447 17 443 21 q 457 12 451 14 q 468 10 463 10 q 517 22 489 10 q 582 56 546 33 q 661 111 618 78 q 754 189 704 144 l 772 171 q 683 90 726 125 q 599 31 639 56 q 524 -5 557 7 q 463 -17 490 -17 q 431 -12 444 -17 q 407 0 418 -7 q 392 22 397 10 q 388 53 388 35 q 394 90 388 71 q 411 131 400 110 q 443 182 422 153 q 494 247 464 211 q 533 295 518 274 q 557 332 549 317 q 569 363 565 347 q 574 393 574 379 q 572 401 574 397 q 568 408 571 406 q 563 416 567 413 q 554 422 558 419 q 549 424 551 424 q 543 425 546 425 q 540 425 542 425 q 538 426 539 425 q 535 426 536 426 q 533 426 535 426 l 514 428 q 500 428 506 426 q 489 432 494 429 q 483 440 485 436 q 481 450 481 444 q 483 456 481 453 q 490 463 485 460 q 502 467 496 465 q 517 468 508 468 q 523 468 519 468 q 532 465 526 468 q 542 461 536 464 q 558 454 549 458 q 607 470 582 458 q 657 500 632 482 q 717 553 683 519 q 793 635 750 588 l 818 665 q 993 840 922 781 q 1100 899 1064 899 q 1120 897 1111 899 q 1135 890 1129 894 q 1144 878 1142 885 q 1147 865 1147 872 q 1144 852 1147 858 q 1136 842 1142 846 q 1125 834 1131 836 q 1113 832 1119 832 q 1102 833 1107 832 q 1094 839 1097 835 q 1089 847 1090 842 q 1088 860 1088 853 l 1088 865 l 1088 865 m 874 896 l 906 883 q 647 664 765 782 q 435 410 529 546 l 433 408 l 419 388 q 281 204 347 279 q 156 86 214 129 q 85 42 121 61 q 14 7 50 22 q -54 -11 -21 -4 q -118 -18 -87 -18 q -180 -10 -153 -18 q -228 11 -207 -3 q -259 47 -249 26 q -269 90 -269 67 q -262 127 -269 110 q -239 158 -254 144 q -206 181 -224 174 q -168 189 -187 189 q -151 186 -158 189 q -136 179 -143 183 q -128 167 -131 174 q -125 153 -125 161 q -128 138 -125 144 q -137 124 -132 131 q -151 115 -144 118 q -168 113 -158 113 q -176 113 -171 113 q -186 115 -181 114 q -197 118 -193 118 q -203 118 -201 118 q -215 116 -210 118 q -225 108 -221 114 q -231 96 -229 103 q -233 81 -233 89 q -226 53 -233 65 q -201 29 -218 40 q -164 14 -185 19 q -118 8 -143 8 q -91 10 -104 8 q -64 15 -78 11 q -10 35 -36 22 q 43 68 17 49 q 135 149 85 99 q 242 271 185 199 q 268 303 253 283 q 304 350 283 324 q 528 607 419 499 q 736 786 636 715 q 706 776 721 781 q 676 769 690 772 q 649 766 663 768 q 622 764 635 764 q 584 767 603 764 q 549 775 565 769 q 513 790 532 781 q 471 813 494 799 q 467 816 469 814 q 463 819 465 818 q 394 854 428 843 q 329 865 361 865 q 249 851 288 865 q 176 810 211 838 q 125 752 142 783 q 108 688 108 721 q 117 648 108 665 q 143 618 125 631 q 185 597 161 604 q 238 590 208 590 q 296 598 267 590 q 353 619 325 606 q 406 653 381 633 q 453 697 431 672 l 464 685 q 417 631 443 653 q 361 592 392 608 q 300 568 332 576 q 233 560 268 560 q 169 569 199 560 q 118 594 140 578 q 87 635 97 613 q 76 688 76 658 q 97 767 76 729 q 160 836 118 804 q 251 884 203 868 q 356 900 300 900 q 395 898 376 900 q 432 890 414 896 q 474 874 450 885 q 525 847 497 864 q 531 844 528 846 q 539 839 533 842 q 601 811 572 821 q 656 801 631 801 q 706 807 679 801 q 758 824 732 813 q 815 853 786 836 q 874 894 843 871 l 874 896 z "},"L":{"ha":858,"x_min":-322,"x_max":1072,"o":"m 13 44 q -51 65 -19 56 q -108 81 -82 75 q -159 90 -136 88 q -200 93 -182 93 q -235 90 -219 93 q -264 82 -250 88 q -283 69 -276 76 q -289 54 -289 61 q -281 38 -289 44 q -256 25 -272 31 q -216 17 -239 19 q -164 15 -193 15 q -122 17 -143 15 q -78 22 -101 18 q -48 28 -64 25 q -17 35 -32 31 q -3 38 -10 36 q 13 43 4 40 l 13 44 m 557 483 q 644 503 601 489 q 731 539 688 518 q 816 587 774 560 q 900 647 858 614 q 957 699 932 672 q 1001 753 982 725 q 1031 802 1021 781 q 1042 840 1042 824 q 1038 861 1042 851 q 1028 876 1035 871 q 1013 886 1022 883 q 993 889 1004 889 q 904 861 954 889 q 793 778 854 833 q 674 649 733 722 q 557 482 615 575 l 557 483 m 642 915 l 635 894 q 583 905 608 900 q 533 913 557 910 q 509 915 521 914 q 486 918 497 917 q 463 919 475 918 q 439 919 451 919 q 298 900 363 919 q 181 842 233 881 q 101 758 128 803 q 75 664 75 714 q 97 583 75 619 q 165 519 119 547 q 269 478 210 493 q 403 464 329 464 q 412 464 407 464 q 421 465 417 464 q 427 465 424 465 q 433 465 431 465 q 447 465 440 465 q 458 465 453 465 q 607 653 533 571 q 753 794 681 735 q 885 885 825 856 q 993 915 946 915 q 1026 910 1013 915 q 1051 896 1040 906 q 1067 874 1063 886 q 1072 846 1072 861 q 1060 790 1072 819 q 1024 726 1049 760 q 964 660 999 693 q 885 596 929 628 q 797 538 842 564 q 708 493 753 513 q 622 463 665 475 q 536 443 579 450 q 440 300 486 363 q 349 193 393 238 q 258 114 306 149 q 161 56 211 79 q 213 41 189 47 q 254 32 236 35 q 292 26 274 28 q 325 25 310 25 q 364 27 344 25 q 403 35 383 29 q 442 47 422 39 q 481 64 461 54 q 566 118 521 85 q 663 199 611 151 l 681 179 q 578 91 628 128 q 483 31 529 54 q 390 -1 438 8 q 293 -11 343 -11 q 244 -9 271 -11 q 190 -1 218 -7 q 133 9 164 1 q 68 26 101 17 q 2 8 33 15 q -58 -1 -29 0 q -117 -9 -89 -7 q -172 -11 -146 -11 q -238 -7 -210 -11 q -285 3 -267 -3 q -313 24 -304 11 q -322 54 -322 36 q -312 83 -322 69 q -281 107 -301 97 q -232 124 -260 118 q -169 129 -204 129 q -108 125 -140 129 q -42 114 -76 121 q 31 95 -8 107 q 115 68 71 83 q 192 120 153 88 q 274 199 232 153 q 356 305 314 246 q 439 435 397 364 l 396 436 q 252 451 315 435 q 140 499 189 467 q 69 572 93 531 q 44 664 44 613 q 73 770 44 721 q 158 863 101 819 q 285 926 215 904 q 435 947 354 947 q 488 945 463 947 q 540 939 514 943 q 565 933 553 936 q 592 928 578 931 q 617 922 604 925 q 642 914 629 918 l 642 915 z "},"M":{"ha":904,"x_min":-369,"x_max":1054,"o":"m 764 906 q 505 611 625 753 q 286 338 385 469 q 136 131 186 207 q 86 35 86 56 q 86 34 86 35 q 88 32 86 33 q 88 30 88 31 q 90 29 89 29 q 94 27 92 28 q 97 26 96 26 q 171 85 114 26 q 325 260 228 143 q 374 317 353 292 q 408 361 394 343 q 650 637 549 526 q 814 800 751 747 q 930 879 876 853 q 1028 906 983 906 q 1036 906 1032 906 q 1042 906 1040 906 q 1048 906 1044 906 q 1054 904 1051 906 q 797 597 913 739 q 593 335 682 454 q 459 144 504 215 q 414 51 414 74 q 417 38 415 43 q 422 29 419 32 q 431 24 425 25 q 443 22 436 22 q 483 32 458 22 q 538 61 507 42 q 609 109 569 81 q 694 175 649 138 l 711 157 q 632 88 671 118 q 556 36 593 58 q 488 5 518 14 q 433 -4 457 -4 q 408 -1 419 -4 q 388 11 396 1 q 375 32 379 19 q 371 60 371 44 q 406 181 371 108 q 514 347 442 253 q 702 571 586 442 q 979 863 818 700 q 885 815 936 849 q 778 728 835 782 q 628 572 721 675 q 408 315 536 468 q 385 286 399 303 q 354 249 372 269 q 181 59 249 122 q 83 -4 114 -4 q 67 -2 74 -4 q 56 6 60 0 q 48 22 50 13 q 46 46 46 32 q 89 174 46 94 q 218 365 132 254 q 422 603 304 476 q 692 872 540 729 q 615 838 656 863 q 528 778 574 814 q 427 686 482 740 q 307 561 372 632 q 242 490 279 531 q 156 396 204 449 q -138 94 -25 194 q -297 -7 -251 -7 q -327 -3 -314 -7 q -350 10 -340 0 q -365 33 -360 19 q -369 61 -369 46 q -363 95 -369 79 q -346 125 -357 111 q -322 147 -335 140 q -294 153 -308 153 q -283 151 -289 153 q -272 143 -276 149 q -264 131 -267 138 q -261 118 -261 125 q -270 94 -261 104 q -297 81 -279 85 q -324 68 -315 75 q -333 51 -333 61 q -331 38 -333 44 q -322 28 -328 32 q -310 23 -317 25 q -292 21 -303 21 q -171 97 -257 21 q 53 328 -85 174 q 140 423 101 381 q 206 496 178 465 q 415 713 329 628 q 551 835 500 797 q 647 889 601 871 q 733 907 693 907 q 740 907 736 907 q 747 907 743 907 q 752 906 750 907 q 756 906 754 906 q 760 905 758 906 q 764 904 763 904 l 764 906 z "},"N":{"ha":797,"x_min":-354,"x_max":1053,"o":"m 597 903 q 544 765 575 857 q 478 533 514 672 q 401 281 442 394 q 317 82 361 168 q 360 137 336 106 q 414 208 385 168 q 489 316 443 249 q 599 476 535 383 l 604 488 q 840 799 744 694 q 986 903 935 903 q 1014 899 1001 903 q 1035 886 1026 894 q 1049 866 1044 878 q 1053 839 1053 854 q 1049 811 1053 825 q 1036 786 1044 797 q 1017 770 1028 776 q 994 764 1007 764 q 982 767 988 764 q 971 774 976 769 q 963 785 965 779 q 960 797 960 790 q 967 817 960 808 q 988 831 974 825 q 999 836 994 833 q 1007 842 1004 839 q 1013 847 1011 844 q 1014 853 1014 850 q 1013 856 1014 854 q 1011 860 1013 858 q 1008 863 1010 861 q 1003 867 1006 865 q 992 872 997 871 q 979 874 986 874 q 862 783 942 874 q 660 510 782 692 q 628 464 642 483 q 606 431 614 444 q 469 236 528 317 q 371 107 411 156 q 297 29 331 60 q 236 -15 264 -1 q 298 152 265 47 q 365 401 331 257 q 439 649 400 546 q 521 815 478 753 q 399 691 478 785 q 208 440 321 597 q 159 372 181 401 q 122 321 138 342 q 4 169 58 233 q -97 64 -50 106 q -188 3 -146 22 q -267 -17 -231 -17 q -302 -11 -286 -17 q -331 3 -318 -6 q -349 28 -343 14 q -354 60 -354 43 q -348 92 -354 78 q -329 121 -342 107 q -303 141 -317 135 q -274 147 -289 147 q -259 145 -265 147 q -247 139 -253 143 q -239 128 -242 133 q -236 114 -236 122 q -247 91 -236 100 q -275 75 -257 82 q -305 62 -294 69 q -315 43 -315 54 q -312 30 -315 36 q -301 19 -308 24 q -286 13 -296 15 q -265 11 -276 11 q -195 31 -233 11 q -112 89 -157 50 q -20 185 -68 128 q 83 317 28 242 q 113 358 94 333 q 153 414 131 382 q 420 753 310 631 q 597 901 531 875 l 597 903 z "},"O":{"ha":919,"x_min":-35,"x_max":956,"o":"m 839 625 l 828 644 q 869 672 851 657 q 899 704 888 688 q 917 738 911 719 q 924 775 924 756 q 915 813 924 796 q 888 842 906 829 q 847 860 871 854 q 792 867 824 867 q 690 851 744 867 q 575 801 636 835 q 453 725 513 769 q 338 624 394 681 q 198 474 258 546 q 96 336 138 401 q 31 217 53 271 q 10 121 10 164 q 19 74 10 94 q 46 38 28 53 q 88 14 64 22 q 140 6 111 6 q 241 25 188 6 q 354 82 294 44 q 473 172 415 119 q 586 289 531 224 q 660 385 628 338 q 715 478 693 433 q 751 560 739 522 q 763 626 763 597 q 758 658 763 644 q 742 682 753 672 q 717 698 732 693 q 683 703 703 703 q 636 696 661 703 q 583 675 611 689 q 530 640 557 661 q 475 594 503 619 q 432 545 451 569 q 397 497 413 521 q 376 456 383 475 q 368 422 368 438 q 372 402 368 411 q 381 386 375 393 q 397 377 388 381 q 418 374 407 374 q 472 390 443 374 q 532 438 500 406 q 593 514 564 471 q 647 608 622 557 l 667 601 q 619 498 647 544 q 553 415 590 451 q 479 361 515 379 q 408 343 443 343 q 376 349 390 343 q 350 364 361 354 q 334 389 340 375 q 328 421 328 403 q 335 468 328 444 q 356 518 342 492 q 389 569 369 544 q 433 615 408 593 q 494 665 463 643 q 560 703 525 688 q 624 727 593 719 q 683 735 656 735 q 729 728 708 735 q 764 707 750 722 q 786 674 779 693 q 793 631 793 654 q 781 555 793 597 q 740 461 768 513 q 679 359 714 410 q 600 258 644 308 q 481 140 540 192 q 361 53 422 89 q 246 -1 301 17 q 139 -18 190 -18 q 66 -7 99 -18 q 10 26 33 4 q -24 81 -12 50 q -35 151 -35 113 q -15 276 -35 211 q 47 408 6 340 q 147 542 89 478 q 278 664 206 606 q 412 762 344 719 q 547 835 479 804 q 675 880 615 865 q 786 894 735 894 q 858 887 826 894 q 911 864 889 879 q 945 826 935 847 q 956 778 956 806 q 948 732 956 754 q 925 690 940 710 q 889 653 911 669 q 839 624 867 636 l 839 625 z "},"P":{"ha":994,"x_min":-249,"x_max":990,"o":"m 885 832 q 908 845 896 838 q 932 860 919 853 q 959 875 944 867 q 990 892 974 883 l 990 867 q 967 850 978 857 q 946 836 956 843 q 935 828 940 832 q 926 822 931 825 q 919 816 922 819 q 911 808 915 813 q 942 772 929 790 q 964 733 956 753 q 976 694 972 714 q 981 651 981 674 q 958 544 981 596 q 892 444 936 493 q 800 373 847 397 q 703 349 753 349 q 668 353 683 349 q 642 365 653 357 q 624 385 631 374 q 618 410 618 396 q 624 438 618 424 q 642 465 631 451 q 669 493 653 481 q 706 518 686 506 l 726 507 q 692 477 707 490 q 668 453 678 464 q 653 431 658 442 q 649 410 649 421 q 652 398 649 404 q 663 388 656 392 q 678 381 669 383 q 696 378 686 378 q 774 402 735 378 q 851 474 813 426 q 910 569 892 521 q 929 669 929 618 q 927 705 929 689 q 918 736 925 721 q 903 765 913 751 q 881 790 893 778 q 738 649 817 743 q 567 414 658 554 q 528 356 544 381 q 500 314 511 331 q 381 165 443 229 q 251 61 318 101 q 108 1 183 21 q -47 -18 33 -18 q -131 -11 -94 -18 q -194 8 -168 -4 q -235 44 -222 24 q -249 89 -249 64 q -240 128 -249 110 q -215 160 -232 146 q -182 183 -200 175 q -143 192 -164 192 q -125 189 -133 192 q -110 179 -117 186 q -100 166 -104 174 q -96 149 -96 158 q -99 135 -96 142 q -108 124 -103 129 q -122 115 -115 118 q -139 113 -129 113 q -149 114 -143 113 q -162 118 -156 115 q -176 122 -171 121 q -183 124 -182 124 q -196 121 -190 124 q -207 111 -201 118 q -215 98 -212 106 q -218 82 -218 90 q -207 52 -218 65 q -174 29 -196 39 q -122 15 -151 19 q -56 10 -93 10 q 66 28 7 10 q 178 83 125 47 q 303 195 232 119 q 461 385 374 271 q 480 411 468 396 q 507 449 492 426 q 690 665 601 575 q 858 808 778 754 q 810 834 836 824 q 751 851 783 844 q 685 863 721 858 q 607 867 649 867 q 490 857 549 867 q 375 828 432 847 q 266 783 318 810 q 167 721 214 756 q 101 664 129 693 q 51 604 72 635 q 20 544 31 574 q 10 486 10 514 q 17 444 10 463 q 40 413 25 425 q 76 392 56 399 q 122 386 96 386 q 236 414 178 386 q 354 496 294 442 q 464 622 415 551 q 550 781 513 693 l 575 778 q 494 602 542 679 q 386 468 447 525 q 263 381 326 410 q 133 351 199 351 q 69 361 99 351 q 19 389 40 371 q -10 433 0 408 q -19 489 -19 458 q -8 555 -19 521 q 28 624 4 589 q 88 693 53 660 q 168 757 124 726 q 268 816 215 790 q 379 860 321 842 q 497 886 438 878 q 615 894 556 894 q 693 891 656 894 q 765 879 731 888 q 830 858 800 871 q 885 831 860 846 l 885 832 z "},"Q":{"ha":976,"x_min":-35,"x_max":956,"o":"m 839 625 l 828 644 q 869 672 851 657 q 899 704 888 688 q 917 738 911 719 q 924 775 924 756 q 915 813 924 796 q 888 842 906 829 q 847 860 871 854 q 792 867 824 867 q 690 851 744 867 q 575 801 636 835 q 453 725 513 769 q 338 624 394 681 q 198 474 258 546 q 96 336 138 401 q 31 217 53 271 q 10 121 10 164 q 19 74 10 94 q 46 38 28 53 q 87 14 64 22 q 140 6 110 6 q 175 8 157 6 q 211 15 193 11 q 251 29 231 21 q 293 47 271 38 q 280 78 288 64 q 265 101 272 92 q 259 112 263 107 q 251 119 256 117 q 226 135 240 131 q 196 140 213 140 q 167 136 182 140 q 133 125 151 132 q 97 106 115 117 q 57 81 78 96 l 47 101 q 94 133 71 119 q 136 154 117 146 q 175 167 156 163 q 213 172 194 172 q 251 166 233 172 q 285 149 269 160 q 316 120 300 139 q 347 76 332 101 q 510 208 436 138 q 644 360 585 279 q 733 508 704 442 q 763 626 763 575 q 758 658 763 644 q 742 682 753 672 q 717 698 732 693 q 683 703 703 703 q 636 696 661 703 q 583 675 611 689 q 530 640 557 661 q 475 594 503 619 q 432 545 451 569 q 397 497 413 521 q 376 456 383 475 q 368 422 368 438 q 372 402 368 411 q 381 386 375 393 q 397 377 388 381 q 418 374 407 374 q 472 390 443 374 q 533 439 501 406 q 594 514 565 471 q 647 608 624 557 l 667 601 q 620 498 649 544 q 554 415 592 451 q 480 361 515 379 q 408 343 444 343 q 376 349 390 343 q 350 364 361 354 q 334 389 340 375 q 328 421 328 403 q 335 468 328 444 q 356 518 342 492 q 389 569 369 544 q 433 615 408 593 q 494 665 463 643 q 560 703 525 688 q 624 727 593 719 q 683 735 656 735 q 729 728 708 735 q 764 707 750 722 q 786 674 779 693 q 793 631 793 654 q 763 504 793 575 q 671 349 732 433 q 534 190 611 264 q 363 53 457 115 q 381 31 371 40 q 403 15 390 22 q 429 6 415 10 q 458 1 443 1 q 502 10 479 1 q 550 32 525 18 q 601 69 575 47 q 653 118 626 90 l 671 110 q 615 45 644 74 q 551 -1 586 17 q 485 -31 517 -21 q 422 -42 453 -42 q 384 -37 401 -42 q 351 -26 367 -33 q 326 -7 338 -18 q 306 21 314 4 q 266 5 286 11 q 224 -7 246 -1 q 180 -15 201 -12 q 138 -18 158 -18 q 66 -7 99 -18 q 10 26 33 4 q -24 81 -12 50 q -35 151 -35 113 q -15 275 -35 211 q 46 407 6 339 q 147 541 89 476 q 278 664 204 606 q 412 762 344 719 q 547 835 479 804 q 675 880 615 865 q 786 894 735 894 q 858 887 826 894 q 911 863 889 879 q 945 826 935 847 q 956 778 956 804 q 949 731 956 753 q 926 690 942 710 q 890 654 913 671 q 839 624 868 638 l 839 625 z "},"R":{"ha":1069,"x_min":-243,"x_max":1064,"o":"m 919 840 q 957 859 939 850 q 990 875 975 868 q 1019 888 1006 882 q 1046 897 1033 893 l 1064 881 q 1029 863 1046 871 q 997 847 1013 854 q 983 839 990 843 q 969 832 976 835 q 956 824 963 828 q 944 815 950 819 q 965 781 956 797 q 979 747 974 764 q 988 714 986 731 q 990 679 990 697 q 973 585 990 629 q 919 503 956 540 q 838 438 885 464 q 732 401 790 413 q 738 388 735 394 q 742 374 740 381 q 744 359 743 367 q 744 343 744 351 q 738 292 744 317 q 721 244 732 268 q 685 185 710 221 q 619 104 660 150 q 597 75 606 88 q 582 56 588 63 q 574 41 576 47 q 572 31 572 35 q 572 28 572 29 q 572 26 572 28 q 575 22 574 24 q 578 18 576 19 q 587 15 582 17 q 597 14 592 14 q 640 24 614 14 q 700 51 665 33 q 772 97 736 71 q 847 153 808 122 l 867 138 q 829 103 849 118 q 792 74 810 88 q 753 48 772 60 q 715 25 735 36 q 645 -3 676 6 q 589 -12 614 -12 q 564 -8 575 -12 q 544 3 553 -4 q 531 26 536 14 q 526 54 526 39 q 531 83 526 68 q 543 117 535 99 q 549 128 546 122 q 554 140 551 135 q 569 163 561 151 q 586 188 578 175 q 604 208 593 196 q 629 238 615 221 q 685 314 667 282 q 704 364 704 346 q 704 368 704 367 q 704 372 704 369 q 703 376 704 374 q 703 379 703 378 q 699 388 701 383 q 694 397 697 392 l 675 399 q 649 400 661 397 q 625 408 636 403 q 610 420 615 414 q 604 433 604 426 q 606 442 604 438 q 613 449 608 446 q 624 453 618 451 q 635 456 629 456 q 652 453 643 456 q 671 449 661 451 q 691 440 681 444 q 711 429 701 436 q 797 469 757 442 q 868 540 836 497 q 918 627 901 583 q 935 714 935 671 q 933 740 935 728 q 929 761 932 751 q 920 780 926 771 q 907 799 914 789 q 746 650 831 746 q 567 414 661 554 q 524 352 542 379 q 493 308 506 325 q 369 161 433 224 q 238 58 306 99 q 96 0 169 19 q -57 -19 22 -19 q -134 -12 -100 -19 q -193 8 -168 -4 q -231 43 -218 24 q -243 86 -243 63 q -235 128 -243 110 q -212 165 -228 147 q -181 191 -197 182 q -144 200 -164 200 q -127 197 -135 200 q -114 189 -119 194 q -105 176 -108 183 q -101 161 -101 169 q -105 145 -101 153 q -114 131 -108 138 q -128 121 -121 125 q -143 117 -135 117 q -150 118 -146 117 q -160 121 -154 119 q -169 124 -165 124 q -176 124 -174 124 q -190 122 -185 124 q -201 114 -196 119 q -208 102 -206 108 q -210 88 -210 96 q -199 56 -210 71 q -167 31 -189 42 q -117 13 -144 19 q -54 7 -89 7 q 59 24 4 7 q 165 75 114 42 q 283 181 215 110 q 436 361 351 251 l 443 369 q 686 650 575 538 q 886 818 797 763 q 838 844 864 833 q 781 864 811 856 q 716 874 750 871 q 646 878 682 878 q 520 868 582 878 q 397 839 458 858 q 286 793 338 819 q 193 731 235 767 q 128 672 157 701 q 81 610 100 642 q 51 549 61 579 q 40 490 40 518 q 49 444 40 465 q 75 407 58 424 q 116 383 93 392 q 168 375 139 375 q 288 407 226 375 q 413 501 349 439 q 517 640 475 564 q 579 803 560 715 l 604 800 q 545 620 586 701 q 442 475 504 539 q 310 381 379 413 q 167 349 242 349 q 102 358 131 349 q 53 388 74 368 q 22 432 32 407 q 11 490 11 457 q 27 568 11 528 q 74 651 43 608 q 146 731 106 694 q 238 799 186 768 q 327 843 279 824 q 431 876 375 863 q 539 898 485 892 q 649 904 593 904 q 728 901 690 904 q 799 889 765 897 q 863 868 832 881 q 919 839 893 856 l 919 840 z "},"S":{"ha":931,"x_min":-250,"x_max":1153,"o":"m 622 467 q 712 488 667 474 q 801 524 757 503 q 889 571 846 544 q 972 629 932 597 q 1031 682 1004 656 q 1078 735 1058 708 q 1108 785 1097 763 q 1118 825 1118 807 q 1114 844 1118 836 q 1103 858 1110 853 q 1085 867 1096 865 q 1061 869 1075 869 q 968 844 1018 869 q 861 765 918 818 q 744 639 804 714 q 622 465 685 564 l 622 467 m 706 899 l 697 876 q 647 887 671 882 q 600 893 624 892 q 556 897 578 896 q 513 899 533 899 q 369 880 435 899 q 251 824 304 861 q 173 740 200 785 q 146 644 146 696 q 169 565 146 600 q 236 503 192 529 q 342 464 281 476 q 479 451 403 451 q 488 451 483 451 q 496 451 492 451 q 509 452 501 451 q 526 454 517 453 q 680 643 606 561 q 824 782 754 725 q 954 867 893 839 q 1069 894 1015 894 q 1104 890 1089 894 q 1131 876 1119 886 q 1147 855 1142 868 q 1153 826 1153 842 q 1111 720 1153 776 q 988 601 1069 664 q 810 495 907 538 q 601 431 713 453 q 458 225 531 311 q 313 85 386 139 q 156 6 239 32 q -19 -19 72 -19 q -115 -10 -72 -19 q -187 14 -157 -1 q -235 56 -219 32 q -250 111 -250 81 q -242 148 -250 131 q -217 182 -233 165 q -182 205 -200 197 q -144 213 -164 213 q -126 210 -135 213 q -110 201 -117 208 q -101 189 -104 196 q -97 172 -97 182 q -101 154 -97 163 q -110 139 -104 146 q -124 130 -117 133 q -142 126 -132 126 q -153 128 -146 126 q -168 133 -160 131 q -182 138 -176 136 q -192 140 -187 140 q -203 138 -199 140 q -211 131 -207 135 q -216 119 -214 125 q -218 104 -218 113 q -205 66 -218 83 q -165 36 -192 49 q -104 15 -139 22 q -26 8 -69 8 q 113 33 44 8 q 246 110 182 58 q 376 238 311 160 q 507 424 442 317 l 490 425 q 334 438 403 424 q 215 482 265 453 q 140 551 165 511 q 115 642 115 592 q 144 750 115 700 q 228 842 172 800 q 355 906 285 885 q 510 926 425 926 q 526 926 518 926 q 543 926 535 926 q 577 924 560 925 q 610 919 594 922 q 659 911 635 917 q 706 897 683 906 l 706 899 z "},"T":{"ha":818,"x_min":-175,"x_max":1188,"o":"m 847 811 l 865 793 q 794 726 828 761 q 729 650 761 690 q 664 558 699 611 q 589 436 629 504 q 451 231 521 318 q 313 90 382 144 q 166 9 243 35 q 4 -17 89 -17 q -70 -10 -36 -17 q -128 11 -104 -3 q -163 46 -151 26 q -175 92 -175 65 q -167 126 -175 110 q -144 160 -160 143 q -113 183 -129 175 q -81 192 -97 192 q -63 189 -71 192 q -49 179 -56 186 q -40 167 -43 174 q -36 150 -36 160 q -40 134 -36 142 q -49 119 -43 126 q -61 111 -54 114 q -78 108 -68 108 q -86 110 -81 108 q -97 113 -92 111 q -109 115 -104 114 q -117 115 -114 115 q -128 113 -124 115 q -136 107 -133 111 q -142 97 -140 101 q -143 85 -143 92 q -134 56 -143 69 q -106 32 -125 43 q -62 15 -87 21 q -7 10 -37 10 q 98 26 46 10 q 197 76 150 43 q 301 170 246 110 q 421 318 357 231 q 440 347 428 329 q 468 388 451 364 q 663 636 568 531 q 847 810 758 742 l 847 811 m 1172 931 l 1188 915 q 1131 883 1161 896 q 1068 863 1100 871 q 999 849 1035 853 q 925 844 964 844 q 835 850 890 844 q 704 867 781 856 q 568 883 628 878 q 465 888 508 888 q 324 866 389 888 q 203 801 258 844 q 119 710 147 758 q 92 610 92 663 q 102 560 92 583 q 132 521 113 538 q 180 497 153 506 q 240 489 207 489 q 344 507 293 489 q 443 560 394 525 q 533 645 492 596 q 607 757 574 694 l 631 758 q 567 636 606 690 q 475 542 528 582 q 365 480 422 500 q 247 460 308 460 q 172 470 206 460 q 114 501 139 481 q 76 549 89 522 q 63 608 63 576 q 97 730 63 674 q 199 833 131 786 q 350 906 267 882 q 532 931 433 931 q 651 926 585 931 q 799 913 718 922 q 932 899 879 904 q 1011 894 985 894 q 1058 897 1035 894 q 1099 904 1081 900 q 1136 915 1118 908 q 1172 929 1154 921 l 1172 931 z "},"U":{"ha":1014,"x_min":51,"x_max":1128,"o":"m 533 575 l 203 185 q 163 135 179 156 q 136 99 146 114 q 123 73 128 85 q 118 53 118 61 q 121 37 118 43 q 129 26 124 31 q 144 19 136 21 q 161 17 151 17 q 206 26 181 17 q 263 56 231 36 q 331 103 296 75 q 406 165 367 131 q 519 272 467 221 q 615 369 572 322 q 700 463 660 417 q 778 557 740 510 l 1039 896 l 1128 896 l 556 149 l 546 136 q 506 77 519 100 q 492 44 492 54 q 494 33 492 39 q 499 25 496 28 q 508 21 503 22 q 521 19 514 19 q 567 31 539 19 q 635 64 596 42 q 718 119 674 88 q 813 192 763 150 l 833 174 q 735 95 782 129 q 646 38 688 61 q 569 3 603 14 q 513 -7 536 -7 q 483 -3 496 -7 q 463 6 471 0 q 450 26 454 14 q 446 56 446 39 q 450 85 446 69 q 463 118 454 100 q 492 170 472 138 q 542 250 511 203 q 398 122 460 174 q 296 42 336 69 q 220 3 256 15 q 153 -8 185 -8 q 121 -4 135 -8 q 96 10 107 0 q 81 35 86 21 q 75 68 75 50 q 82 113 75 90 q 103 163 89 136 q 147 226 118 189 q 218 314 175 264 l 488 632 q 531 684 513 660 q 558 726 549 708 q 574 764 569 746 q 579 797 579 782 q 571 833 579 817 q 546 860 563 849 q 505 877 528 871 q 453 883 482 883 q 321 862 385 883 q 200 796 257 840 q 113 707 142 753 q 85 614 85 661 q 90 581 85 596 q 104 556 94 567 q 129 540 115 546 q 161 535 143 535 q 247 555 206 535 q 326 615 288 575 q 391 708 365 656 q 429 824 417 760 l 451 819 q 421 701 446 756 q 351 597 396 646 q 258 526 306 550 q 160 501 210 501 q 115 510 135 501 q 81 532 96 518 q 59 567 67 547 q 51 611 51 588 q 52 628 51 619 q 54 644 53 636 q 65 678 58 661 q 81 711 71 694 q 117 760 96 738 q 165 806 139 783 q 230 849 196 829 q 303 882 264 868 q 378 902 340 896 q 454 908 415 908 q 527 899 494 908 q 583 871 560 890 q 621 826 608 851 q 633 769 633 801 q 626 728 633 750 q 607 681 619 706 q 576 628 594 656 q 533 574 557 601 l 533 575 z "},"V":{"ha":946,"x_min":50,"x_max":1331,"o":"m 825 897 l 846 879 q 785 817 811 843 q 739 772 758 792 q 708 740 721 754 q 688 718 694 726 q 603 611 649 675 q 508 464 558 547 q 490 435 499 447 q 478 414 482 422 q 435 349 457 381 q 393 289 414 318 q 351 231 372 258 q 308 179 329 204 q 267 132 288 154 q 225 89 246 110 q 182 50 203 68 q 140 17 161 32 q 266 51 200 22 q 404 132 332 81 q 558 260 478 185 q 726 438 638 336 q 764 481 742 456 q 815 539 786 506 q 1085 810 974 719 q 1260 900 1196 900 q 1290 897 1276 900 q 1313 886 1303 893 q 1326 869 1322 879 q 1331 844 1331 858 q 1327 826 1331 835 q 1315 811 1324 818 q 1299 799 1307 803 q 1279 796 1290 796 q 1267 798 1274 796 q 1256 804 1261 800 q 1247 814 1250 808 q 1244 825 1244 819 q 1245 830 1244 828 q 1246 835 1246 832 q 1249 839 1247 836 q 1251 843 1250 842 q 1261 851 1256 847 q 1272 860 1267 856 q 1270 864 1272 863 q 1267 867 1268 865 q 1266 867 1267 867 q 1264 868 1265 868 q 1259 871 1263 871 q 1250 871 1256 871 q 1184 852 1222 871 q 1097 793 1146 833 q 993 696 1050 754 q 869 560 936 638 l 843 531 q 599 263 707 369 q 410 103 490 157 q 326 50 367 72 q 246 13 285 28 q 172 -8 207 0 q 106 -15 138 -15 q 99 -15 103 -15 q 92 -14 96 -15 q 83 -13 89 -14 q 68 -11 76 -12 q 185 114 122 35 q 317 306 247 193 l 326 324 q 334 333 329 326 q 344 350 339 340 q 510 585 422 478 q 697 778 599 692 q 669 764 683 769 q 639 756 654 758 q 610 750 625 751 q 581 749 596 749 q 547 751 563 749 q 517 758 532 753 q 488 772 503 764 q 458 793 474 781 q 449 801 454 796 q 436 813 443 806 q 369 860 403 844 q 304 875 336 875 q 223 860 261 875 q 150 817 185 846 q 98 756 115 788 q 81 692 81 725 q 88 654 81 671 q 110 625 96 638 q 145 606 125 613 q 190 600 165 600 q 253 610 222 600 q 314 639 283 619 q 369 685 346 658 q 410 743 393 711 l 426 725 q 386 665 411 692 q 325 614 361 638 q 254 581 290 592 q 182 571 218 571 q 128 579 151 571 q 86 604 104 588 q 59 644 68 621 q 50 693 50 667 q 71 772 50 735 q 133 842 92 810 q 223 892 175 875 q 324 908 271 908 q 410 890 368 908 q 493 835 453 871 q 497 832 496 833 q 499 831 497 831 q 528 806 514 817 q 551 792 542 796 q 576 785 563 788 q 604 782 590 782 q 653 790 628 782 q 707 811 679 797 q 765 847 735 826 q 825 896 794 868 l 825 897 z "},"W":{"ha":999,"x_min":-96,"x_max":1331,"o":"m 1265 864 q 1265 863 1265 863 q 1263 864 1264 863 q 1253 866 1257 865 q 1247 867 1250 867 q 1094 756 1206 867 q 801 424 983 644 l 761 376 q 601 196 676 271 q 461 76 526 121 q 336 10 397 31 q 214 -11 275 -11 q 333 119 272 42 q 457 297 394 197 q 477 330 468 317 q 492 351 486 343 q 591 496 540 428 q 696 626 642 564 q 806 744 749 688 q 922 850 863 800 q 719 703 838 815 q 449 400 600 590 q 417 358 431 376 q 394 329 403 340 q 266 183 329 247 q 142 72 203 118 q 31 6 82 28 q -65 -15 -21 -15 q -69 -15 -68 -15 q -74 -15 -71 -15 q -77 -15 -75 -15 q -81 -14 -79 -14 q -87 -14 -83 -14 q -96 -12 -92 -14 q 36 138 -32 47 q 179 346 104 228 l 186 358 q 192 365 189 360 q 199 378 194 371 q 351 588 269 490 q 524 768 432 685 q 492 755 507 761 q 463 746 478 749 q 435 742 449 743 q 408 740 422 740 q 374 742 390 740 q 343 750 358 744 q 313 765 329 756 q 278 788 296 774 q 271 793 275 790 q 263 800 267 796 q 199 840 229 826 q 140 853 168 853 q 68 840 103 853 q 0 799 33 826 q -47 743 -31 772 q -62 683 -62 714 q -56 646 -62 663 q -33 618 -49 629 q -1 599 -19 606 q 40 593 17 593 q 100 601 71 593 q 156 626 129 610 q 203 665 183 643 q 236 714 224 688 l 254 701 q 220 647 242 671 q 168 604 199 624 q 107 575 139 585 q 42 565 75 565 q -11 574 13 565 q -53 597 -35 582 q -81 635 -72 614 q -90 682 -90 656 q -70 756 -90 721 q -10 824 -50 792 q 75 872 29 856 q 172 888 121 888 q 207 885 190 888 q 239 875 224 882 q 272 860 254 869 q 307 838 289 851 q 315 831 310 835 q 326 822 321 826 q 385 785 358 797 q 435 774 413 774 q 476 780 454 774 q 524 797 499 786 q 583 831 550 810 q 654 883 615 853 l 671 864 q 587 785 628 826 q 507 699 546 743 q 428 592 469 653 q 340 454 386 531 q 251 315 294 378 q 165 203 207 251 q 74 107 122 153 q -25 18 26 61 q 181 150 64 46 q 440 435 297 254 q 468 470 456 454 q 489 496 481 486 q 631 665 564 593 q 754 783 697 736 q 861 856 813 832 q 950 879 910 879 q 955 879 953 879 q 960 879 957 879 q 964 878 961 879 q 968 878 967 878 q 974 877 971 878 q 979 875 976 876 q 985 874 982 875 q 990 871 988 872 q 923 813 956 844 q 858 746 890 782 q 788 655 828 710 q 700 526 749 600 l 700 528 q 476 215 579 342 q 286 19 372 89 q 397 69 342 38 q 507 146 451 100 q 631 268 561 192 q 785 450 700 344 q 971 673 892 583 q 1101 810 1050 763 q 1195 878 1153 856 q 1272 901 1238 901 q 1296 899 1285 901 q 1315 889 1307 896 q 1326 874 1322 883 q 1331 856 1331 865 q 1327 835 1331 844 q 1315 817 1324 825 q 1297 804 1307 808 q 1276 800 1288 800 q 1263 802 1269 800 q 1251 808 1257 804 q 1244 818 1246 813 q 1242 831 1242 824 q 1243 839 1242 835 q 1247 847 1244 843 q 1251 851 1249 850 q 1254 856 1253 853 q 1260 859 1257 857 q 1265 863 1263 861 l 1265 864 z "},"X":{"ha":850,"x_min":-183,"x_max":1129,"o":"m 408 392 q 188 312 289 356 q 6 217 88 268 q -112 124 -72 165 q -153 50 -153 82 q -150 33 -153 40 q -142 21 -147 25 q -127 13 -136 15 q -107 10 -118 10 q 3 35 -56 10 q 131 111 61 61 q 269 232 200 163 q 408 390 339 301 l 408 392 m 528 425 q 442 303 479 358 q 379 203 404 249 q 340 123 353 158 q 328 63 328 88 q 331 43 328 51 q 339 28 333 35 q 353 19 344 22 q 372 17 361 17 q 419 27 392 17 q 481 57 447 38 q 555 109 514 78 q 643 181 596 140 l 665 161 q 576 86 618 118 q 496 31 533 54 q 428 -1 458 8 q 375 -11 399 -11 q 338 -5 354 -11 q 311 14 322 1 q 294 49 300 29 q 289 94 289 68 q 290 115 289 104 q 293 140 292 126 q 299 169 296 154 q 306 200 301 183 q 185 108 243 149 q 74 39 128 68 q -24 -2 19 11 q -107 -15 -68 -15 q -141 -11 -126 -15 q -165 0 -156 -7 q -179 17 -175 6 q -183 43 -183 28 q -140 135 -183 86 q -11 240 -97 185 q 186 344 74 296 q 438 432 299 392 q 515 542 483 494 q 561 622 546 589 q 584 685 576 654 q 592 743 592 715 q 580 794 592 771 q 544 836 568 818 q 488 863 519 854 q 415 871 456 871 q 291 852 351 871 q 175 796 231 833 q 93 719 121 758 q 65 638 65 679 q 73 601 65 618 q 94 572 81 585 q 128 553 110 560 q 169 547 147 547 q 257 565 215 547 q 336 619 299 583 q 399 704 372 656 q 439 814 425 753 l 460 797 q 424 686 450 736 q 358 596 399 636 q 271 538 317 557 q 174 518 225 518 q 118 526 143 518 q 74 550 93 533 q 46 588 56 565 q 36 636 36 610 q 44 683 36 660 q 65 729 51 707 q 100 772 81 753 q 146 810 119 792 q 211 849 178 832 q 279 878 244 865 q 349 894 315 889 q 417 900 383 900 q 509 888 469 900 q 576 850 549 875 q 619 790 604 825 q 633 708 633 754 q 633 698 633 703 q 633 689 633 693 q 632 678 632 683 q 632 669 632 674 q 630 651 631 660 q 628 633 629 642 q 752 746 692 696 q 869 831 813 796 q 974 883 926 865 q 1061 900 1022 900 q 1090 897 1078 900 q 1113 886 1103 893 q 1125 869 1121 879 q 1129 843 1129 858 q 1086 744 1129 799 q 957 626 1043 690 q 765 513 872 564 q 528 424 657 463 l 528 425 m 558 464 q 766 544 671 499 q 940 649 861 590 q 1058 756 1018 708 q 1097 838 1097 803 q 1094 852 1097 846 q 1085 863 1092 858 q 1072 869 1079 867 q 1053 871 1064 871 q 956 843 1013 871 q 829 758 900 815 q 692 627 760 701 q 558 463 624 553 l 558 464 z "},"Y":{"ha":1024,"x_min":-114,"x_max":1188,"o":"m 340 -8 q 167 -59 244 -32 q 32 -119 90 -86 q -53 -183 -24 -153 q -83 -242 -83 -214 q -81 -258 -83 -251 q -71 -271 -78 -265 q -56 -279 -64 -276 q -36 -282 -47 -282 q 44 -263 0 -282 q 140 -208 89 -244 q 242 -122 193 -172 q 340 -8 292 -72 l 340 -8 m 765 543 l 1104 889 l 1188 889 q 978 671 1078 778 q 790 461 879 564 q 622 258 701 360 q 474 57 543 157 q 552 92 515 74 q 622 128 589 110 q 685 165 654 146 q 743 204 715 185 l 760 185 q 698 139 732 161 q 624 94 664 117 q 540 54 585 74 q 443 17 494 35 q 327 -119 388 -58 q 201 -222 267 -179 q 80 -289 138 -267 q -26 -311 22 -311 q -65 -307 -49 -311 q -92 -293 -81 -303 q -108 -273 -103 -285 q -114 -244 -114 -261 q -83 -172 -114 -208 q 10 -100 -51 -136 q 162 -32 72 -64 q 368 26 251 0 q 460 149 399 68 q 613 351 521 231 l 626 369 q 497 251 556 300 q 390 172 438 201 q 304 127 344 142 q 231 113 264 113 q 194 118 210 113 q 168 133 179 124 q 152 159 158 144 q 146 194 146 174 q 157 252 146 222 q 190 315 168 282 q 254 395 214 349 q 353 500 294 442 q 473 624 426 574 q 540 701 519 674 q 571 753 561 729 q 581 796 581 778 q 572 828 581 814 q 546 854 564 843 q 506 870 529 865 q 451 875 482 875 q 306 854 375 875 q 176 793 238 833 q 83 709 114 751 q 53 624 53 667 q 58 597 53 610 q 74 576 64 585 q 100 563 85 568 q 135 558 115 558 q 222 577 176 558 q 314 633 267 596 q 399 717 363 669 q 463 821 436 765 l 479 803 q 419 691 456 740 q 335 604 383 642 q 235 548 286 567 q 131 529 183 529 q 84 535 104 529 q 49 554 64 542 q 28 585 35 567 q 21 625 21 603 q 28 669 21 647 q 51 715 36 692 q 89 760 67 739 q 140 804 111 782 q 208 847 172 828 q 286 878 244 865 q 367 898 326 892 q 449 904 408 904 q 522 897 490 904 q 576 872 554 889 q 609 833 599 857 q 619 779 619 810 q 607 707 619 744 q 567 629 594 669 q 488 531 540 589 q 357 397 435 474 q 271 309 306 346 q 218 249 236 272 q 190 208 200 226 q 181 174 181 189 q 185 161 181 167 q 194 150 189 156 q 210 144 201 146 q 231 142 219 142 q 319 165 268 142 q 433 236 369 189 q 581 360 497 283 q 765 542 664 436 l 765 543 z "},"Z":{"ha":1014,"x_min":-214,"x_max":1075,"o":"m 88 63 q 82 63 86 61 q 72 65 78 64 q -8 80 28 75 q -74 85 -44 85 q -117 82 -97 85 q -150 75 -136 79 q -172 65 -165 71 q -178 51 -178 58 q -172 38 -178 43 q -154 28 -167 32 q -125 22 -142 24 q -85 21 -108 21 q -36 23 -60 21 q 7 31 -12 25 q 50 44 31 36 q 88 61 69 51 l 88 63 m 803 760 q 890 769 849 761 q 967 793 931 778 q 1022 825 1003 810 q 1040 854 1040 840 q 1038 860 1040 857 q 1033 864 1036 863 q 1027 867 1032 867 q 1015 867 1022 867 q 974 860 997 867 q 919 838 950 853 q 861 803 890 824 q 803 758 832 783 l 803 760 m 754 763 q 828 817 792 793 q 901 858 865 840 q 969 884 938 875 q 1025 893 1000 893 q 1049 890 1039 893 q 1064 883 1058 888 q 1072 871 1069 878 q 1075 854 1075 864 q 1069 833 1075 843 q 1053 811 1064 822 q 1024 790 1040 800 q 983 768 1007 779 q 883 736 936 747 q 769 725 831 725 q 744 701 757 714 q 719 674 732 688 q 693 644 706 660 q 668 611 681 628 q 616 538 643 578 q 561 453 589 499 q 567 451 564 451 q 575 450 571 450 q 581 448 578 449 q 588 447 585 447 q 601 447 594 447 q 614 447 607 447 q 641 449 628 447 q 667 451 654 450 q 679 454 674 453 q 692 457 685 456 q 703 460 697 458 q 715 464 710 463 l 729 450 q 696 428 713 438 q 661 414 679 419 q 642 409 651 411 q 625 406 633 407 q 606 403 615 404 q 588 403 597 403 q 580 403 583 403 q 574 403 576 403 q 567 403 571 403 q 560 403 564 403 q 547 405 554 404 q 532 407 539 406 q 472 318 506 361 q 396 235 438 275 q 306 156 356 196 q 199 78 257 117 q 228 70 214 74 q 258 64 243 67 q 288 58 274 60 q 318 53 303 56 q 376 48 347 50 q 433 46 406 46 q 540 56 493 46 q 621 85 586 65 q 685 136 657 104 q 735 213 713 168 l 761 208 q 710 115 742 156 q 635 46 679 74 q 538 6 592 18 q 424 -7 485 -7 q 371 -5 399 -7 q 314 0 343 -3 q 241 17 285 7 q 139 46 197 28 q 78 21 108 32 q 21 3 49 10 q -4 -1 8 0 q -31 -4 -17 -3 q -58 -6 -44 -6 q -83 -7 -71 -7 q -139 -3 -115 -7 q -181 6 -162 0 q -206 26 -197 14 q -214 51 -214 38 q -203 78 -214 67 q -172 100 -193 90 q -125 115 -153 111 q -61 119 -97 119 q -17 117 -40 119 q 32 111 6 115 q 86 101 58 107 q 144 86 114 94 q 209 136 174 106 q 283 210 244 167 q 363 303 324 253 q 443 414 403 354 q 439 414 442 414 q 433 415 436 414 q 428 415 431 415 q 424 415 425 415 q 392 413 407 415 q 361 407 376 411 q 335 397 347 403 q 311 381 322 390 l 292 400 q 328 426 310 414 q 367 446 347 438 q 408 457 386 453 q 453 461 431 461 q 454 461 453 461 q 457 461 456 461 q 460 460 458 460 q 464 460 463 460 q 470 460 467 460 q 475 460 474 460 q 541 542 510 504 q 600 613 572 581 q 659 674 629 644 q 719 729 689 703 q 615 752 672 735 q 493 800 558 769 q 379 844 428 829 q 299 860 331 860 q 221 847 257 860 q 153 808 185 835 q 106 755 122 783 q 89 694 89 726 q 97 658 89 675 q 122 629 106 642 q 160 611 138 617 q 208 606 182 606 q 265 613 238 606 q 319 633 293 619 q 371 670 346 649 q 418 721 396 692 l 432 701 q 386 649 411 672 q 329 610 361 626 q 268 585 299 593 q 206 576 238 576 q 147 584 174 576 q 100 608 119 592 q 69 647 79 625 q 58 694 58 668 q 80 771 58 735 q 143 838 101 807 q 235 884 185 869 q 342 899 285 899 q 435 883 382 899 q 553 835 488 867 q 669 783 619 801 q 754 761 719 765 l 754 763 z "},"[":{"ha":450,"x_min":-324,"x_max":733,"o":"m 554 1044 l 733 1044 l 714 1013 l 604 1013 l -231 -132 l -118 -132 l -140 -164 l -324 -164 l 554 1044 l 554 1044 z "},"\\":{"ha":482,"x_min":60,"x_max":142,"o":"m 110 899 l 142 -128 l 92 -128 l 60 899 l 110 899 l 110 899 z "},"]":{"ha":450,"x_min":-379,"x_max":681,"o":"m 493 1044 l 681 1044 l -201 -164 l -379 -164 l -358 -132 l -250 -132 l 585 1013 l 472 1013 l 493 1044 l 493 1044 z "},"^":{"ha":1389,"x_min":279,"x_max":1106,"o":"m 640 990 l 744 990 l 1106 607 l 1049 607 l 693 924 l 333 607 l 279 607 l 640 990 l 640 990 z "},"_":{"ha":694,"x_min":0,"x_max":694,"o":"m 0 -272 l 694 -272 l 694 -326 l 0 -326 l 0 -272 l 0 -272 z "},"`":{"ha":694,"x_min":207,"x_max":426,"o":"m 281 639 l 426 481 l 400 481 l 238 594 q 223 605 229 600 q 214 614 217 610 q 209 621 211 617 q 207 631 207 625 q 207 634 207 632 q 208 638 207 636 q 212 645 210 642 q 217 651 214 649 q 227 660 222 657 q 238 663 232 663 q 245 662 242 663 q 251 660 249 661 q 255 658 253 658 q 258 657 257 658 q 269 649 264 654 q 281 638 275 644 l 281 639 z "},"a":{"ha":586,"x_min":-237,"x_max":372,"o":"m 232 351 l 269 404 l 344 404 l 115 97 l 114 94 q 91 58 99 72 q 83 36 83 43 q 85 27 83 31 q 88 21 86 24 q 95 18 90 19 q 106 17 100 17 q 140 27 118 17 q 194 60 163 38 q 267 115 226 83 q 354 188 307 146 l 372 169 q 285 92 326 125 q 208 35 244 58 q 146 2 174 13 q 99 -8 118 -8 q 76 -6 86 -8 q 58 3 67 -3 q 48 20 51 10 q 44 43 44 31 q 46 57 44 50 q 49 72 47 64 q 54 90 51 81 q 60 111 57 100 q 19 74 39 92 q -22 43 -1 57 q -44 30 -33 36 q -64 18 -54 24 q -120 -3 -94 4 q -168 -11 -146 -11 q -197 -7 -185 -11 q -219 4 -210 -3 q -233 26 -229 14 q -237 56 -237 39 q -226 119 -237 86 q -190 189 -214 153 q -135 258 -168 225 q -62 321 -103 290 q -2 363 -32 344 q 60 394 28 381 q 119 415 92 408 q 171 422 147 422 q 198 418 186 422 q 217 407 210 414 q 228 390 225 400 q 232 364 232 379 l 232 351 l 232 351 m 171 393 q 130 382 153 392 q 79 353 107 372 q 20 308 50 335 q -40 250 -10 282 q -104 181 -76 214 q -151 121 -132 149 q -181 72 -171 93 q -192 36 -192 51 q -190 26 -192 31 q -185 19 -187 22 q -176 15 -181 17 q -164 14 -171 14 q -117 24 -143 14 q -60 53 -92 33 q 3 100 -29 72 q 68 163 35 128 q 126 225 101 196 q 169 281 151 254 q 196 327 188 307 q 204 361 204 347 q 202 374 204 368 q 196 383 200 379 q 185 390 192 388 q 171 392 179 392 l 171 393 z "},"b":{"ha":492,"x_min":-246,"x_max":574,"o":"m 28 368 q -64 253 -22 307 q -136 154 -106 200 q -184 79 -168 108 q -200 38 -200 50 q -197 27 -200 32 q -190 19 -194 22 q -178 13 -185 15 q -165 11 -172 11 q -104 26 -137 11 q -31 69 -71 40 q 6 101 -12 85 q 44 139 25 118 q 82 181 63 158 q 119 229 101 204 q 133 298 122 265 q 161 360 143 331 q 199 402 181 388 q 236 417 218 417 q 244 416 240 417 q 249 413 247 415 q 253 406 251 410 q 254 397 254 401 q 247 370 254 388 q 226 329 240 353 q 194 277 213 306 q 151 217 175 249 q 162 204 156 210 q 174 194 168 199 q 188 190 181 192 q 203 188 196 188 q 207 188 206 188 q 211 188 208 188 q 215 188 213 188 q 218 188 217 188 q 227 190 222 189 q 238 193 232 192 l 246 169 q 235 165 240 167 q 226 163 231 164 q 217 161 221 161 q 208 161 213 161 q 186 163 197 161 q 165 169 175 165 q 147 178 156 172 q 132 194 139 185 q 49 104 89 143 q -29 38 8 65 q -105 -3 -69 10 q -172 -15 -140 -15 q -203 -10 -189 -15 q -226 0 -217 -6 q -241 22 -236 10 q -246 50 -246 35 q -226 123 -246 81 q -169 219 -207 165 q -65 356 -131 275 q 94 542 1 436 q 233 685 168 622 q 356 793 299 747 q 457 860 414 838 q 528 883 500 883 q 547 881 539 883 q 561 872 556 878 q 571 861 568 868 q 574 843 574 854 q 538 762 574 810 q 428 649 501 714 q 256 515 356 585 q 28 367 156 444 l 28 368 m 61 417 q 253 545 168 483 q 404 664 339 607 q 501 763 469 721 q 533 828 533 804 q 533 839 533 835 q 529 846 532 843 q 524 851 528 849 q 514 853 519 853 q 449 824 490 853 q 347 738 407 794 q 217 600 288 681 q 61 415 146 519 l 61 417 z "},"c":{"ha":431,"x_min":-233,"x_max":231,"o":"m 189 211 l 204 193 q 95 101 147 140 q -1 33 43 61 q -86 -6 -49 7 q -154 -18 -124 -18 q -189 -13 -174 -18 q -214 0 -204 -8 q -229 25 -225 11 q -233 57 -233 39 q -224 115 -233 85 q -196 178 -215 144 q -151 243 -178 213 q -93 300 -125 274 q -30 350 -62 328 q 38 389 3 372 q 103 414 74 406 q 157 422 133 422 q 188 418 174 422 q 211 406 201 414 q 226 387 222 397 q 231 364 231 376 q 225 335 231 349 q 207 308 219 321 q 183 290 196 296 q 154 283 169 283 q 141 285 147 283 q 131 290 135 286 q 124 300 126 294 q 121 313 121 306 q 123 323 121 318 q 129 332 125 328 q 137 340 132 336 q 147 346 142 344 q 154 347 150 346 q 164 349 158 347 q 190 357 181 351 q 199 371 199 363 q 197 379 199 375 q 190 386 194 383 q 183 391 188 389 q 171 393 178 393 q 122 381 150 393 q 57 343 93 368 q 10 306 33 326 q -36 264 -12 286 q -60 240 -49 251 q -83 214 -72 228 q -128 162 -108 188 q -162 113 -149 136 q -185 72 -178 89 q -193 44 -193 56 q -190 28 -193 35 q -181 17 -187 21 q -167 10 -175 13 q -147 7 -158 7 q -89 21 -124 7 q -10 61 -54 35 q 83 126 33 89 q 189 210 133 163 l 189 211 z "},"d":{"ha":586,"x_min":-237,"x_max":657,"o":"m -167 15 q -115 25 -143 14 q -53 58 -87 36 q -17 83 -35 69 q 17 111 0 96 q 51 143 33 126 q 86 178 68 160 q 135 234 114 207 q 172 286 157 261 q 195 328 188 310 q 203 361 203 347 q 201 373 203 368 q 194 382 199 378 q 183 388 189 386 q 169 390 176 390 q 124 380 149 390 q 68 347 99 369 q 5 297 38 326 q -62 228 -28 267 q -119 164 -94 193 q -160 110 -143 135 q -185 67 -176 86 q -193 35 -193 49 q -191 26 -193 29 q -185 19 -189 22 q -177 15 -182 17 q -165 14 -172 14 l -167 15 m 578 811 l 657 811 l 115 97 l 114 94 q 91 58 99 72 q 83 36 83 43 q 85 27 83 31 q 88 21 86 24 q 95 18 90 19 q 106 17 100 17 q 140 27 118 17 q 194 60 163 38 q 267 115 226 83 q 354 188 307 146 l 372 169 q 285 92 325 125 q 208 35 244 58 q 146 2 174 13 q 99 -8 118 -8 q 76 -6 86 -8 q 58 3 67 -3 q 48 20 51 10 q 44 43 44 31 q 45 55 44 49 q 47 67 46 61 q 52 85 49 74 q 60 111 56 96 q 12 70 35 89 q -35 36 -11 51 q -49 27 -42 32 q -65 18 -57 22 q -121 -3 -96 4 q -168 -11 -146 -11 q -197 -7 -183 -11 q -219 4 -210 -3 q -233 25 -229 13 q -237 53 -237 38 q -226 118 -237 85 q -192 188 -215 151 q -135 257 -168 224 q -62 321 -103 290 q -1 363 -32 344 q 60 394 29 381 q 119 415 92 408 q 169 422 147 422 q 197 418 185 422 q 217 406 208 414 q 229 388 225 399 q 233 364 233 378 q 233 361 233 363 q 233 357 233 360 q 233 355 233 356 q 233 353 233 354 q 232 351 232 351 q 232 350 232 350 l 578 811 l 578 811 z "},"e":{"ha":440,"x_min":-253,"x_max":206,"o":"m -139 172 q -167 132 -154 150 q -190 97 -181 114 q -204 68 -200 81 q -208 46 -208 56 q -206 31 -208 38 q -196 21 -203 25 q -181 13 -190 15 q -161 11 -172 11 q -97 22 -133 11 q -17 56 -61 33 q 71 110 25 79 q 167 179 117 140 l 179 160 q 79 83 128 115 q -14 26 31 50 q -100 -8 -61 4 q -169 -19 -139 -19 q -203 -15 -189 -19 q -229 0 -218 -10 q -247 23 -240 10 q -253 54 -253 36 q -242 116 -253 85 q -211 181 -232 147 q -161 246 -190 213 q -92 313 -132 279 q -30 358 -61 338 q 33 392 1 378 q 96 415 67 407 q 150 422 125 422 q 176 419 165 422 q 192 413 186 417 q 202 400 199 407 q 206 382 206 393 q 182 329 206 357 q 110 269 158 301 q 0 215 61 239 q -137 171 -61 190 l -139 172 m -108 208 q 1 244 -47 222 q 92 292 50 265 q 153 340 133 319 q 174 378 174 361 q 172 385 174 382 q 168 390 171 389 q 159 394 164 393 q 147 396 154 396 q 100 383 128 396 q 38 346 72 371 q -32 286 4 321 q -107 207 -68 251 l -108 208 z "},"f":{"ha":363,"x_min":-549,"x_max":576,"o":"m -6 288 l -101 154 q -82 144 -90 147 q -65 138 -74 140 q -49 135 -58 136 q -31 133 -40 133 q 2 136 -14 133 q 35 144 18 139 q 69 160 51 151 q 107 181 88 168 l 119 163 q 84 137 103 147 q 46 119 65 126 q 26 113 36 115 q 7 108 17 111 q -11 106 -1 107 q -31 106 -21 106 q -58 107 -46 106 q -81 111 -69 108 q -100 119 -92 114 q -115 129 -108 124 l -467 -353 l -549 -353 l -162 175 q -162 177 -161 175 q -162 181 -162 179 q -165 186 -164 183 q -165 190 -165 189 q -167 197 -167 193 q -168 203 -168 200 q -161 233 -168 218 q -139 261 -154 247 q -104 290 -125 276 q -56 317 -83 303 q 133 562 44 457 q 297 739 222 667 q 432 846 372 810 q 536 882 492 882 q 553 879 546 882 q 565 871 560 876 q 574 859 571 865 q 576 843 576 853 q 538 753 576 808 q 421 625 499 699 q 236 465 343 550 q -4 286 129 381 l -6 288 m 50 360 q 249 511 161 439 q 406 649 338 583 q 506 759 472 714 q 540 831 540 804 q 538 840 540 836 q 533 847 536 844 q 528 851 532 850 q 522 853 525 853 q 519 854 521 854 q 517 854 518 854 q 448 824 490 854 q 349 733 406 794 q 218 580 293 674 q 50 358 143 486 l 50 360 z "},"g":{"ha":561,"x_min":-461,"x_max":347,"o":"m -57 -39 q -206 -107 -137 -72 q -325 -178 -274 -142 q -404 -243 -378 -214 q -431 -294 -431 -272 q -428 -308 -431 -303 q -419 -318 -425 -314 q -407 -324 -414 -322 q -390 -325 -400 -325 q -328 -307 -364 -325 q -250 -251 -293 -289 q -158 -162 -207 -215 q -56 -39 -110 -108 l -57 -39 m 231 356 l 271 404 l 343 404 l 63 32 q 134 63 99 46 q 203 100 169 81 q 268 142 236 119 q 331 189 300 164 l 347 169 q 281 118 317 142 q 204 71 244 94 q 121 28 165 49 q 28 -11 76 7 q -88 -158 -31 -94 q -201 -265 -146 -222 q -308 -332 -258 -310 q -400 -354 -357 -354 q -426 -351 -415 -354 q -446 -342 -437 -349 q -457 -328 -453 -336 q -461 -308 -461 -319 q -433 -240 -461 -276 q -346 -161 -404 -203 q -208 -81 -287 -121 q -28 -3 -129 -42 l 76 135 q 3 68 38 96 q -64 21 -32 40 q -125 -6 -96 3 q -178 -15 -154 -15 q -205 -10 -193 -15 q -225 1 -217 -6 q -237 26 -233 13 q -242 56 -242 39 q -229 118 -242 85 q -193 189 -217 151 q -135 260 -168 226 q -61 324 -101 294 q -31 345 -46 335 q -1 364 -17 356 q 27 381 13 374 q 57 394 42 389 q 115 415 89 408 q 164 421 142 421 q 194 417 181 421 q 215 406 207 413 q 227 385 224 397 q 231 358 231 374 l 231 356 l 231 356 m 167 389 q 122 377 147 388 q 67 346 97 367 q 6 294 36 324 q -60 228 -25 265 q -117 163 -92 193 q -160 108 -142 133 q -185 65 -176 83 q -194 36 -194 47 q -192 25 -194 31 q -186 17 -190 19 q -178 12 -183 14 q -165 10 -172 10 q -126 19 -149 10 q -75 44 -104 28 q -18 85 -47 61 q 42 139 11 108 q 106 203 78 171 q 157 265 135 235 q 190 320 179 297 q 201 357 201 343 q 199 371 201 365 q 192 381 196 376 q 181 385 188 383 q 167 388 175 388 l 167 389 z "},"h":{"ha":563,"x_min":-322,"x_max":515,"o":"m 38 392 l -57 261 q 26 330 -12 300 q 97 379 64 360 q 161 409 132 399 q 213 419 190 419 q 239 416 228 419 q 257 406 250 413 q 269 391 265 400 q 272 371 272 382 q 268 345 272 360 q 256 314 264 331 q 233 278 246 296 q 206 242 221 261 l 82 94 q 63 71 71 81 q 50 54 56 61 q 43 42 46 47 q 40 32 40 36 q 42 25 40 28 q 46 19 44 22 q 52 17 49 18 q 61 15 56 15 q 105 26 79 15 q 165 60 131 38 q 242 114 201 82 q 331 189 283 146 l 347 171 q 258 90 300 125 q 176 32 215 56 q 106 -2 138 8 q 50 -12 74 -12 q 30 -9 39 -12 q 14 0 21 -6 q 4 18 8 7 q 0 43 0 29 q 5 73 0 57 q 18 107 10 89 q 40 144 28 126 q 67 179 51 161 l 194 328 q 208 344 201 336 q 217 357 214 351 q 223 367 221 363 q 225 375 225 372 q 224 383 225 379 q 219 389 222 386 q 213 392 217 392 q 203 393 208 393 q 119 365 168 393 q 7 283 71 338 q -33 245 -12 265 q -75 203 -54 225 q -159 108 -117 160 q -242 0 -201 57 l -322 0 l 65 521 q 188 669 129 603 q 303 782 247 735 q 401 853 357 829 q 478 876 444 876 q 492 874 486 876 q 504 867 499 872 q 513 856 510 863 q 515 840 515 849 q 482 756 515 806 q 382 640 449 706 q 230 514 315 576 q 38 390 144 451 l 38 392 m 65 433 q 233 548 158 490 q 365 661 308 606 q 453 760 424 718 q 482 829 482 803 q 480 835 482 832 q 475 842 478 839 q 472 844 474 843 q 468 846 469 846 q 465 847 467 847 q 461 847 463 847 q 409 828 439 847 q 342 772 379 810 q 235 649 304 735 q 65 432 167 564 l 65 433 z "},"i":{"ha":329,"x_min":-224,"x_max":228,"o":"m 1 404 l 76 404 l -140 115 q -160 83 -151 96 q -175 60 -169 71 q -183 43 -181 50 q -185 29 -185 36 q -183 22 -185 25 q -179 15 -182 18 q -173 12 -176 14 q -164 10 -169 10 q -128 20 -150 10 q -75 53 -106 31 q -10 104 -46 74 q 69 175 26 135 l 90 160 q 4 80 43 114 q -68 24 -35 46 q -128 -9 -101 1 q -172 -19 -154 -19 q -193 -15 -183 -19 q -210 -3 -203 -11 q -220 13 -217 3 q -224 38 -224 24 q -219 76 -224 57 q -204 114 -214 94 q -178 161 -194 135 q -137 219 -161 188 l 1 404 l 1 404 m 194 622 q 207 618 201 621 q 217 610 213 615 q 225 598 222 604 q 228 583 228 592 q 223 563 228 574 q 208 544 218 553 q 188 530 199 535 q 165 525 176 525 q 151 528 157 525 q 139 536 144 531 q 131 548 133 542 q 128 560 128 554 q 133 581 128 571 q 149 601 139 592 q 171 616 160 611 q 194 621 182 621 l 194 622 z "},"j":{"ha":349,"x_min":-606,"x_max":224,"o":"m -328 -57 q -381 -85 -356 -71 q -429 -112 -407 -99 q -472 -140 -453 -126 q -508 -168 -492 -154 q -560 -217 -543 -196 q -576 -257 -576 -239 q -576 -260 -576 -258 q -575 -262 -576 -261 q -573 -269 -575 -265 q -568 -274 -571 -272 q -559 -278 -564 -276 q -547 -281 -554 -281 q -502 -266 -526 -281 q -449 -222 -478 -251 q -390 -151 -421 -193 q -326 -57 -360 -110 l -328 -57 m 8 404 l 83 404 l -210 21 q -129 63 -169 40 q -49 113 -89 86 q 34 165 -8 138 q 119 224 76 193 l 136 204 q 56 147 99 175 q -32 89 14 118 q -65 69 -49 79 q -99 50 -82 60 q -169 11 -133 31 q -242 -26 -204 -8 q -334 -150 -290 -97 q -417 -237 -378 -203 q -489 -290 -456 -272 q -551 -307 -522 -307 q -574 -303 -564 -307 q -592 -293 -585 -300 q -602 -277 -599 -286 q -606 -257 -606 -268 q -587 -206 -606 -233 q -531 -147 -568 -179 q -437 -85 -492 -117 q -314 -19 -383 -53 l 8 404 l 8 404 m 190 622 q 203 618 197 621 q 214 610 208 615 q 221 598 218 604 q 224 583 224 592 q 219 563 224 574 q 204 544 214 553 q 183 530 194 535 q 161 525 172 525 q 147 528 154 525 q 135 536 140 531 q 126 548 129 542 q 124 560 124 554 q 129 581 124 571 q 144 601 135 592 q 167 616 156 611 q 190 621 178 621 l 190 622 z "},"k":{"ha":533,"x_min":-322,"x_max":549,"o":"m 40 376 l -40 269 q 49 335 7 306 q 126 382 92 364 q 191 410 163 401 q 242 419 219 419 q 264 417 254 419 q 281 408 274 414 q 291 396 288 403 q 294 379 294 389 q 279 332 294 356 q 232 286 264 308 q 161 251 200 264 q 78 232 122 238 q 91 217 85 225 q 100 201 97 210 q 106 185 104 194 q 108 167 108 176 q 100 129 108 149 q 75 86 92 110 q 50 49 58 64 q 42 28 42 35 q 44 22 43 25 q 46 17 44 19 q 51 15 49 15 q 58 14 54 14 q 91 24 71 14 q 142 56 111 35 q 210 106 171 75 q 296 179 249 138 l 315 165 q 233 88 272 121 q 157 31 193 54 q 91 -5 119 7 q 42 -17 63 -17 q 19 -12 29 -17 q 3 -1 10 -8 q -6 13 -3 3 q -8 33 -8 22 q -1 76 -8 53 q 25 125 7 99 q 53 167 44 151 q 61 190 61 183 q 58 201 61 196 q 47 210 54 206 q 31 215 40 213 q 8 219 21 218 l 25 250 q 107 269 68 256 q 181 303 146 282 q 234 342 217 324 q 251 374 251 360 q 249 378 251 376 q 244 382 247 381 q 241 384 243 383 q 238 385 239 385 q 234 386 236 386 q 231 386 232 386 q 138 359 192 386 q 15 278 83 332 q -115 154 -51 224 q -239 0 -179 85 l -322 0 l 58 497 q 188 651 124 582 q 317 775 253 721 q 430 856 382 829 q 510 883 478 883 q 525 881 518 883 q 538 874 532 879 q 546 863 543 869 q 549 847 549 856 q 517 768 549 814 q 424 664 486 722 q 265 533 361 606 q 40 375 169 461 l 40 376 m 90 444 q 263 563 185 504 q 400 676 340 621 q 491 774 461 733 q 521 838 521 814 q 519 844 521 840 q 515 850 518 847 q 509 855 513 853 q 501 857 506 857 q 434 829 475 857 q 336 744 393 801 q 219 613 281 689 q 90 443 157 538 l 90 444 z "},"l":{"ha":358,"x_min":-228,"x_max":575,"o":"m 3 314 q -81 198 -44 247 q -139 114 -117 149 q -172 57 -161 79 q -183 25 -183 35 q -182 18 -183 21 q -178 13 -181 15 q -173 8 -176 10 q -165 7 -169 7 q -126 19 -150 7 q -71 53 -103 31 q -3 109 -40 76 q 81 185 35 142 l 97 168 q 15 85 53 119 q -58 26 -24 50 q -122 -7 -93 4 q -172 -18 -150 -18 q -196 -14 -186 -18 q -212 -3 -206 -10 q -224 13 -219 3 q -228 36 -228 24 q -203 119 -228 68 q -131 240 -179 169 q -15 399 -83 313 q 144 588 54 486 q 261 712 204 657 q 372 808 318 767 q 466 869 425 849 q 533 890 507 890 q 551 888 544 890 q 564 881 558 885 q 572 869 569 875 q 575 853 575 863 q 537 767 575 819 q 421 640 499 714 q 240 485 344 568 q 3 313 135 403 l 3 314 m 53 378 q 247 522 160 451 q 403 660 335 593 q 506 771 472 725 q 540 839 540 817 q 539 850 540 846 q 535 856 538 854 q 528 860 532 858 q 517 861 524 861 q 444 828 489 861 q 335 731 399 796 q 201 576 272 665 q 53 376 131 488 l 53 378 z "},"m":{"ha":832,"x_min":-322,"x_max":614,"o":"m 233 283 q 307 340 272 315 q 372 383 342 365 q 432 410 404 401 q 482 419 460 419 q 507 417 496 419 q 525 407 518 414 q 536 392 532 401 q 540 371 540 382 q 535 345 540 360 q 522 314 531 331 q 500 278 513 296 q 472 242 488 261 l 347 94 q 330 71 338 81 q 317 54 322 61 q 310 42 313 47 q 308 32 308 36 q 310 25 308 28 q 313 19 311 22 q 319 17 315 18 q 328 15 322 15 q 372 26 346 15 q 433 60 399 38 q 510 114 468 82 q 599 189 551 146 l 614 171 q 526 91 568 125 q 444 32 485 57 q 373 -2 406 8 q 317 -12 340 -12 q 297 -9 306 -12 q 281 0 288 -6 q 271 18 275 7 q 267 43 267 29 q 272 73 267 57 q 285 107 276 89 q 306 144 294 126 q 335 179 318 161 l 461 328 q 474 344 468 336 q 483 357 481 351 q 490 367 488 363 q 492 375 492 372 q 490 383 492 379 q 486 389 489 386 q 480 392 483 392 q 469 393 476 393 q 386 365 435 393 q 274 283 338 338 q 147 158 210 229 q 22 0 85 86 l -57 0 l 194 326 l 199 333 q 218 359 211 349 q 225 375 225 369 q 224 383 225 379 q 219 389 222 386 q 213 392 217 392 q 203 393 208 393 q 119 365 168 393 q 7 283 71 338 q -33 245 -12 265 q -75 203 -54 225 q -159 108 -117 160 q -242 0 -201 57 l -322 0 l -19 404 l 51 404 l -42 276 q 37 338 0 311 q 104 383 74 365 q 163 410 136 401 q 213 419 190 419 q 239 417 228 419 q 257 407 250 414 q 269 392 265 401 q 272 372 272 383 q 264 342 272 363 q 240 292 256 321 q 237 285 239 288 q 233 282 235 283 l 233 283 z "},"n":{"ha":563,"x_min":-322,"x_max":347,"o":"m 206 243 l 82 94 q 61 69 69 79 q 49 53 53 60 q 42 42 44 47 q 40 31 40 36 q 42 25 40 28 q 46 19 44 22 q 53 17 49 18 q 61 15 57 15 q 105 27 78 15 q 167 61 132 39 q 244 116 203 85 q 331 189 285 147 l 347 171 q 259 92 301 126 q 176 33 217 57 q 106 -2 138 8 q 50 -12 74 -12 q 30 -9 39 -12 q 14 0 21 -6 q 4 18 8 7 q 0 43 0 29 q 5 73 0 57 q 18 107 10 89 q 40 144 28 126 q 67 179 51 161 l 194 328 q 207 343 201 335 q 217 357 213 351 q 223 368 221 364 q 225 375 225 372 q 224 383 225 379 q 219 389 222 386 q 213 392 217 392 q 203 393 208 393 q 120 365 169 393 q 7 283 71 338 q -33 245 -12 265 q -75 203 -54 225 q -159 108 -117 158 q -242 0 -201 57 l -322 0 l -19 404 l 51 404 l -42 276 q 37 338 0 311 q 104 383 74 365 q 163 410 136 401 q 213 419 190 419 q 239 416 228 419 q 257 406 250 413 q 269 391 265 400 q 272 371 272 382 q 268 345 272 360 q 256 314 264 331 q 233 278 246 296 q 206 242 221 261 l 206 243 z "},"o":{"ha":508,"x_min":-233,"x_max":289,"o":"m 161 206 q 175 197 168 200 q 188 192 182 194 q 195 191 192 192 q 201 190 199 190 q 208 189 204 189 q 215 189 211 189 q 232 190 224 189 q 247 192 240 190 q 263 197 254 194 q 281 204 271 200 l 289 186 q 272 175 281 179 q 251 168 263 171 q 231 165 242 167 q 208 164 221 164 q 192 165 200 164 q 175 168 183 167 q 167 171 171 169 q 160 175 164 172 q 152 178 156 176 q 144 183 149 181 q 94 124 119 151 q 42 72 68 96 q 16 51 29 61 q -8 32 3 42 q -84 -7 -49 6 q -153 -19 -119 -19 q -187 -14 -172 -19 q -211 0 -201 -8 q -228 25 -222 11 q -233 56 -233 39 q -223 115 -233 83 q -192 181 -212 146 q -141 247 -169 215 q -76 308 -112 279 q -23 348 -49 331 q 28 379 3 365 q 41 385 35 382 q 54 392 47 389 q 114 415 86 407 q 167 422 142 422 q 192 418 181 422 q 211 407 203 414 q 224 389 219 399 q 229 367 229 379 q 224 333 229 351 q 211 293 219 314 q 189 250 201 272 q 161 204 176 228 l 161 206 m 196 339 q 196 340 196 339 q 197 342 196 340 q 197 344 197 343 q 197 346 197 344 q 197 349 197 347 q 199 353 197 350 q 199 356 199 354 q 199 358 199 357 q 197 372 199 365 q 190 382 194 378 q 181 388 186 386 q 168 390 175 390 q 128 381 151 390 q 78 353 106 372 q 19 308 49 335 q -44 250 -10 282 q -104 185 -78 215 q -149 128 -131 156 q -178 81 -168 101 q -187 47 -187 61 q -185 31 -187 38 q -175 18 -182 24 q -160 10 -169 13 q -140 7 -151 7 q -84 19 -114 7 q -21 56 -54 32 q 49 118 11 81 q 129 207 86 156 q 128 210 129 208 q 128 214 128 213 q 126 221 126 217 q 125 228 125 225 q 123 235 124 232 q 122 242 122 239 q 124 258 122 250 q 128 272 125 265 q 136 287 132 279 q 146 303 140 294 q 169 328 157 319 q 196 338 182 336 l 196 339 z "},"p":{"ha":563,"x_min":-587,"x_max":346,"o":"m 204 243 l 81 94 q 62 71 69 81 q 49 54 54 61 q 42 42 44 47 q 39 32 39 36 q 41 25 39 28 q 44 19 43 22 q 51 17 47 18 q 60 15 54 15 q 103 26 78 15 q 164 60 129 38 q 241 114 200 82 q 329 189 282 146 l 346 171 q 256 90 299 125 q 175 32 214 56 q 104 -2 136 8 q 49 -12 72 -12 q 29 -9 38 -12 q 14 0 21 -6 q 3 18 7 7 q 0 43 0 29 q 5 74 0 58 q 18 108 10 90 q 38 144 26 126 q 65 179 50 161 l 193 328 q 206 344 200 336 q 215 358 213 353 q 222 369 219 364 q 224 375 224 374 q 222 384 224 381 q 218 389 221 388 q 211 392 215 392 q 201 393 207 393 q 126 370 171 393 q 25 300 82 347 q -86 196 -31 254 q -194 65 -142 138 l -511 -353 l -587 -353 l -22 404 l 50 404 l -44 276 q 36 338 0 311 q 103 383 72 365 q 162 410 135 401 q 211 419 189 419 q 237 417 226 419 q 256 407 247 414 q 266 392 263 401 q 269 371 269 382 q 265 344 269 358 q 253 313 261 331 q 232 278 244 296 q 204 242 219 261 l 204 243 z "},"q":{"ha":592,"x_min":-287,"x_max":360,"o":"m 239 351 l 278 404 l 347 404 l -37 -112 q 46 -43 -3 -83 q 158 44 94 -3 q 269 131 224 94 q 343 192 315 168 l 360 174 q 261 90 324 140 q 108 -26 199 40 q -40 -152 19 -96 q -132 -251 -100 -208 l -207 -353 l -287 -353 l 69 121 q 1 61 33 86 q -60 19 -31 36 q -115 -3 -89 4 q -161 -11 -140 -11 q -190 -7 -176 -11 q -212 4 -203 -3 q -226 25 -222 13 q -231 53 -231 38 q -219 118 -231 85 q -185 188 -208 151 q -129 257 -161 224 q -56 321 -97 290 q 5 363 -25 344 q 67 394 35 381 q 126 415 99 408 q 176 422 154 422 q 205 418 193 422 q 225 407 217 414 q 235 390 232 401 q 239 364 239 379 l 239 351 l 239 351 m 172 392 q 133 381 154 390 q 83 353 111 372 q 26 309 56 335 q -35 250 -4 283 q -99 181 -71 213 q -146 122 -128 150 q -175 74 -165 94 q -185 39 -185 54 q -183 29 -185 33 q -178 22 -182 25 q -170 18 -175 19 q -158 17 -165 17 q -113 26 -139 17 q -56 56 -87 36 q 7 102 -25 75 q 75 165 39 129 q 132 226 107 197 q 174 279 157 254 q 199 324 190 304 q 207 358 207 344 q 205 372 207 365 q 197 382 203 378 q 186 388 193 386 q 172 390 179 390 l 172 392 z "},"r":{"ha":401,"x_min":-325,"x_max":260,"o":"m 260 410 q 222 372 238 389 q 197 343 207 356 q 182 320 188 331 q 176 303 176 310 q 179 294 176 297 q 188 289 182 292 q 202 286 193 288 q 222 285 211 285 q 224 285 222 285 q 228 285 225 285 q 231 285 229 285 q 235 286 232 285 q 238 286 236 286 q 240 286 239 286 l 226 264 q 219 263 224 263 q 210 261 215 263 q 203 259 206 260 q 197 258 200 258 q 170 261 182 258 q 149 269 158 264 q 133 281 139 274 q 122 297 126 288 l -212 50 l -251 0 l -325 0 l -10 404 l 61 404 l -165 114 l 128 338 q 149 370 139 356 q 169 394 160 385 q 193 407 181 403 q 221 411 206 411 q 224 411 222 411 q 229 411 226 411 q 236 410 232 410 q 246 410 240 410 q 250 410 249 410 q 254 410 251 410 q 257 408 256 408 q 260 408 258 408 l 260 410 z "},"s":{"ha":381,"x_min":-257,"x_max":149,"o":"m 85 426 q 85 406 85 415 q 86 390 86 397 q 88 362 88 374 q 89 342 89 350 q 90 319 90 329 q 90 300 90 308 q 72 174 90 231 q 13 72 53 117 q -73 8 -25 29 q -178 -12 -121 -12 q -210 -8 -196 -12 q -235 1 -224 -4 q -251 21 -246 10 q -257 46 -257 32 q -253 69 -257 58 q -240 89 -249 79 q -222 102 -232 97 q -200 107 -212 107 q -188 104 -194 107 q -176 96 -182 101 q -169 85 -171 90 q -167 72 -167 79 q -172 51 -167 60 q -187 36 -178 42 q -203 27 -199 31 q -208 21 -208 24 q -207 16 -208 18 q -201 13 -206 14 q -194 10 -199 11 q -183 8 -190 8 q -101 38 -142 8 q -22 128 -61 68 q 36 258 14 188 q 63 411 58 329 q 10 360 36 385 q -43 311 -17 335 q -98 265 -71 288 q -151 219 -125 242 l -169 240 q -122 278 -146 257 q -69 322 -97 299 q -10 378 -43 347 q 61 447 22 410 q 70 466 65 457 q 79 482 75 475 q 88 497 83 490 q 97 508 93 503 q 115 525 107 519 q 131 531 124 531 q 140 530 136 531 q 144 526 143 529 q 148 522 147 525 q 149 513 149 518 q 144 494 149 504 q 132 472 140 483 q 112 449 124 461 q 85 425 100 438 l 85 426 z "},"t":{"ha":372,"x_min":-211,"x_max":293,"o":"m 172 628 l 256 628 l 157 497 l 293 497 l 272 468 l 138 468 l -140 94 q -146 84 -143 89 q -153 74 -149 79 q -158 63 -156 68 q -162 54 -161 58 q -170 38 -168 44 q -172 26 -172 31 q -171 19 -172 22 q -167 14 -169 17 q -160 10 -164 11 q -149 8 -156 8 q -112 19 -135 8 q -57 53 -89 31 q 8 106 -26 75 q 86 176 43 138 l 104 163 q 25 83 61 117 q -46 26 -11 50 q -110 -7 -81 4 q -161 -18 -139 -18 q -181 -14 -172 -18 q -197 -1 -190 -10 q -208 14 -204 4 q -211 35 -211 24 q -206 72 -211 51 q -190 117 -201 93 q -165 166 -179 140 q -131 218 -150 192 l 53 468 l -46 468 l -25 497 l 75 497 l 172 628 l 172 628 z "},"u":{"ha":586,"x_min":-235,"x_max":349,"o":"m -7 404 l 74 404 l -168 90 q -179 71 -174 79 q -189 54 -185 63 q -195 41 -193 47 q -197 29 -197 35 q -195 21 -197 25 q -190 14 -193 17 q -183 10 -187 13 q -172 8 -178 8 q -93 36 -140 8 q 15 118 -46 64 q 141 244 79 174 q 263 403 203 315 l 344 404 l 96 81 l 93 78 q 74 47 81 60 q 68 28 68 35 q 70 22 68 25 q 75 15 72 18 q 83 10 79 13 q 92 8 88 8 q 127 19 106 8 q 179 51 149 29 q 247 103 210 72 q 329 176 285 135 l 349 161 q 271 85 310 118 q 196 28 232 53 q 133 -6 161 6 q 86 -18 106 -18 q 65 -14 74 -18 q 49 -1 56 -10 q 39 17 43 4 q 35 44 35 29 q 35 58 35 51 q 38 72 36 64 q 42 90 40 81 q 47 113 44 100 q -19 57 13 82 q -81 14 -50 32 q -136 -9 -111 0 q -181 -18 -161 -18 q -204 -14 -194 -18 q -221 -1 -214 -10 q -231 15 -228 4 q -235 39 -235 25 q -231 74 -235 56 q -217 113 -226 93 q -194 155 -207 132 q -161 201 -181 178 l -7 404 l -7 404 z "},"v":{"ha":517,"x_min":-214,"x_max":288,"o":"m 132 228 q 142 295 133 263 q 167 356 150 328 q 183 381 175 371 q 199 399 190 392 q 215 409 207 406 q 231 413 222 413 q 239 410 235 413 q 246 404 243 408 q 251 395 249 400 q 253 383 253 390 q 247 356 253 372 q 229 317 240 339 q 201 270 218 296 q 161 213 185 244 q 167 207 164 210 q 175 201 171 204 q 181 197 178 199 q 188 193 185 194 q 203 189 194 190 q 219 188 211 188 q 234 189 226 188 q 249 192 242 190 q 263 197 256 194 q 279 204 271 200 l 288 186 q 269 176 278 179 q 253 169 261 172 q 235 165 243 167 q 218 164 226 164 q 196 166 207 164 q 175 171 185 168 q 158 181 165 175 q 143 194 150 186 q 64 103 103 143 q -10 35 25 64 q -81 -6 -49 8 q -142 -19 -114 -19 q -171 -15 -157 -19 q -194 0 -185 -10 q -209 23 -204 10 q -214 54 -214 36 q -208 90 -214 69 q -192 133 -203 110 q -166 182 -182 157 q -131 232 -150 207 l 0 404 l 79 404 l -126 135 q -149 101 -139 115 q -164 74 -158 86 q -174 51 -171 61 q -176 35 -176 42 q -174 24 -176 29 q -167 13 -172 18 q -154 6 -161 8 q -139 4 -147 4 q -81 19 -112 4 q -11 65 -49 35 q 60 136 24 96 q 132 226 97 176 l 132 228 z "},"w":{"ha":781,"x_min":-219,"x_max":553,"o":"m 426 214 q 440 201 433 207 q 454 193 446 196 q 469 189 461 190 q 486 188 476 188 q 501 189 493 188 q 515 192 508 190 q 530 197 522 194 q 546 204 538 200 l 553 186 q 536 176 544 179 q 519 169 528 172 q 501 165 510 167 q 485 164 493 164 q 463 166 474 164 q 442 171 451 168 q 424 181 432 175 q 408 194 415 186 q 329 103 368 143 q 251 35 290 63 q 180 -5 214 8 q 115 -18 146 -18 q 88 -13 100 -18 q 67 0 75 -8 q 54 24 58 10 q 50 56 50 38 q 50 65 50 60 q 51 76 50 71 q 53 91 51 83 q 56 108 54 99 q 27 80 42 93 q -1 54 13 67 q -30 31 -15 42 q -58 13 -44 21 q -112 -10 -87 -1 q -160 -19 -137 -19 q -183 -15 -172 -19 q -203 0 -194 -10 q -215 21 -211 8 q -219 50 -219 33 q -214 86 -219 67 q -197 128 -208 106 q -171 177 -187 151 q -131 232 -154 203 l 0 404 l 79 404 l -126 135 q -149 101 -139 117 q -165 71 -158 86 q -176 46 -172 57 q -179 26 -179 35 q -177 17 -179 21 q -172 11 -175 14 q -162 6 -168 8 q -149 4 -156 4 q -97 21 -128 4 q -22 69 -65 38 q 57 144 17 103 q 135 232 97 185 l 264 404 l 346 404 l 138 135 q 115 103 125 118 q 99 75 106 89 q 90 51 93 61 q 86 32 86 40 q 88 22 86 26 q 96 13 90 17 q 106 5 100 7 q 118 3 113 3 q 177 18 146 3 q 246 63 208 33 q 321 135 283 93 q 397 228 358 176 q 410 298 400 265 q 435 358 419 331 q 466 399 450 386 q 497 413 482 413 q 506 410 501 413 q 513 404 510 408 q 517 395 515 400 q 519 383 519 390 q 513 356 519 372 q 496 318 507 340 q 467 271 485 297 q 426 213 450 244 l 426 214 z "},"x":{"ha":594,"x_min":-253,"x_max":394,"o":"m 171 335 q 217 372 194 356 q 258 399 239 388 q 297 415 279 410 q 333 421 315 421 q 360 417 349 421 q 378 406 371 413 q 390 390 386 400 q 394 367 394 379 q 388 335 394 350 q 369 307 382 319 q 342 287 357 293 q 311 281 328 281 q 299 283 304 281 q 289 290 293 285 q 281 303 283 297 q 279 317 279 310 q 281 330 279 324 q 289 342 283 336 q 301 348 294 346 q 318 350 308 350 q 333 352 326 350 q 344 356 339 354 q 351 363 349 358 q 353 372 353 367 q 351 380 353 376 q 347 386 350 383 q 338 390 344 389 q 324 390 332 390 q 292 382 310 390 q 253 357 274 374 q 210 316 233 340 q 163 258 188 292 q 100 176 126 213 q 57 114 74 140 q 33 68 40 88 q 25 38 25 49 q 27 25 25 31 q 33 15 29 19 q 43 8 38 10 q 57 6 49 6 q 110 18 81 6 q 179 54 140 31 q 260 110 218 78 q 344 183 301 143 l 364 168 q 277 90 321 124 q 190 29 233 56 q 112 -6 147 6 q 49 -18 76 -18 q 19 -13 32 -18 q 0 0 7 -8 q -11 21 -7 7 q -15 53 -15 35 l -17 65 q -62 29 -39 44 q -108 3 -85 14 q -151 -12 -132 -7 q -187 -18 -171 -18 q -215 -14 -203 -18 q -235 -3 -226 -10 q -249 13 -244 3 q -253 38 -253 24 q -247 72 -253 57 q -229 99 -240 86 q -204 116 -218 110 q -174 122 -190 122 q -159 120 -165 122 q -146 113 -153 118 q -138 100 -140 107 q -136 85 -136 93 q -139 69 -136 76 q -147 57 -142 63 q -160 49 -153 51 q -176 46 -168 46 q -179 46 -178 46 q -182 46 -181 46 q -185 46 -183 46 q -187 46 -186 46 q -190 46 -189 46 q -192 47 -192 46 q -194 47 -193 47 q -194 47 -194 47 q -204 46 -200 47 q -211 42 -208 44 q -216 37 -214 40 q -218 28 -218 33 q -216 19 -218 24 q -210 13 -214 15 q -200 8 -206 10 q -187 6 -194 6 q -151 15 -171 6 q -106 42 -131 24 q -81 60 -93 50 q -57 83 -68 71 q -32 108 -44 94 q -7 136 -19 121 q 49 212 24 176 q 93 278 74 247 q 123 331 113 310 q 133 363 133 351 q 131 374 133 369 q 124 382 128 379 q 111 388 118 386 q 94 390 104 390 q 55 379 79 390 q -1 344 31 368 q -78 288 -36 322 q -172 208 -121 254 l -190 231 q -91 314 -136 278 q -8 374 -46 350 q 56 409 26 397 q 110 421 86 421 q 136 416 125 421 q 156 403 147 411 q 168 381 164 394 q 172 351 172 368 q 172 349 172 350 q 172 346 172 347 q 171 343 171 344 q 171 340 171 342 q 171 337 171 339 q 171 333 171 335 l 171 335 z "},"y":{"ha":563,"x_min":-453,"x_max":347,"o":"m -65 -46 q -205 -110 -142 -76 q -317 -179 -268 -143 q -390 -244 -365 -215 q -414 -296 -414 -274 q -412 -308 -414 -303 q -407 -318 -410 -314 q -397 -323 -403 -321 q -383 -325 -390 -325 q -326 -308 -358 -325 q -256 -258 -294 -292 q -169 -171 -217 -224 q -64 -46 -121 -118 l -65 -46 m -7 404 l 74 404 l -168 90 q -178 72 -174 81 q -187 56 -183 64 q -195 40 -193 46 q -197 29 -197 33 q -195 21 -197 25 q -190 14 -193 17 q -183 10 -187 13 q -172 8 -179 8 q -93 35 -140 8 q 14 117 -46 63 q 138 243 75 172 q 263 403 200 314 l 338 404 l 50 26 q 106 51 79 38 q 158 78 133 64 q 183 91 171 85 q 207 104 196 97 q 273 145 242 124 q 331 189 304 167 l 347 169 q 277 117 314 142 q 200 68 240 92 q 115 25 160 46 q 22 -12 71 4 q -89 -156 -33 -93 q -200 -264 -144 -218 q -303 -332 -256 -310 q -390 -354 -351 -354 q -415 -351 -404 -354 q -435 -342 -426 -349 q -449 -328 -444 -336 q -453 -308 -453 -319 q -424 -240 -453 -276 q -339 -161 -396 -203 q -209 -82 -283 -119 q -44 -11 -135 -44 l 71 139 q -2 70 32 99 q -69 21 -36 42 q -131 -8 -103 1 q -181 -18 -158 -18 q -204 -14 -194 -18 q -221 -1 -214 -10 q -231 15 -228 4 q -235 39 -235 25 q -231 76 -235 57 q -217 115 -226 94 q -193 158 -207 136 q -161 203 -179 181 l -7 404 l -7 404 z "},"z":{"ha":503,"x_min":-319,"x_max":296,"o":"m 0 356 q 15 349 7 351 q 33 344 24 347 q 53 342 42 343 q 78 342 64 342 q 99 342 89 342 q 118 344 110 343 q 136 348 128 346 q 153 351 144 350 q 201 388 181 374 q 233 408 221 401 q 256 419 246 415 q 276 424 267 424 q 286 422 282 422 q 292 418 290 421 q 295 413 294 417 q 296 403 296 410 q 288 384 296 394 q 260 361 279 374 q 220 340 242 349 q 172 324 199 331 l -75 140 q -58 141 -65 140 q -43 143 -50 142 q -30 144 -36 144 q -17 144 -24 144 q 8 142 -3 144 q 28 132 19 139 q 42 118 38 126 q 47 100 47 110 q 43 81 47 90 q 32 61 39 72 q 22 42 25 50 q 18 31 18 35 q 18 28 18 29 q 19 26 18 28 q 23 26 21 26 q 28 26 25 26 q 63 38 40 26 q 119 74 86 50 q 190 129 153 97 q 267 200 228 161 l 286 182 q 190 94 235 131 q 107 32 144 57 q 39 -4 69 7 q -14 -15 8 -15 q -34 -12 -25 -15 q -50 -6 -43 -10 q -60 4 -57 -1 q -62 18 -62 10 q -56 43 -62 29 q -37 71 -50 57 q -17 94 -24 86 q -11 104 -11 103 q -12 108 -11 107 q -15 111 -14 110 q -23 113 -18 113 q -35 114 -28 114 q -103 97 -65 114 q -189 49 -142 81 q -265 2 -236 17 q -304 -12 -293 -12 q -310 -12 -307 -12 q -315 -8 -314 -11 q -319 -5 -318 -7 q -319 0 -319 -3 q -310 17 -319 7 q -279 42 -300 28 q -229 72 -260 56 q -158 108 -199 89 l 111 317 q 97 313 103 314 q 86 313 90 313 q 78 313 82 313 q 69 313 74 313 q 42 314 56 313 q 18 318 29 315 q -3 326 6 321 q -22 338 -12 332 q -37 324 -29 331 q -51 310 -44 317 q -81 283 -67 296 q -110 258 -96 271 q -151 224 -132 240 q -189 193 -171 207 l -204 214 q -161 249 -182 231 q -118 285 -140 267 q -76 323 -97 304 q -35 361 -56 342 q -29 392 -33 378 q -17 417 -25 406 q 0 433 -8 428 q 19 438 8 438 q 29 436 25 438 q 38 431 33 435 q 44 422 42 426 q 46 413 46 418 q 43 400 46 407 q 35 386 40 393 q 20 371 29 379 q 0 354 11 363 l 0 356 z "},"{":{"ha":694,"x_min":118,"x_max":572,"o":"m 572 1028 l 571 994 q 485 984 519 993 q 431 957 450 975 q 403 903 413 939 q 394 814 394 867 l 394 717 q 383 586 394 639 q 350 506 372 533 q 288 459 328 478 q 189 429 247 440 q 288 400 247 419 q 350 353 328 381 q 383 272 372 325 q 394 143 394 219 l 394 44 q 403 -44 394 -8 q 431 -97 413 -79 q 485 -124 450 -115 q 571 -135 519 -133 l 572 -165 l 565 -165 q 444 -153 493 -165 q 367 -115 394 -140 q 326 -45 340 -90 q 313 67 313 0 l 313 219 q 302 306 313 271 q 272 361 292 342 q 213 394 251 382 q 118 410 175 406 l 118 450 q 214 466 175 454 q 272 497 253 478 q 302 553 292 517 q 313 640 313 589 l 313 792 q 326 905 313 858 q 367 976 340 951 q 444 1014 394 1001 q 565 1026 493 1026 l 572 1028 l 572 1028 z "},"|":{"ha":694,"x_min":317,"x_max":376,"o":"m 317 1061 l 376 1061 l 376 -326 l 317 -326 l 317 1061 l 317 1061 z "},"}":{"ha":694,"x_min":119,"x_max":575,"o":"m 119 1028 l 126 1028 q 250 1014 200 1026 q 326 976 300 1001 q 367 905 354 951 q 381 790 381 858 l 381 642 q 391 553 381 589 q 421 497 401 517 q 479 466 440 478 q 575 449 518 454 l 575 411 q 481 394 519 406 q 421 361 442 382 q 391 306 401 342 q 381 218 381 271 l 381 68 q 367 -44 381 1 q 326 -115 354 -89 q 250 -153 300 -140 q 126 -165 200 -165 l 119 -165 l 121 -135 q 208 -124 174 -133 q 261 -97 243 -115 q 290 -44 281 -79 q 299 43 299 -8 l 299 144 q 310 272 299 219 q 343 351 321 324 q 404 399 364 379 q 504 429 444 418 q 406 459 446 440 q 343 506 365 478 q 310 586 321 533 q 299 715 299 639 l 299 815 q 290 903 299 867 q 261 957 281 939 q 208 984 243 975 q 121 993 174 993 l 119 1028 l 119 1028 z "},"~":{"ha":1157,"x_min":119,"x_max":1038,"o":"m 1038 500 l 1038 438 q 967 392 1001 411 q 900 361 932 374 q 837 344 868 350 q 775 338 806 338 q 696 347 740 338 q 594 378 651 357 q 585 381 589 381 q 579 383 582 382 q 569 387 575 385 q 557 392 564 389 q 456 422 500 411 q 382 432 413 432 q 325 426 354 432 q 264 407 296 419 q 197 374 233 394 q 119 324 160 353 l 119 388 q 190 430 156 411 q 257 461 224 449 q 320 480 289 474 q 382 486 351 486 q 462 476 415 486 q 567 444 508 465 q 574 441 571 443 q 579 439 578 439 q 587 436 582 438 q 597 432 592 435 q 699 401 654 411 q 775 392 743 392 q 833 398 803 392 q 893 417 863 404 q 961 450 925 429 q 1038 499 997 471 l 1038 500 z "},"":{"ha":901,"x_min":-261,"x_max":1161,"o":"m 385 379 q 362 354 375 368 q 331 321 349 340 q 241 229 279 267 q 178 169 203 192 q 218 137 197 151 q 261 111 239 122 q 310 93 285 101 q 364 82 336 85 q 376 126 371 101 q 385 176 381 150 q 390 234 388 204 q 392 296 392 264 q 392 308 392 303 q 392 319 392 314 q 390 330 390 325 q 390 340 390 335 q 388 359 389 350 q 385 378 388 368 l 385 379 m 379 418 q 351 499 369 463 q 307 563 333 536 q 252 604 281 590 q 193 618 224 618 q 138 606 163 618 q 93 567 113 593 q 64 508 74 540 q 54 433 54 475 q 56 402 54 418 q 61 371 57 386 q 69 338 64 354 q 81 307 74 322 q 113 246 93 275 q 156 189 132 217 q 215 242 186 215 q 271 299 244 269 q 326 356 299 326 q 379 417 353 386 l 379 418 m 946 858 q 856 822 908 851 q 738 736 804 792 q 590 599 671 681 q 415 410 510 517 q 416 401 415 406 q 417 390 417 396 q 419 374 418 382 q 419 357 419 365 q 422 334 421 344 q 422 313 422 324 q 422 265 422 288 q 419 224 421 243 q 415 185 418 204 q 408 150 413 167 q 526 320 465 235 q 654 493 588 406 q 792 673 719 582 q 946 857 865 764 l 946 858 m 1000 888 q 843 672 918 775 q 703 471 768 568 q 573 277 636 374 q 450 85 510 181 q 494 97 474 89 q 532 114 514 104 q 568 138 550 124 q 604 172 586 153 l 622 156 q 583 114 604 132 q 536 82 561 96 q 484 61 511 68 q 428 53 457 54 l 393 0 l 313 0 l 350 58 q 297 69 324 61 q 247 86 271 76 q 200 113 224 97 q 153 146 176 128 q 56 72 101 103 q -24 21 11 40 q -94 -6 -60 3 q -160 -15 -129 -15 q -201 -9 -183 -15 q -233 8 -219 -3 q -255 38 -249 21 q -261 75 -261 54 q -254 112 -261 94 q -232 144 -247 129 q -212 163 -222 156 q -190 174 -201 169 q -180 176 -185 175 q -169 176 -175 176 q -151 174 -160 176 q -135 165 -142 171 q -125 151 -129 160 q -121 135 -121 143 q -125 117 -121 125 q -135 101 -129 108 q -150 90 -142 94 q -168 86 -158 86 q -178 88 -172 86 q -189 90 -183 89 q -198 94 -194 93 q -203 94 -201 94 q -215 92 -210 94 q -222 86 -219 90 q -228 76 -226 82 q -229 61 -229 69 q -224 42 -229 51 q -208 26 -219 33 q -185 15 -199 19 q -153 11 -171 11 q -94 22 -126 11 q -25 51 -61 32 q 50 101 10 71 q 133 169 90 131 q 81 236 104 201 q 43 306 58 271 q 21 377 29 342 q 13 447 13 413 q 25 529 13 492 q 61 596 38 567 q 116 641 85 626 q 185 656 147 656 q 252 641 219 656 q 315 597 285 626 q 368 531 346 568 q 404 444 390 493 q 599 647 511 563 q 753 785 686 732 q 873 864 819 838 q 967 890 926 890 q 977 890 971 890 q 990 888 983 889 q 996 886 993 886 q 1000 886 999 886 l 1000 888 m 1128 1090 q 1140 1086 1135 1089 q 1151 1076 1146 1083 q 1159 1064 1157 1071 q 1161 1050 1161 1057 q 1157 1028 1161 1039 q 1142 1008 1153 1018 q 1121 994 1132 999 q 1097 989 1110 989 q 1083 992 1089 989 q 1071 1000 1076 994 q 1063 1013 1065 1006 q 1061 1026 1061 1019 q 1067 1048 1061 1038 q 1082 1068 1072 1058 q 1103 1084 1092 1079 q 1128 1089 1114 1089 l 1128 1090 m 935 1090 q 949 1086 942 1089 q 960 1076 956 1083 q 968 1064 965 1071 q 971 1050 971 1057 q 966 1028 971 1039 q 950 1008 961 1018 q 929 994 940 999 q 904 989 918 989 q 891 992 897 989 q 879 1000 885 994 q 871 1013 874 1006 q 868 1026 868 1019 q 874 1048 868 1038 q 889 1068 879 1058 q 911 1084 900 1079 q 935 1089 922 1089 l 935 1090 z "},"":{"ha":901,"x_min":-261,"x_max":1131,"o":"m 1010 1125 q 976 1117 992 1124 q 949 1099 961 1111 q 931 1072 936 1086 q 925 1040 925 1057 q 931 1007 925 1022 q 950 979 938 992 q 977 960 963 967 q 1010 954 992 954 q 1041 960 1026 954 q 1068 979 1056 967 q 1087 1007 1081 992 q 1093 1040 1093 1022 q 1087 1072 1093 1057 q 1068 1099 1081 1086 q 1041 1117 1056 1111 q 1010 1124 1026 1124 l 1010 1125 m 1010 1163 q 1056 1153 1035 1161 q 1096 1126 1078 1144 q 1122 1086 1114 1108 q 1131 1039 1131 1064 q 1122 991 1131 1013 q 1096 951 1114 969 q 1056 925 1078 933 q 1010 917 1035 917 q 961 925 983 917 q 921 951 939 933 q 894 991 903 969 q 886 1039 886 1013 q 895 1086 886 1064 q 922 1126 904 1108 q 962 1153 940 1144 q 1010 1161 983 1161 l 1010 1163 m 385 379 q 362 354 375 368 q 331 321 349 340 q 241 229 279 267 q 178 169 203 192 q 218 137 197 151 q 261 111 239 122 q 310 93 285 101 q 364 82 336 85 q 376 126 371 101 q 385 176 381 150 q 390 234 388 204 q 392 296 392 264 q 392 308 392 303 q 392 319 392 314 q 390 330 390 325 q 390 340 390 335 q 388 359 389 350 q 385 378 388 368 l 385 379 m 379 418 q 351 499 369 463 q 307 563 333 536 q 252 604 281 590 q 193 618 224 618 q 138 606 163 618 q 93 567 113 593 q 64 508 74 540 q 54 433 54 475 q 56 402 54 418 q 61 371 57 386 q 69 338 64 354 q 81 307 74 322 q 113 246 93 275 q 156 189 132 217 q 215 242 186 215 q 271 299 244 269 q 326 356 299 326 q 379 417 353 386 l 379 418 m 946 858 q 856 822 908 851 q 738 736 804 792 q 590 599 671 681 q 415 410 510 517 q 416 401 415 406 q 417 390 417 396 q 419 374 418 382 q 419 357 419 365 q 422 334 421 344 q 422 313 422 324 q 422 265 422 288 q 419 224 421 243 q 415 185 418 204 q 408 150 413 167 q 526 320 465 235 q 654 493 588 406 q 792 673 719 582 q 946 857 865 764 l 946 858 m 1000 888 q 843 672 918 775 q 703 471 768 568 q 573 277 636 374 q 450 85 510 181 q 494 97 474 89 q 532 114 514 104 q 568 138 550 124 q 604 172 586 153 l 622 156 q 583 114 604 132 q 536 82 561 96 q 484 61 511 68 q 428 53 457 54 l 393 0 l 313 0 l 350 58 q 297 69 324 61 q 247 86 271 76 q 200 113 224 97 q 153 146 176 128 q 56 72 101 103 q -24 21 11 40 q -94 -6 -60 3 q -160 -15 -129 -15 q -201 -9 -183 -15 q -233 8 -219 -3 q -255 38 -249 21 q -261 75 -261 54 q -254 112 -261 94 q -232 144 -247 129 q -212 163 -222 156 q -190 174 -201 169 q -180 176 -185 175 q -169 176 -175 176 q -151 174 -160 176 q -135 165 -142 171 q -125 151 -129 160 q -121 135 -121 143 q -125 117 -121 125 q -135 101 -129 108 q -150 90 -142 94 q -168 86 -158 86 q -178 88 -172 86 q -189 90 -183 89 q -198 94 -194 93 q -203 94 -201 94 q -215 92 -210 94 q -222 86 -219 90 q -228 76 -226 82 q -229 61 -229 69 q -224 42 -229 51 q -208 26 -219 33 q -185 15 -199 19 q -153 11 -171 11 q -94 22 -126 11 q -25 51 -61 32 q 50 101 10 71 q 133 169 90 131 q 81 236 104 201 q 43 306 58 271 q 21 377 29 342 q 13 447 13 413 q 25 529 13 492 q 61 596 38 567 q 116 641 85 626 q 185 656 147 656 q 252 641 219 656 q 315 597 285 626 q 368 531 346 568 q 404 444 390 493 q 599 647 511 563 q 753 785 686 732 q 873 864 819 838 q 967 890 926 890 q 977 890 971 890 q 990 888 983 889 q 996 886 993 886 q 1000 886 999 886 l 1000 888 z "},"":{"ha":1011,"x_min":26,"x_max":1063,"o":"m 375 475 q 474 484 424 476 q 575 504 524 492 q 674 536 625 518 q 772 576 724 554 q 876 633 829 603 q 957 697 922 663 q 1012 759 993 731 q 1031 810 1031 788 q 1026 835 1031 825 q 1013 851 1021 846 q 991 862 1004 858 q 958 865 978 865 q 839 840 906 865 q 694 761 772 814 q 537 638 617 710 q 375 474 457 565 l 375 475 m 644 901 l 636 881 q 585 890 610 886 q 539 896 561 894 q 497 900 517 899 q 458 901 478 901 q 306 881 376 901 q 176 821 236 861 q 88 735 118 781 q 58 638 58 689 q 73 577 58 604 q 115 529 88 550 q 183 494 143 507 q 272 478 222 482 q 455 647 363 572 q 640 778 547 722 q 814 863 735 835 q 957 890 893 890 q 1002 885 983 890 q 1035 872 1021 881 q 1056 850 1049 863 q 1063 819 1063 838 q 1044 758 1063 790 q 990 690 1026 726 q 908 621 956 654 q 799 557 860 588 q 689 510 744 531 q 575 475 633 490 q 460 453 517 461 q 347 443 403 446 q 263 344 299 390 q 206 258 228 297 q 172 184 183 219 q 161 117 161 149 q 171 71 161 90 q 200 36 181 51 q 247 13 219 21 q 310 6 275 6 q 372 12 340 6 q 438 28 404 18 q 501 54 471 39 q 560 88 532 69 q 615 131 592 108 q 654 175 638 153 q 681 220 672 199 q 689 263 689 242 q 682 295 689 281 q 661 321 675 310 q 630 338 647 332 q 589 343 613 343 q 502 324 546 343 q 414 269 458 306 q 334 185 371 233 q 267 76 297 138 l 244 82 q 307 199 271 146 q 390 292 343 253 q 486 351 438 332 q 586 371 535 371 q 640 363 617 371 q 682 340 664 356 q 709 306 700 326 q 718 260 718 286 q 712 221 718 242 q 693 179 706 200 q 665 140 682 160 q 625 101 647 121 q 553 50 590 72 q 474 11 515 28 q 394 -11 433 -3 q 317 -19 354 -19 q 226 -9 265 -19 q 160 24 188 1 q 120 79 133 47 q 107 153 107 111 q 115 219 107 185 q 142 290 124 253 q 185 367 160 328 q 244 450 211 407 q 152 474 193 458 q 83 515 111 490 q 40 572 54 540 q 26 640 26 603 q 56 753 26 701 q 143 846 85 804 q 276 908 201 888 q 442 929 351 929 q 488 928 464 929 q 536 922 511 926 q 588 914 561 919 q 644 900 615 908 l 644 901 m 247 -6 l 282 -6 l 233 -79 q 236 -79 235 -79 q 239 -79 238 -79 q 242 -78 240 -78 q 247 -78 244 -78 q 255 -78 251 -78 q 260 -78 258 -78 q 308 -83 288 -78 q 343 -97 329 -87 q 365 -123 358 -108 q 372 -156 372 -137 q 363 -203 372 -182 q 333 -237 353 -224 q 288 -260 314 -253 q 226 -268 261 -268 q 191 -266 210 -268 q 153 -257 172 -264 q 110 -244 132 -251 q 67 -225 89 -236 l 79 -196 q 120 -212 101 -206 q 157 -225 139 -219 q 191 -231 175 -229 q 221 -233 207 -233 q 258 -229 242 -233 q 285 -217 274 -225 q 301 -194 296 -207 q 307 -167 307 -182 q 303 -142 307 -153 q 288 -125 299 -132 q 265 -115 278 -118 q 233 -111 251 -111 q 222 -111 228 -111 q 207 -112 215 -111 q 192 -113 200 -112 q 175 -115 185 -114 l 247 -6 l 247 -6 z "},"":{"ha":901,"x_min":-36,"x_max":1025,"o":"m 404 572 q 590 595 503 574 q 754 657 678 617 q 869 736 832 697 q 907 810 907 775 q 903 828 907 821 q 892 842 899 836 q 872 850 883 847 q 843 853 860 853 q 726 831 788 853 q 596 767 665 810 q 480 675 528 724 q 404 571 432 626 l 404 572 m 544 897 l 532 876 q 494 886 514 882 q 456 893 475 890 q 416 897 436 896 q 376 897 396 897 q 274 885 321 897 q 188 847 226 872 q 131 790 150 821 q 113 722 113 760 q 128 663 113 690 q 178 617 144 636 q 254 585 210 596 q 354 574 299 575 q 362 611 356 592 q 379 650 368 631 q 407 691 390 671 q 444 731 424 711 q 528 792 482 765 q 625 840 574 819 q 728 872 678 861 q 828 882 779 882 q 876 877 856 882 q 910 864 896 872 q 931 842 925 856 q 938 811 938 829 q 898 726 938 768 q 779 639 858 683 q 606 572 700 596 q 404 542 513 547 l 404 533 q 404 527 404 531 q 404 521 404 524 q 405 518 404 519 q 406 515 406 517 q 406 513 406 514 q 407 510 407 511 l 428 511 q 467 508 450 510 q 493 501 483 506 q 510 493 504 499 q 517 481 517 488 q 514 472 517 475 q 504 465 511 468 q 490 461 499 463 q 471 460 482 460 q 451 461 461 460 q 432 464 440 463 q 415 470 422 467 q 400 479 407 474 q 249 422 319 460 q 122 329 179 385 q 35 221 64 274 q 6 118 6 168 q 18 74 6 94 q 57 39 31 54 q 115 15 82 24 q 189 7 147 7 q 328 26 263 7 q 454 82 394 44 q 545 159 515 119 q 575 238 575 199 q 568 272 575 257 q 547 296 561 286 q 513 312 533 307 q 468 317 493 317 q 385 303 426 317 q 300 265 343 290 q 215 201 258 239 q 128 110 172 163 l 108 119 q 184 214 143 172 q 272 286 225 256 q 368 331 319 315 q 465 346 417 346 q 524 339 497 346 q 568 317 550 332 q 597 283 588 303 q 606 239 606 264 q 574 147 606 192 q 476 61 542 103 q 341 0 413 19 q 192 -19 269 -19 q 94 -8 136 -19 q 21 26 53 4 q -22 83 -7 50 q -36 158 -36 115 q -10 277 -36 222 q 71 379 17 332 q 202 457 126 425 q 375 506 278 489 q 367 519 369 513 q 361 529 364 525 q 360 533 361 532 q 358 538 360 535 q 356 541 357 539 q 356 544 356 543 q 240 560 292 547 q 151 597 188 572 q 96 654 114 621 q 78 728 78 688 q 97 808 78 772 q 156 874 117 844 q 245 917 196 903 q 354 932 294 932 q 404 930 379 932 q 453 924 429 928 q 499 912 476 918 q 544 896 522 906 l 544 897 m 989 1075 l 801 967 l 774 967 l 954 1128 q 965 1135 960 1131 q 975 1142 969 1139 q 985 1146 981 1144 q 996 1147 990 1147 q 1006 1145 1001 1147 q 1015 1139 1011 1143 q 1020 1134 1018 1136 q 1022 1129 1022 1132 q 1024 1124 1024 1126 q 1025 1119 1025 1122 q 1023 1106 1025 1113 q 1017 1096 1021 1100 q 1007 1085 1014 1090 q 989 1074 1000 1081 l 989 1075 z "},"":{"ha":797,"x_min":-354,"x_max":1053,"o":"m 597 903 q 544 765 575 857 q 478 533 514 672 q 401 281 442 394 q 317 82 361 168 q 360 137 336 106 q 414 208 385 168 q 489 316 443 249 q 599 476 535 383 l 604 488 q 840 799 744 694 q 986 903 935 903 q 1014 899 1001 903 q 1035 886 1026 894 q 1049 866 1044 878 q 1053 839 1053 854 q 1049 811 1053 825 q 1036 786 1044 797 q 1017 770 1028 776 q 994 764 1007 764 q 982 767 988 764 q 971 774 976 769 q 963 785 965 779 q 960 797 960 790 q 967 817 960 808 q 988 831 974 825 q 999 836 994 833 q 1007 842 1004 839 q 1013 847 1011 844 q 1014 853 1014 850 q 1013 856 1014 854 q 1011 860 1013 858 q 1008 863 1010 861 q 1003 867 1006 865 q 992 872 997 871 q 979 874 986 874 q 862 783 942 874 q 660 510 782 692 q 628 464 642 483 q 606 431 614 444 q 469 236 528 317 q 371 107 411 156 q 297 29 331 60 q 236 -15 264 -1 q 298 152 265 47 q 365 401 331 257 q 439 649 400 546 q 521 815 478 753 q 399 691 478 785 q 208 440 321 597 q 159 372 181 401 q 122 321 138 342 q 4 169 58 233 q -97 64 -50 106 q -188 3 -146 22 q -267 -17 -231 -17 q -302 -11 -286 -17 q -331 3 -318 -6 q -349 28 -343 14 q -354 60 -354 43 q -348 92 -354 78 q -329 121 -342 107 q -303 141 -317 135 q -274 147 -289 147 q -259 145 -265 147 q -247 139 -253 143 q -239 128 -242 133 q -236 114 -236 122 q -247 91 -236 100 q -275 75 -257 82 q -305 62 -294 69 q -315 43 -315 54 q -312 30 -315 36 q -301 19 -308 24 q -286 13 -296 15 q -265 11 -276 11 q -195 31 -233 11 q -112 89 -157 50 q -20 185 -68 128 q 83 317 28 242 q 113 358 94 333 q 153 414 131 382 q 420 753 310 631 q 597 901 531 875 l 597 903 m 964 1128 l 989 1128 q 972 1074 982 1096 q 947 1039 961 1053 q 916 1018 933 1025 q 878 1011 899 1011 q 873 1011 876 1011 q 865 1011 869 1011 q 856 1013 861 1013 q 843 1015 850 1014 l 788 1032 q 784 1031 786 1031 q 781 1032 782 1032 q 778 1033 779 1032 q 776 1033 778 1033 q 771 1034 774 1033 q 765 1035 768 1035 q 756 1037 760 1036 q 749 1038 751 1038 q 724 1034 735 1038 q 704 1024 713 1031 q 690 1008 696 1018 q 682 982 685 997 l 657 983 q 674 1033 664 1011 q 697 1068 683 1054 q 728 1090 711 1083 q 767 1097 746 1097 q 776 1097 771 1097 q 786 1094 781 1096 q 792 1094 789 1094 q 800 1092 796 1093 q 806 1091 803 1092 q 813 1089 810 1090 l 867 1075 q 871 1073 869 1074 q 875 1072 872 1072 q 878 1072 876 1072 q 882 1071 881 1071 q 886 1071 885 1071 q 890 1071 888 1071 q 894 1069 892 1069 q 897 1069 896 1069 q 922 1074 911 1069 q 940 1083 933 1078 q 955 1101 949 1090 q 964 1126 961 1113 l 964 1128 z "},"":{"ha":919,"x_min":-35,"x_max":1025,"o":"m 839 625 l 828 644 q 869 672 851 657 q 899 704 888 688 q 917 738 911 719 q 924 775 924 756 q 915 813 924 796 q 888 842 906 829 q 847 860 871 854 q 792 867 824 867 q 690 851 744 867 q 575 801 636 835 q 453 725 513 769 q 338 624 394 681 q 198 474 258 546 q 96 336 138 401 q 31 217 53 271 q 10 121 10 164 q 19 74 10 94 q 46 38 28 53 q 88 14 64 22 q 140 6 111 6 q 241 25 188 6 q 354 82 294 44 q 473 172 415 119 q 586 289 531 224 q 660 385 628 338 q 715 478 693 433 q 751 560 739 522 q 763 626 763 597 q 758 658 763 644 q 742 682 753 672 q 717 698 732 693 q 683 703 703 703 q 636 696 661 703 q 583 675 611 689 q 530 640 557 661 q 475 594 503 619 q 432 545 451 569 q 397 497 413 521 q 376 456 383 475 q 368 422 368 438 q 372 402 368 411 q 381 386 375 393 q 397 377 388 381 q 418 374 407 374 q 472 390 443 374 q 532 438 500 406 q 593 514 564 471 q 647 608 622 557 l 667 601 q 619 498 647 544 q 553 415 590 451 q 479 361 515 379 q 408 343 443 343 q 376 349 390 343 q 350 364 361 354 q 334 389 340 375 q 328 421 328 403 q 335 468 328 444 q 356 518 342 492 q 389 569 369 544 q 433 615 408 593 q 494 665 463 643 q 560 703 525 688 q 624 727 593 719 q 683 735 656 735 q 729 728 708 735 q 764 707 750 722 q 786 674 779 693 q 793 631 793 654 q 781 555 793 597 q 740 461 768 513 q 679 359 714 410 q 600 258 644 308 q 481 140 540 192 q 361 53 422 89 q 246 -1 301 17 q 139 -18 190 -18 q 66 -7 99 -18 q 10 26 33 4 q -24 81 -12 50 q -35 151 -35 113 q -15 276 -35 211 q 47 408 6 340 q 147 542 89 478 q 278 664 206 606 q 412 762 344 719 q 547 835 479 804 q 675 880 615 865 q 786 894 735 894 q 858 887 826 894 q 911 864 889 879 q 945 826 935 847 q 956 778 956 806 q 948 732 956 754 q 925 690 940 710 q 889 653 911 669 q 839 624 867 636 l 839 625 m 990 1090 q 1003 1086 997 1089 q 1015 1076 1010 1083 q 1023 1064 1021 1071 q 1025 1050 1025 1057 q 1020 1028 1025 1039 q 1006 1008 1015 1018 q 984 994 996 999 q 960 989 972 989 q 947 992 953 989 q 935 1000 940 994 q 927 1013 929 1006 q 925 1026 925 1019 q 930 1048 925 1038 q 944 1068 935 1058 q 967 1084 956 1079 q 990 1089 978 1089 l 990 1090 m 799 1090 q 812 1086 806 1089 q 824 1076 818 1083 q 832 1064 829 1071 q 835 1050 835 1057 q 830 1028 835 1039 q 814 1008 825 1018 q 793 994 804 999 q 768 989 782 989 q 755 992 761 989 q 743 1000 749 994 q 735 1013 738 1006 q 732 1026 732 1019 q 738 1048 732 1038 q 753 1068 743 1058 q 775 1084 764 1079 q 799 1089 786 1089 l 799 1090 z "},"":{"ha":1014,"x_min":51,"x_max":1128,"o":"m 533 575 l 203 185 q 163 135 179 156 q 136 99 146 114 q 123 73 128 85 q 118 53 118 61 q 121 37 118 43 q 129 26 124 31 q 144 19 136 21 q 161 17 151 17 q 206 26 181 17 q 263 56 231 36 q 331 103 296 75 q 406 165 367 131 q 519 272 467 221 q 615 369 572 322 q 700 463 660 417 q 778 557 740 510 l 1039 896 l 1128 896 l 556 149 l 546 136 q 506 77 519 100 q 492 44 492 54 q 494 33 492 39 q 499 25 496 28 q 508 21 503 22 q 521 19 514 19 q 567 31 539 19 q 635 64 596 42 q 718 119 674 88 q 813 192 763 150 l 833 174 q 735 95 782 129 q 646 38 688 61 q 569 3 603 14 q 513 -7 536 -7 q 483 -3 496 -7 q 463 6 471 0 q 450 26 454 14 q 446 56 446 39 q 450 85 446 69 q 463 118 454 100 q 492 170 472 138 q 542 250 511 203 q 398 122 460 174 q 296 42 336 69 q 220 3 256 15 q 153 -8 185 -8 q 121 -4 135 -8 q 96 10 107 0 q 81 35 86 21 q 75 68 75 50 q 82 113 75 90 q 103 163 89 136 q 147 226 118 189 q 218 314 175 264 l 488 632 q 531 684 513 660 q 558 726 549 708 q 574 764 569 746 q 579 797 579 782 q 571 833 579 817 q 546 860 563 849 q 505 877 528 871 q 453 883 482 883 q 321 862 385 883 q 200 796 257 840 q 113 707 142 753 q 85 614 85 661 q 90 581 85 596 q 104 556 94 567 q 129 540 115 546 q 161 535 143 535 q 247 555 206 535 q 326 615 288 575 q 391 708 365 656 q 429 824 417 760 l 451 819 q 421 701 446 756 q 351 597 396 646 q 258 526 306 550 q 160 501 210 501 q 115 510 135 501 q 81 532 96 518 q 59 567 67 547 q 51 611 51 588 q 52 628 51 619 q 54 644 53 636 q 65 678 58 661 q 81 711 71 694 q 117 760 96 738 q 165 806 139 783 q 230 849 196 829 q 303 882 264 868 q 378 902 340 896 q 454 908 415 908 q 527 899 494 908 q 583 871 560 890 q 621 826 608 851 q 633 769 633 801 q 626 728 633 750 q 607 681 619 706 q 576 628 594 656 q 533 574 557 601 l 533 575 m 1039 1090 q 1051 1086 1046 1089 q 1063 1076 1057 1083 q 1070 1064 1068 1071 q 1072 1050 1072 1057 q 1068 1028 1072 1039 q 1053 1008 1064 1018 q 1032 994 1043 999 q 1008 989 1021 989 q 994 992 1000 989 q 982 1000 988 994 q 974 1013 976 1006 q 972 1026 972 1019 q 978 1048 972 1038 q 993 1068 983 1058 q 1015 1084 1004 1079 q 1039 1089 1026 1089 l 1039 1090 m 846 1090 q 860 1086 854 1089 q 871 1076 867 1083 q 879 1064 876 1071 q 882 1050 882 1057 q 877 1028 882 1039 q 861 1008 872 1018 q 840 994 851 999 q 815 989 829 989 q 802 992 808 989 q 790 1000 796 994 q 783 1013 785 1006 q 781 1026 781 1019 q 785 1048 781 1038 q 800 1068 790 1058 q 822 1084 811 1079 q 846 1089 833 1089 l 846 1090 z "},"":{"ha":586,"x_min":-237,"x_max":454,"o":"m 232 351 l 269 404 l 344 404 l 115 97 l 114 94 q 91 58 99 72 q 83 36 83 43 q 85 27 83 31 q 88 21 86 24 q 95 18 90 19 q 106 17 100 17 q 140 27 118 17 q 194 60 163 38 q 267 115 226 83 q 354 188 307 146 l 372 169 q 285 92 326 125 q 208 35 244 58 q 146 2 174 13 q 99 -8 118 -8 q 76 -6 86 -8 q 58 3 67 -3 q 48 20 51 10 q 44 43 44 31 q 46 57 44 50 q 49 72 47 64 q 54 90 51 81 q 60 111 57 100 q 19 74 39 92 q -22 43 -1 57 q -44 30 -33 36 q -64 18 -54 24 q -120 -3 -94 4 q -168 -11 -146 -11 q -197 -7 -185 -11 q -219 4 -210 -3 q -233 26 -229 14 q -237 56 -237 39 q -226 119 -237 86 q -190 189 -214 153 q -135 258 -168 225 q -62 321 -103 290 q -2 363 -32 344 q 60 394 28 381 q 119 415 92 408 q 171 422 147 422 q 198 418 186 422 q 217 407 210 414 q 228 390 225 400 q 232 364 232 379 l 232 351 l 232 351 m 171 393 q 130 382 153 392 q 79 353 107 372 q 20 308 50 335 q -40 250 -10 282 q -104 181 -76 214 q -151 121 -132 149 q -181 72 -171 93 q -192 36 -192 51 q -190 26 -192 31 q -185 19 -187 22 q -176 15 -181 17 q -164 14 -171 14 q -117 24 -143 14 q -60 53 -92 33 q 3 100 -29 72 q 68 163 35 128 q 126 225 101 196 q 169 281 151 254 q 196 327 188 307 q 204 361 204 347 q 202 374 204 368 q 196 383 200 379 q 185 390 192 388 q 171 392 179 392 l 171 393 m 418 589 l 231 481 l 201 481 l 382 640 q 394 649 389 644 q 404 656 399 653 q 415 660 410 658 q 425 661 419 661 q 435 659 431 661 q 444 651 440 657 q 452 643 450 647 q 454 633 454 639 q 452 620 454 626 q 446 610 450 614 q 436 599 443 604 q 418 588 429 594 l 418 589 z "},"":{"ha":586,"x_min":-237,"x_max":374,"o":"m 232 351 l 269 404 l 344 404 l 115 97 l 114 94 q 91 58 99 72 q 83 36 83 43 q 85 27 83 31 q 88 21 86 24 q 95 18 90 19 q 106 17 100 17 q 140 27 118 17 q 194 60 163 38 q 267 115 226 83 q 354 188 307 146 l 372 169 q 285 92 326 125 q 208 35 244 58 q 146 2 174 13 q 99 -8 118 -8 q 76 -6 86 -8 q 58 3 67 -3 q 48 20 51 10 q 44 43 44 31 q 46 57 44 50 q 49 72 47 64 q 54 90 51 81 q 60 111 57 100 q 19 74 39 92 q -22 43 -1 57 q -44 30 -33 36 q -64 18 -54 24 q -120 -3 -94 4 q -168 -11 -146 -11 q -197 -7 -185 -11 q -219 4 -210 -3 q -233 26 -229 14 q -237 56 -237 39 q -226 119 -237 86 q -190 189 -214 153 q -135 258 -168 225 q -62 321 -103 290 q -2 363 -32 344 q 60 394 28 381 q 119 415 92 408 q 171 422 147 422 q 198 418 186 422 q 217 407 210 414 q 228 390 225 400 q 232 364 232 379 l 232 351 l 232 351 m 171 393 q 130 382 153 392 q 79 353 107 372 q 20 308 50 335 q -40 250 -10 282 q -104 181 -76 214 q -151 121 -132 149 q -181 72 -171 93 q -192 36 -192 51 q -190 26 -192 31 q -185 19 -187 22 q -176 15 -181 17 q -164 14 -171 14 q -117 24 -143 14 q -60 53 -92 33 q 3 100 -29 72 q 68 163 35 128 q 126 225 101 196 q 169 281 151 254 q 196 327 188 307 q 204 361 204 347 q 202 374 204 368 q 196 383 200 379 q 185 390 192 388 q 171 392 179 392 l 171 393 m 228 639 l 374 481 l 347 481 l 185 594 q 170 605 176 600 q 161 614 164 610 q 156 621 158 617 q 154 631 154 625 q 154 634 154 632 q 156 638 154 636 q 159 645 157 642 q 164 651 161 649 q 174 660 169 657 q 185 663 179 663 q 195 661 190 663 q 206 657 200 660 q 216 649 210 654 q 228 638 222 644 l 228 639 z "},"":{"ha":586,"x_min":-237,"x_max":419,"o":"m 232 351 l 269 404 l 344 404 l 115 97 l 114 94 q 91 58 99 72 q 83 36 83 43 q 85 27 83 31 q 88 21 86 24 q 95 18 90 19 q 106 17 100 17 q 140 27 118 17 q 194 60 163 38 q 267 115 226 83 q 354 188 307 146 l 372 169 q 285 92 326 125 q 208 35 244 58 q 146 2 174 13 q 99 -8 118 -8 q 76 -6 86 -8 q 58 3 67 -3 q 48 20 51 10 q 44 43 44 31 q 46 57 44 50 q 49 72 47 64 q 54 90 51 81 q 60 111 57 100 q 19 74 39 92 q -22 43 -1 57 q -44 30 -33 36 q -64 18 -54 24 q -120 -3 -94 4 q -168 -11 -146 -11 q -197 -7 -185 -11 q -219 4 -210 -3 q -233 26 -229 14 q -237 56 -237 39 q -226 119 -237 86 q -190 189 -214 153 q -135 258 -168 225 q -62 321 -103 290 q -2 363 -32 344 q 60 394 28 381 q 119 415 92 408 q 171 422 147 422 q 198 418 186 422 q 217 407 210 414 q 228 390 225 400 q 232 364 232 379 l 232 351 l 232 351 m 171 393 q 130 382 153 392 q 79 353 107 372 q 20 308 50 335 q -40 250 -10 282 q -104 181 -76 214 q -151 121 -132 149 q -181 72 -171 93 q -192 36 -192 51 q -190 26 -192 31 q -185 19 -187 22 q -176 15 -181 17 q -164 14 -171 14 q -117 24 -143 14 q -60 53 -92 33 q 3 100 -29 72 q 68 163 35 128 q 126 225 101 196 q 169 281 151 254 q 196 327 188 307 q 204 361 204 347 q 202 374 204 368 q 196 383 200 379 q 185 390 192 388 q 171 392 179 392 l 171 393 m 283 658 l 347 658 l 419 481 l 382 481 l 296 601 l 110 481 l 74 481 l 283 658 l 283 658 z "},"":{"ha":586,"x_min":-237,"x_max":446,"o":"m 232 351 l 269 404 l 344 404 l 115 97 l 114 94 q 91 58 99 72 q 83 36 83 43 q 85 27 83 31 q 88 21 86 24 q 95 18 90 19 q 106 17 100 17 q 140 27 118 17 q 194 60 163 38 q 267 115 226 83 q 354 188 307 146 l 372 169 q 285 92 326 125 q 208 35 244 58 q 146 2 174 13 q 99 -8 118 -8 q 76 -6 86 -8 q 58 3 67 -3 q 48 20 51 10 q 44 43 44 31 q 46 57 44 50 q 49 72 47 64 q 54 90 51 81 q 60 111 57 100 q 19 74 39 92 q -22 43 -1 57 q -44 30 -33 36 q -64 18 -54 24 q -120 -3 -94 4 q -168 -11 -146 -11 q -197 -7 -185 -11 q -219 4 -210 -3 q -233 26 -229 14 q -237 56 -237 39 q -226 119 -237 86 q -190 189 -214 153 q -135 258 -168 225 q -62 321 -103 290 q -2 363 -32 344 q 60 394 28 381 q 119 415 92 408 q 171 422 147 422 q 198 418 186 422 q 217 407 210 414 q 228 390 225 400 q 232 364 232 379 l 232 351 l 232 351 m 171 393 q 130 382 153 392 q 79 353 107 372 q 20 308 50 335 q -40 250 -10 282 q -104 181 -76 214 q -151 121 -132 149 q -181 72 -171 93 q -192 36 -192 51 q -190 26 -192 31 q -185 19 -187 22 q -176 15 -181 17 q -164 14 -171 14 q -117 24 -143 14 q -60 53 -92 33 q 3 100 -29 72 q 68 163 35 128 q 126 225 101 196 q 169 281 151 254 q 196 327 188 307 q 204 361 204 347 q 202 374 204 368 q 196 383 200 379 q 185 390 192 388 q 171 392 179 392 l 171 393 m 411 604 q 424 600 418 603 q 436 590 431 597 q 444 578 442 585 q 446 564 446 571 q 441 542 446 553 q 426 522 436 532 q 405 508 417 513 q 381 503 393 503 q 367 506 374 503 q 356 514 361 508 q 348 526 350 519 q 346 540 346 532 q 351 562 346 551 q 365 582 356 572 q 388 598 376 593 q 411 603 399 603 l 411 604 m 219 604 q 233 600 226 603 q 244 590 239 597 q 253 578 250 585 q 256 564 256 571 q 251 542 256 553 q 235 522 246 532 q 214 508 225 513 q 189 503 203 503 q 176 506 182 503 q 164 514 169 508 q 156 526 158 519 q 153 540 153 532 q 158 562 153 551 q 174 582 164 572 q 196 598 185 593 q 219 603 207 603 l 219 604 z "},"":{"ha":586,"x_min":-237,"x_max":446,"o":"m 232 351 l 269 404 l 344 404 l 115 97 l 114 94 q 91 58 99 72 q 83 36 83 43 q 85 27 83 31 q 88 21 86 24 q 95 18 90 19 q 106 17 100 17 q 140 27 118 17 q 194 60 163 38 q 267 115 226 83 q 354 188 307 146 l 372 169 q 285 92 326 125 q 208 35 244 58 q 146 2 174 13 q 99 -8 118 -8 q 76 -6 86 -8 q 58 3 67 -3 q 48 20 51 10 q 44 43 44 31 q 46 57 44 50 q 49 72 47 64 q 54 90 51 81 q 60 111 57 100 q 19 74 39 92 q -22 43 -1 57 q -44 30 -33 36 q -64 18 -54 24 q -120 -3 -94 4 q -168 -11 -146 -11 q -197 -7 -185 -11 q -219 4 -210 -3 q -233 26 -229 14 q -237 56 -237 39 q -226 119 -237 86 q -190 189 -214 153 q -135 258 -168 225 q -62 321 -103 290 q -2 363 -32 344 q 60 394 28 381 q 119 415 92 408 q 171 422 147 422 q 198 418 186 422 q 217 407 210 414 q 228 390 225 400 q 232 364 232 379 l 232 351 l 232 351 m 171 393 q 130 382 153 392 q 79 353 107 372 q 20 308 50 335 q -40 250 -10 282 q -104 181 -76 214 q -151 121 -132 149 q -181 72 -171 93 q -192 36 -192 51 q -190 26 -192 31 q -185 19 -187 22 q -176 15 -181 17 q -164 14 -171 14 q -117 24 -143 14 q -60 53 -92 33 q 3 100 -29 72 q 68 163 35 128 q 126 225 101 196 q 169 281 151 254 q 196 327 188 307 q 204 361 204 347 q 202 374 204 368 q 196 383 200 379 q 185 390 192 388 q 171 392 179 392 l 171 393 m 421 640 l 446 640 q 428 588 439 610 q 404 553 418 567 q 373 531 390 539 q 335 524 356 524 q 332 524 333 524 q 329 525 331 524 q 326 525 328 525 q 322 525 325 525 q 313 527 318 526 q 300 529 307 528 l 244 546 q 239 545 242 544 q 233 547 236 546 q 228 548 231 547 q 222 549 225 549 q 213 550 217 550 q 204 550 208 550 q 180 547 190 550 q 161 538 169 544 q 147 521 153 532 q 139 494 142 510 l 114 496 q 131 547 121 525 q 154 582 140 568 q 185 603 168 597 q 224 610 203 610 q 233 610 228 610 q 243 608 238 610 q 256 606 250 607 q 269 603 263 606 l 324 589 q 328 587 326 588 q 332 586 329 586 q 335 585 333 586 q 339 585 338 585 q 343 585 342 585 q 347 585 344 585 q 351 583 349 583 q 354 583 353 583 q 378 588 368 583 q 397 597 389 592 q 412 615 406 604 q 421 639 418 625 l 421 640 z "},"":{"ha":586,"x_min":-237,"x_max":372,"o":"m 239 694 q 287 684 265 693 q 326 657 308 675 q 353 617 344 639 q 363 569 363 594 q 353 522 363 543 q 326 482 344 500 q 287 456 308 464 q 239 447 265 447 q 191 456 213 447 q 151 482 169 464 q 124 522 133 500 q 115 569 115 543 q 124 617 115 594 q 151 657 133 639 q 192 684 171 675 q 239 693 214 693 l 239 694 m 239 656 q 207 648 222 654 q 179 629 192 642 q 160 601 167 617 q 154 569 154 586 q 160 536 154 551 q 179 510 167 521 q 207 492 192 497 q 239 486 222 486 q 272 492 257 486 q 299 510 288 497 q 317 536 311 521 q 322 569 322 551 q 317 601 322 586 q 299 628 311 615 q 272 647 286 640 q 239 654 257 653 l 239 656 m 232 351 l 269 404 l 344 404 l 115 97 l 114 94 q 91 58 99 72 q 83 36 83 43 q 85 27 83 31 q 88 21 86 24 q 95 18 90 19 q 106 17 100 17 q 140 27 118 17 q 194 60 163 38 q 267 115 226 83 q 354 188 307 146 l 372 169 q 285 92 326 125 q 208 35 244 58 q 146 2 174 13 q 99 -8 118 -8 q 76 -6 86 -8 q 58 3 67 -3 q 48 20 51 10 q 44 43 44 31 q 46 57 44 50 q 49 72 47 64 q 54 90 51 81 q 60 111 57 100 q 19 74 39 92 q -22 43 -1 57 q -44 30 -33 36 q -64 18 -54 24 q -120 -3 -94 4 q -168 -11 -146 -11 q -197 -7 -185 -11 q -219 4 -210 -3 q -233 26 -229 14 q -237 56 -237 39 q -226 119 -237 86 q -190 189 -214 153 q -135 258 -168 225 q -62 321 -103 290 q -2 363 -32 344 q 60 394 28 381 q 119 415 92 408 q 171 422 147 422 q 198 418 186 422 q 217 407 210 414 q 228 390 225 400 q 232 364 232 379 l 232 351 l 232 351 m 171 393 q 130 382 153 392 q 79 353 107 372 q 20 308 50 335 q -40 250 -10 282 q -104 181 -76 214 q -151 121 -132 149 q -181 72 -171 93 q -192 36 -192 51 q -190 26 -192 31 q -185 19 -187 22 q -176 15 -181 17 q -164 14 -171 14 q -117 24 -143 14 q -60 53 -92 33 q 3 100 -29 72 q 68 163 35 128 q 126 225 101 196 q 169 281 151 254 q 196 327 188 307 q 204 361 204 347 q 202 374 204 368 q 196 383 200 379 q 185 390 192 388 q 171 392 179 392 l 171 393 z "},"":{"ha":431,"x_min":-333,"x_max":231,"o":"m 189 211 l 204 193 q 95 101 147 140 q -1 33 43 61 q -86 -6 -49 7 q -154 -18 -124 -18 q -189 -13 -174 -18 q -214 0 -204 -8 q -229 25 -225 11 q -233 57 -233 39 q -224 115 -233 85 q -196 178 -215 144 q -151 243 -178 213 q -93 300 -125 274 q -30 350 -62 328 q 38 389 3 372 q 103 414 74 406 q 157 422 133 422 q 188 418 174 422 q 211 406 201 414 q 226 387 222 397 q 231 364 231 376 q 225 335 231 349 q 207 308 219 321 q 183 290 196 296 q 154 283 169 283 q 141 285 147 283 q 131 290 135 286 q 124 300 126 294 q 121 313 121 306 q 123 323 121 318 q 129 332 125 328 q 137 340 132 336 q 147 346 142 344 q 154 347 150 346 q 164 349 158 347 q 190 357 181 351 q 199 371 199 363 q 197 379 199 375 q 190 386 194 383 q 183 391 188 389 q 171 393 178 393 q 122 381 150 393 q 57 343 93 368 q 10 306 33 326 q -36 264 -12 286 q -60 240 -49 251 q -83 214 -72 228 q -128 162 -108 188 q -162 113 -149 136 q -185 72 -178 89 q -193 44 -193 56 q -190 28 -193 35 q -181 17 -187 21 q -167 10 -175 13 q -147 7 -158 7 q -89 21 -124 7 q -10 61 -54 35 q 83 126 33 89 q 189 210 133 163 l 189 211 m -154 -6 l -119 -6 l -168 -79 q -164 -79 -165 -79 q -161 -79 -162 -79 q -158 -78 -160 -78 q -153 -78 -156 -78 q -146 -78 -149 -78 q -142 -78 -143 -78 q -93 -83 -114 -78 q -57 -97 -72 -87 q -35 -123 -43 -108 q -28 -156 -28 -137 q -37 -203 -28 -182 q -67 -237 -47 -224 q -112 -260 -86 -253 q -174 -268 -139 -268 q -209 -266 -190 -268 q -247 -257 -228 -264 q -290 -244 -268 -251 q -333 -225 -311 -236 l -322 -196 q -280 -212 -299 -206 q -243 -225 -261 -219 q -210 -231 -225 -229 q -179 -233 -194 -233 q -142 -229 -158 -233 q -115 -217 -126 -225 q -99 -194 -104 -207 q -93 -167 -93 -182 q -98 -142 -93 -153 q -112 -125 -103 -132 q -135 -115 -122 -118 q -167 -111 -149 -111 q -178 -111 -172 -111 q -193 -112 -185 -111 q -208 -113 -200 -112 q -225 -115 -215 -114 l -154 -6 l -154 -6 z "},"":{"ha":440,"x_min":-253,"x_max":381,"o":"m -139 172 q -167 132 -154 150 q -190 97 -181 114 q -204 68 -200 81 q -208 46 -208 56 q -206 31 -208 38 q -196 21 -203 25 q -181 13 -190 15 q -161 11 -172 11 q -97 22 -133 11 q -17 56 -61 33 q 71 110 25 79 q 167 179 117 140 l 179 160 q 79 83 128 115 q -14 26 31 50 q -100 -8 -61 4 q -169 -19 -139 -19 q -203 -15 -189 -19 q -229 0 -218 -10 q -247 23 -240 10 q -253 54 -253 36 q -242 116 -253 85 q -211 181 -232 147 q -161 246 -190 213 q -92 313 -132 279 q -30 358 -61 338 q 33 392 1 378 q 96 415 67 407 q 150 422 125 422 q 176 419 165 422 q 192 413 186 417 q 202 400 199 407 q 206 382 206 393 q 182 329 206 357 q 110 269 158 301 q 0 215 61 239 q -137 171 -61 190 l -139 172 m -108 208 q 1 244 -47 222 q 92 292 50 265 q 153 340 133 319 q 174 378 174 361 q 172 385 174 382 q 168 390 171 389 q 159 394 164 393 q 147 396 154 396 q 100 383 128 396 q 38 346 72 371 q -32 286 4 321 q -107 207 -68 251 l -108 208 m 346 589 l 157 481 l 129 481 l 310 640 q 320 649 315 644 q 331 656 325 653 q 341 660 336 658 q 351 661 346 661 q 362 659 357 661 q 372 651 367 657 q 378 643 376 647 q 381 633 381 639 q 378 620 381 626 q 374 610 376 614 q 363 599 369 604 q 346 588 356 594 l 346 589 z "},"":{"ha":440,"x_min":-253,"x_max":300,"o":"m -139 172 q -167 132 -154 150 q -190 97 -181 114 q -204 68 -200 81 q -208 46 -208 56 q -206 31 -208 38 q -196 21 -203 25 q -181 13 -190 15 q -161 11 -172 11 q -97 22 -133 11 q -17 56 -61 33 q 71 110 25 79 q 167 179 117 140 l 179 160 q 79 83 128 115 q -14 26 31 50 q -100 -8 -61 4 q -169 -19 -139 -19 q -203 -15 -189 -19 q -229 0 -218 -10 q -247 23 -240 10 q -253 54 -253 36 q -242 116 -253 85 q -211 181 -232 147 q -161 246 -190 213 q -92 313 -132 279 q -30 358 -61 338 q 33 392 1 378 q 96 415 67 407 q 150 422 125 422 q 176 419 165 422 q 192 413 186 417 q 202 400 199 407 q 206 382 206 393 q 182 329 206 357 q 110 269 158 301 q 0 215 61 239 q -137 171 -61 190 l -139 172 m -108 208 q 1 244 -47 222 q 92 292 50 265 q 153 340 133 319 q 174 378 174 361 q 172 385 174 382 q 168 390 171 389 q 159 394 164 393 q 147 396 154 396 q 100 383 128 396 q 38 346 72 371 q -32 286 4 321 q -107 207 -68 251 l -108 208 m 154 639 l 300 481 l 274 481 l 113 594 q 97 605 103 600 q 88 614 90 610 q 83 621 85 617 q 82 631 82 625 q 82 634 82 632 q 83 638 82 636 q 85 645 83 642 q 90 651 88 649 q 101 660 96 657 q 113 663 107 663 q 123 661 118 663 q 132 657 128 660 q 143 649 138 654 q 154 638 149 644 l 154 639 z "},"":{"ha":440,"x_min":-253,"x_max":347,"o":"m -139 172 q -167 132 -154 150 q -190 97 -181 114 q -204 68 -200 81 q -208 46 -208 56 q -206 31 -208 38 q -196 21 -203 25 q -181 13 -190 15 q -161 11 -172 11 q -97 22 -133 11 q -17 56 -61 33 q 71 110 25 79 q 167 179 117 140 l 179 160 q 79 83 128 115 q -14 26 31 50 q -100 -8 -61 4 q -169 -19 -139 -19 q -203 -15 -189 -19 q -229 0 -218 -10 q -247 23 -240 10 q -253 54 -253 36 q -242 116 -253 85 q -211 181 -232 147 q -161 246 -190 213 q -92 313 -132 279 q -30 358 -61 338 q 33 392 1 378 q 96 415 67 407 q 150 422 125 422 q 176 419 165 422 q 192 413 186 417 q 202 400 199 407 q 206 382 206 393 q 182 329 206 357 q 110 269 158 301 q 0 215 61 239 q -137 171 -61 190 l -139 172 m -108 208 q 1 244 -47 222 q 92 292 50 265 q 153 340 133 319 q 174 378 174 361 q 172 385 174 382 q 168 390 171 389 q 159 394 164 393 q 147 396 154 396 q 100 383 128 396 q 38 346 72 371 q -32 286 4 321 q -107 207 -68 251 l -108 208 m 210 658 l 274 658 l 347 481 l 310 481 l 224 601 l 36 481 l 0 481 l 210 658 l 210 658 z "},"":{"ha":440,"x_min":-253,"x_max":374,"o":"m -139 172 q -167 132 -154 150 q -190 97 -181 114 q -204 68 -200 81 q -208 46 -208 56 q -206 31 -208 38 q -196 21 -203 25 q -181 13 -190 15 q -161 11 -172 11 q -97 22 -133 11 q -17 56 -61 33 q 71 110 25 79 q 167 179 117 140 l 179 160 q 79 83 128 115 q -14 26 31 50 q -100 -8 -61 4 q -169 -19 -139 -19 q -203 -15 -189 -19 q -229 0 -218 -10 q -247 23 -240 10 q -253 54 -253 36 q -242 116 -253 85 q -211 181 -232 147 q -161 246 -190 213 q -92 313 -132 279 q -30 358 -61 338 q 33 392 1 378 q 96 415 67 407 q 150 422 125 422 q 176 419 165 422 q 192 413 186 417 q 202 400 199 407 q 206 382 206 393 q 182 329 206 357 q 110 269 158 301 q 0 215 61 239 q -137 171 -61 190 l -139 172 m -108 208 q 1 244 -47 222 q 92 292 50 265 q 153 340 133 319 q 174 378 174 361 q 172 385 174 382 q 168 390 171 389 q 159 394 164 393 q 147 396 154 396 q 100 383 128 396 q 38 346 72 371 q -32 286 4 321 q -107 207 -68 251 l -108 208 m 339 604 q 351 600 346 603 q 363 590 357 597 q 371 578 368 585 q 374 564 374 571 q 369 542 374 553 q 353 522 364 532 q 332 508 343 513 q 308 503 321 503 q 294 506 301 503 q 282 514 288 508 q 274 526 276 519 q 272 540 272 532 q 278 562 272 551 q 293 582 283 572 q 315 598 304 593 q 339 603 326 603 l 339 604 m 146 604 q 160 600 154 603 q 172 590 167 597 q 179 578 176 585 q 182 564 182 571 q 177 542 182 553 q 161 522 172 532 q 140 508 151 513 q 115 503 129 503 q 102 506 108 503 q 90 514 96 508 q 83 526 85 519 q 81 540 81 532 q 85 562 81 551 q 100 582 90 572 q 122 598 111 593 q 146 603 133 603 l 146 604 z "},"":{"ha":329,"x_min":-224,"x_max":325,"o":"m 1 404 l 76 404 l -140 115 q -160 83 -151 96 q -175 60 -169 71 q -183 43 -181 50 q -185 29 -185 36 q -183 22 -185 25 q -179 15 -182 18 q -173 12 -176 14 q -164 10 -169 10 q -128 20 -150 10 q -75 53 -106 31 q -10 104 -46 74 q 69 175 26 135 l 90 160 q 4 80 43 114 q -68 24 -35 46 q -128 -9 -101 1 q -172 -19 -154 -19 q -193 -15 -183 -19 q -210 -3 -203 -11 q -220 13 -217 3 q -224 38 -224 24 q -219 76 -224 57 q -204 114 -214 94 q -178 161 -194 135 q -137 219 -161 188 l 1 404 l 1 404 m 289 589 l 101 481 l 74 481 l 254 640 q 265 649 260 644 q 275 656 269 653 q 285 660 281 658 q 296 661 290 661 q 306 659 301 661 q 317 651 311 657 q 323 643 321 647 q 325 633 325 639 q 323 620 325 626 q 318 610 321 614 q 307 599 314 604 q 289 588 300 594 l 289 589 z "},"":{"ha":329,"x_min":-224,"x_max":244,"o":"m 1 404 l 76 404 l -140 115 q -160 83 -151 96 q -175 60 -169 71 q -183 43 -181 50 q -185 29 -185 36 q -183 22 -185 25 q -179 15 -182 18 q -173 12 -176 14 q -164 10 -169 10 q -128 20 -150 10 q -75 53 -106 31 q -10 104 -46 74 q 69 175 26 135 l 90 160 q 4 80 43 114 q -68 24 -35 46 q -128 -9 -101 1 q -172 -19 -154 -19 q -193 -15 -183 -19 q -210 -3 -203 -11 q -220 13 -217 3 q -224 38 -224 24 q -219 76 -224 57 q -204 114 -214 94 q -178 161 -194 135 q -137 219 -161 188 l 1 404 l 1 404 m 99 639 l 244 481 l 218 481 l 57 594 q 41 605 47 600 q 32 614 35 610 q 28 621 29 617 q 26 631 26 625 q 26 634 26 632 q 28 638 26 636 q 30 645 28 642 q 35 651 32 649 q 46 660 40 657 q 57 663 51 663 q 67 661 63 663 q 76 657 72 660 q 88 649 82 654 q 99 638 93 644 l 99 639 z "},"":{"ha":329,"x_min":-224,"x_max":290,"o":"m 1 404 l 76 404 l -140 115 q -160 83 -151 96 q -175 60 -169 71 q -183 43 -181 50 q -185 29 -185 36 q -183 22 -185 25 q -179 15 -182 18 q -173 12 -176 14 q -164 10 -169 10 q -128 20 -150 10 q -75 53 -106 31 q -10 104 -46 74 q 69 175 26 135 l 90 160 q 4 80 43 114 q -68 24 -35 46 q -128 -9 -101 1 q -172 -19 -154 -19 q -193 -15 -183 -19 q -210 -3 -203 -11 q -220 13 -217 3 q -224 38 -224 24 q -219 76 -224 57 q -204 114 -214 94 q -178 161 -194 135 q -137 219 -161 188 l 1 404 l 1 404 m 154 658 l 218 658 l 290 481 l 254 481 l 168 601 l -18 481 l -54 481 l 154 658 l 154 658 z "},"":{"ha":329,"x_min":-224,"x_max":318,"o":"m 1 404 l 76 404 l -140 115 q -160 83 -151 96 q -175 60 -169 71 q -183 43 -181 50 q -185 29 -185 36 q -183 22 -185 25 q -179 15 -182 18 q -173 12 -176 14 q -164 10 -169 10 q -128 20 -150 10 q -75 53 -106 31 q -10 104 -46 74 q 69 175 26 135 l 90 160 q 4 80 43 114 q -68 24 -35 46 q -128 -9 -101 1 q -172 -19 -154 -19 q -193 -15 -183 -19 q -210 -3 -203 -11 q -220 13 -217 3 q -224 38 -224 24 q -219 76 -224 57 q -204 114 -214 94 q -178 161 -194 135 q -137 219 -161 188 l 1 404 l 1 404 m 283 604 q 296 600 290 603 q 307 590 301 597 q 315 578 313 585 q 318 564 318 571 q 313 542 318 553 q 297 522 308 532 q 276 508 288 513 q 253 503 265 503 q 238 506 244 503 q 226 514 232 508 q 219 526 221 519 q 217 540 217 532 q 222 562 217 551 q 238 582 228 572 q 260 598 249 593 q 283 603 271 603 l 283 604 m 90 604 q 105 600 99 603 q 115 590 111 597 q 124 578 121 585 q 126 564 126 571 q 122 542 126 553 q 106 522 117 532 q 85 508 96 513 q 60 503 74 503 q 47 506 53 503 q 35 514 40 508 q 27 526 29 519 q 25 540 25 532 q 30 562 25 551 q 44 582 35 572 q 67 598 56 593 q 90 603 78 603 l 90 604 z "},"":{"ha":563,"x_min":-322,"x_max":433,"o":"m 206 243 l 82 94 q 61 69 69 79 q 49 53 53 60 q 42 42 44 47 q 40 31 40 36 q 42 25 40 28 q 46 19 44 22 q 53 17 49 18 q 61 15 57 15 q 105 27 78 15 q 167 61 132 39 q 244 116 203 85 q 331 189 285 147 l 347 171 q 259 92 301 126 q 176 33 217 57 q 106 -2 138 8 q 50 -12 74 -12 q 30 -9 39 -12 q 14 0 21 -6 q 4 18 8 7 q 0 43 0 29 q 5 73 0 57 q 18 107 10 89 q 40 144 28 126 q 67 179 51 161 l 194 328 q 207 343 201 335 q 217 357 213 351 q 223 368 221 364 q 225 375 225 372 q 224 383 225 379 q 219 389 222 386 q 213 392 217 392 q 203 393 208 393 q 120 365 169 393 q 7 283 71 338 q -33 245 -12 265 q -75 203 -54 225 q -159 108 -117 158 q -242 0 -201 57 l -322 0 l -19 404 l 51 404 l -42 276 q 37 338 0 311 q 104 383 74 365 q 163 410 136 401 q 213 419 190 419 q 239 416 228 419 q 257 406 250 413 q 269 391 265 400 q 272 371 272 382 q 268 345 272 360 q 256 314 264 331 q 233 278 246 296 q 206 242 221 261 l 206 243 m 408 640 l 433 640 q 416 588 426 610 q 392 553 406 567 q 361 531 378 539 q 322 524 344 524 q 319 524 321 524 q 317 525 318 524 q 314 525 315 525 q 310 525 313 525 q 301 527 307 526 q 288 529 294 528 l 232 546 q 222 547 226 546 q 210 549 217 547 q 200 550 204 550 q 193 550 196 550 q 168 547 179 550 q 149 538 157 544 q 135 521 142 532 q 126 494 129 510 l 101 496 q 119 547 108 525 q 143 582 129 568 q 174 603 157 597 q 211 610 190 610 q 220 610 215 610 q 231 608 225 610 q 244 606 238 607 q 258 603 251 606 l 311 589 q 315 587 314 588 q 319 586 317 586 q 323 585 321 586 q 326 585 325 585 q 331 585 329 585 q 335 585 333 585 q 340 583 338 583 q 343 583 342 583 q 367 588 356 583 q 386 597 378 592 q 400 615 394 604 q 408 639 406 625 l 408 640 z "},"":{"ha":508,"x_min":-233,"x_max":414,"o":"m 161 206 q 175 197 168 200 q 188 192 182 194 q 195 191 192 192 q 201 190 199 190 q 208 189 204 189 q 215 189 211 189 q 232 190 224 189 q 247 192 240 190 q 263 197 254 194 q 281 204 271 200 l 289 186 q 272 175 281 179 q 251 168 263 171 q 231 165 242 167 q 208 164 221 164 q 192 165 200 164 q 175 168 183 167 q 167 171 171 169 q 160 175 164 172 q 152 178 156 176 q 144 183 149 181 q 94 124 119 151 q 42 72 68 96 q 16 51 29 61 q -8 32 3 42 q -84 -7 -49 6 q -153 -19 -119 -19 q -187 -14 -172 -19 q -211 0 -201 -8 q -228 25 -222 11 q -233 56 -233 39 q -223 115 -233 83 q -192 181 -212 146 q -141 247 -169 215 q -76 308 -112 279 q -23 348 -49 331 q 28 379 3 365 q 41 385 35 382 q 54 392 47 389 q 114 415 86 407 q 167 422 142 422 q 192 418 181 422 q 211 407 203 414 q 224 389 219 399 q 229 367 229 379 q 224 333 229 351 q 211 293 219 314 q 189 250 201 272 q 161 204 176 228 l 161 206 m 196 339 q 196 340 196 339 q 197 342 196 340 q 197 344 197 343 q 197 346 197 344 q 197 349 197 347 q 199 353 197 350 q 199 356 199 354 q 199 358 199 357 q 197 372 199 365 q 190 382 194 378 q 181 388 186 386 q 168 390 175 390 q 128 381 151 390 q 78 353 106 372 q 19 308 49 335 q -44 250 -10 282 q -104 185 -78 215 q -149 128 -131 156 q -178 81 -168 101 q -187 47 -187 61 q -185 31 -187 38 q -175 18 -182 24 q -160 10 -169 13 q -140 7 -151 7 q -84 19 -114 7 q -21 56 -54 32 q 49 118 11 81 q 129 207 86 156 q 128 210 129 208 q 128 214 128 213 q 126 221 126 217 q 125 228 125 225 q 123 235 124 232 q 122 242 122 239 q 124 258 122 250 q 128 272 125 265 q 136 287 132 279 q 146 303 140 294 q 169 328 157 319 q 196 338 182 336 l 196 339 m 378 589 l 190 481 l 163 481 l 343 640 q 353 649 349 644 q 364 656 358 653 q 374 660 369 658 q 385 661 379 661 q 395 659 390 661 q 404 651 400 657 q 412 643 410 647 q 414 633 414 639 q 412 620 414 626 q 406 610 410 614 q 396 599 403 604 q 378 588 389 594 l 378 589 z "},"":{"ha":508,"x_min":-233,"x_max":333,"o":"m 161 206 q 175 197 168 200 q 188 192 182 194 q 195 191 192 192 q 201 190 199 190 q 208 189 204 189 q 215 189 211 189 q 232 190 224 189 q 247 192 240 190 q 263 197 254 194 q 281 204 271 200 l 289 186 q 272 175 281 179 q 251 168 263 171 q 231 165 242 167 q 208 164 221 164 q 192 165 200 164 q 175 168 183 167 q 167 171 171 169 q 160 175 164 172 q 152 178 156 176 q 144 183 149 181 q 94 124 119 151 q 42 72 68 96 q 16 51 29 61 q -8 32 3 42 q -84 -7 -49 6 q -153 -19 -119 -19 q -187 -14 -172 -19 q -211 0 -201 -8 q -228 25 -222 11 q -233 56 -233 39 q -223 115 -233 83 q -192 181 -212 146 q -141 247 -169 215 q -76 308 -112 279 q -23 348 -49 331 q 28 379 3 365 q 41 385 35 382 q 54 392 47 389 q 114 415 86 407 q 167 422 142 422 q 192 418 181 422 q 211 407 203 414 q 224 389 219 399 q 229 367 229 379 q 224 333 229 351 q 211 293 219 314 q 189 250 201 272 q 161 204 176 228 l 161 206 m 196 339 q 196 340 196 339 q 197 342 196 340 q 197 344 197 343 q 197 346 197 344 q 197 349 197 347 q 199 353 197 350 q 199 356 199 354 q 199 358 199 357 q 197 372 199 365 q 190 382 194 378 q 181 388 186 386 q 168 390 175 390 q 128 381 151 390 q 78 353 106 372 q 19 308 49 335 q -44 250 -10 282 q -104 185 -78 215 q -149 128 -131 156 q -178 81 -168 101 q -187 47 -187 61 q -185 31 -187 38 q -175 18 -182 24 q -160 10 -169 13 q -140 7 -151 7 q -84 19 -114 7 q -21 56 -54 32 q 49 118 11 81 q 129 207 86 156 q 128 210 129 208 q 128 214 128 213 q 126 221 126 217 q 125 228 125 225 q 123 235 124 232 q 122 242 122 239 q 124 258 122 250 q 128 272 125 265 q 136 287 132 279 q 146 303 140 294 q 169 328 157 319 q 196 338 182 336 l 196 339 m 188 639 l 333 481 l 307 481 l 144 594 q 130 605 136 600 q 121 614 124 610 q 117 621 118 617 q 115 631 115 625 q 115 634 115 632 q 117 638 115 636 q 119 645 117 642 q 124 651 121 649 q 134 660 129 657 q 144 663 139 663 q 156 661 151 663 q 165 657 161 660 q 176 649 171 654 q 188 638 182 644 l 188 639 z "},"":{"ha":508,"x_min":-233,"x_max":379,"o":"m 161 206 q 175 197 168 200 q 188 192 182 194 q 195 191 192 192 q 201 190 199 190 q 208 189 204 189 q 215 189 211 189 q 232 190 224 189 q 247 192 240 190 q 263 197 254 194 q 281 204 271 200 l 289 186 q 272 175 281 179 q 251 168 263 171 q 231 165 242 167 q 208 164 221 164 q 192 165 200 164 q 175 168 183 167 q 167 171 171 169 q 160 175 164 172 q 152 178 156 176 q 144 183 149 181 q 94 124 119 151 q 42 72 68 96 q 16 51 29 61 q -8 32 3 42 q -84 -7 -49 6 q -153 -19 -119 -19 q -187 -14 -172 -19 q -211 0 -201 -8 q -228 25 -222 11 q -233 56 -233 39 q -223 115 -233 83 q -192 181 -212 146 q -141 247 -169 215 q -76 308 -112 279 q -23 348 -49 331 q 28 379 3 365 q 41 385 35 382 q 54 392 47 389 q 114 415 86 407 q 167 422 142 422 q 192 418 181 422 q 211 407 203 414 q 224 389 219 399 q 229 367 229 379 q 224 333 229 351 q 211 293 219 314 q 189 250 201 272 q 161 204 176 228 l 161 206 m 196 339 q 196 340 196 339 q 197 342 196 340 q 197 344 197 343 q 197 346 197 344 q 197 349 197 347 q 199 353 197 350 q 199 356 199 354 q 199 358 199 357 q 197 372 199 365 q 190 382 194 378 q 181 388 186 386 q 168 390 175 390 q 128 381 151 390 q 78 353 106 372 q 19 308 49 335 q -44 250 -10 282 q -104 185 -78 215 q -149 128 -131 156 q -178 81 -168 101 q -187 47 -187 61 q -185 31 -187 38 q -175 18 -182 24 q -160 10 -169 13 q -140 7 -151 7 q -84 19 -114 7 q -21 56 -54 32 q 49 118 11 81 q 129 207 86 156 q 128 210 129 208 q 128 214 128 213 q 126 221 126 217 q 125 228 125 225 q 123 235 124 232 q 122 242 122 239 q 124 258 122 250 q 128 272 125 265 q 136 287 132 279 q 146 303 140 294 q 169 328 157 319 q 196 338 182 336 l 196 339 m 243 658 l 307 658 l 379 481 l 343 481 l 257 601 l 69 481 l 33 481 l 243 658 l 243 658 z "},"":{"ha":508,"x_min":-233,"x_max":406,"o":"m 161 206 q 175 197 168 200 q 188 192 182 194 q 195 191 192 192 q 201 190 199 190 q 208 189 204 189 q 215 189 211 189 q 232 190 224 189 q 247 192 240 190 q 263 197 254 194 q 281 204 271 200 l 289 186 q 272 175 281 179 q 251 168 263 171 q 231 165 242 167 q 208 164 221 164 q 192 165 200 164 q 175 168 183 167 q 167 171 171 169 q 160 175 164 172 q 152 178 156 176 q 144 183 149 181 q 94 124 119 151 q 42 72 68 96 q 16 51 29 61 q -8 32 3 42 q -84 -7 -49 6 q -153 -19 -119 -19 q -187 -14 -172 -19 q -211 0 -201 -8 q -228 25 -222 11 q -233 56 -233 39 q -223 115 -233 83 q -192 181 -212 146 q -141 247 -169 215 q -76 308 -112 279 q -23 348 -49 331 q 28 379 3 365 q 41 385 35 382 q 54 392 47 389 q 114 415 86 407 q 167 422 142 422 q 192 418 181 422 q 211 407 203 414 q 224 389 219 399 q 229 367 229 379 q 224 333 229 351 q 211 293 219 314 q 189 250 201 272 q 161 204 176 228 l 161 206 m 196 339 q 196 340 196 339 q 197 342 196 340 q 197 344 197 343 q 197 346 197 344 q 197 349 197 347 q 199 353 197 350 q 199 356 199 354 q 199 358 199 357 q 197 372 199 365 q 190 382 194 378 q 181 388 186 386 q 168 390 175 390 q 128 381 151 390 q 78 353 106 372 q 19 308 49 335 q -44 250 -10 282 q -104 185 -78 215 q -149 128 -131 156 q -178 81 -168 101 q -187 47 -187 61 q -185 31 -187 38 q -175 18 -182 24 q -160 10 -169 13 q -140 7 -151 7 q -84 19 -114 7 q -21 56 -54 32 q 49 118 11 81 q 129 207 86 156 q 128 210 129 208 q 128 214 128 213 q 126 221 126 217 q 125 228 125 225 q 123 235 124 232 q 122 242 122 239 q 124 258 122 250 q 128 272 125 265 q 136 287 132 279 q 146 303 140 294 q 169 328 157 319 q 196 338 182 336 l 196 339 m 372 604 q 385 600 379 603 q 396 590 390 597 q 403 578 401 585 q 406 564 406 571 q 401 542 406 553 q 386 522 397 532 q 365 508 376 513 q 342 503 354 503 q 327 506 333 503 q 315 514 321 508 q 308 526 310 519 q 306 540 306 532 q 311 562 306 551 q 326 582 317 572 q 349 598 338 593 q 372 603 360 603 l 372 604 m 179 604 q 194 600 188 603 q 204 590 200 597 q 213 578 210 585 q 215 564 215 571 q 210 542 215 553 q 194 522 206 532 q 174 508 185 513 q 149 503 163 503 q 135 506 142 503 q 124 514 129 508 q 116 526 118 519 q 114 540 114 532 q 119 562 114 551 q 133 582 124 572 q 156 598 144 593 q 179 603 167 603 l 179 604 z "},"":{"ha":508,"x_min":-233,"x_max":406,"o":"m 161 206 q 175 197 168 200 q 188 192 182 194 q 195 191 192 192 q 201 190 199 190 q 208 189 204 189 q 215 189 211 189 q 232 190 224 189 q 247 192 240 190 q 263 197 254 194 q 281 204 271 200 l 289 186 q 272 175 281 179 q 251 168 263 171 q 231 165 242 167 q 208 164 221 164 q 192 165 200 164 q 175 168 183 167 q 167 171 171 169 q 160 175 164 172 q 152 178 156 176 q 144 183 149 181 q 94 124 119 151 q 42 72 68 96 q 16 51 29 61 q -8 32 3 42 q -84 -7 -49 6 q -153 -19 -119 -19 q -187 -14 -172 -19 q -211 0 -201 -8 q -228 25 -222 11 q -233 56 -233 39 q -223 115 -233 83 q -192 181 -212 146 q -141 247 -169 215 q -76 308 -112 279 q -23 348 -49 331 q 28 379 3 365 q 41 385 35 382 q 54 392 47 389 q 114 415 86 407 q 167 422 142 422 q 192 418 181 422 q 211 407 203 414 q 224 389 219 399 q 229 367 229 379 q 224 333 229 351 q 211 293 219 314 q 189 250 201 272 q 161 204 176 228 l 161 206 m 196 339 q 196 340 196 339 q 197 342 196 340 q 197 344 197 343 q 197 346 197 344 q 197 349 197 347 q 199 353 197 350 q 199 356 199 354 q 199 358 199 357 q 197 372 199 365 q 190 382 194 378 q 181 388 186 386 q 168 390 175 390 q 128 381 151 390 q 78 353 106 372 q 19 308 49 335 q -44 250 -10 282 q -104 185 -78 215 q -149 128 -131 156 q -178 81 -168 101 q -187 47 -187 61 q -185 31 -187 38 q -175 18 -182 24 q -160 10 -169 13 q -140 7 -151 7 q -84 19 -114 7 q -21 56 -54 32 q 49 118 11 81 q 129 207 86 156 q 128 210 129 208 q 128 214 128 213 q 126 221 126 217 q 125 228 125 225 q 123 235 124 232 q 122 242 122 239 q 124 258 122 250 q 128 272 125 265 q 136 287 132 279 q 146 303 140 294 q 169 328 157 319 q 196 338 182 336 l 196 339 m 381 640 l 406 640 q 388 588 399 610 q 364 553 378 567 q 333 531 350 539 q 294 524 317 524 q 292 524 293 524 q 289 525 290 524 q 286 525 288 525 q 282 525 285 525 q 273 527 279 526 q 260 529 267 528 l 204 546 q 194 547 199 546 q 182 549 189 547 q 172 550 176 550 q 165 550 168 550 q 140 547 151 550 q 121 538 129 544 q 107 521 113 532 q 99 494 101 510 l 74 496 q 91 547 81 525 q 115 582 101 568 q 146 603 129 597 q 183 610 163 610 q 192 610 188 610 q 203 608 197 610 q 217 606 210 607 q 231 603 224 606 l 283 589 q 288 587 286 588 q 292 586 289 586 q 295 585 293 586 q 299 585 297 585 q 303 585 301 585 q 307 585 306 585 q 312 583 310 583 q 315 583 314 583 q 339 588 328 583 q 358 597 350 592 q 372 615 367 604 q 381 639 378 625 l 381 640 z "},"":{"ha":586,"x_min":-235,"x_max":454,"o":"m -7 404 l 74 404 l -168 90 q -179 71 -174 79 q -189 54 -185 63 q -195 41 -193 47 q -197 29 -197 35 q -195 21 -197 25 q -190 14 -193 17 q -183 10 -187 13 q -172 8 -178 8 q -93 36 -140 8 q 15 118 -46 64 q 141 244 79 174 q 263 403 203 315 l 344 404 l 96 81 l 93 78 q 74 47 81 60 q 68 28 68 35 q 70 22 68 25 q 75 15 72 18 q 83 10 79 13 q 92 8 88 8 q 127 19 106 8 q 179 51 149 29 q 247 103 210 72 q 329 176 285 135 l 349 161 q 271 85 310 118 q 196 28 232 53 q 133 -6 161 6 q 86 -18 106 -18 q 65 -14 74 -18 q 49 -1 56 -10 q 39 17 43 4 q 35 44 35 29 q 35 58 35 51 q 38 72 36 64 q 42 90 40 81 q 47 113 44 100 q -19 57 13 82 q -81 14 -50 32 q -136 -9 -111 0 q -181 -18 -161 -18 q -204 -14 -194 -18 q -221 -1 -214 -10 q -231 15 -228 4 q -235 39 -235 25 q -231 74 -235 56 q -217 113 -226 93 q -194 155 -207 132 q -161 201 -181 178 l -7 404 l -7 404 m 418 589 l 231 481 l 201 481 l 382 640 q 394 649 389 644 q 404 656 399 653 q 415 660 410 658 q 425 661 419 661 q 435 659 431 661 q 444 651 440 657 q 452 643 450 647 q 454 633 454 639 q 452 620 454 626 q 446 610 450 614 q 436 599 443 604 q 418 588 429 594 l 418 589 z "},"":{"ha":586,"x_min":-235,"x_max":374,"o":"m -7 404 l 74 404 l -168 90 q -179 71 -174 79 q -189 54 -185 63 q -195 41 -193 47 q -197 29 -197 35 q -195 21 -197 25 q -190 14 -193 17 q -183 10 -187 13 q -172 8 -178 8 q -93 36 -140 8 q 15 118 -46 64 q 141 244 79 174 q 263 403 203 315 l 344 404 l 96 81 l 93 78 q 74 47 81 60 q 68 28 68 35 q 70 22 68 25 q 75 15 72 18 q 83 10 79 13 q 92 8 88 8 q 127 19 106 8 q 179 51 149 29 q 247 103 210 72 q 329 176 285 135 l 349 161 q 271 85 310 118 q 196 28 232 53 q 133 -6 161 6 q 86 -18 106 -18 q 65 -14 74 -18 q 49 -1 56 -10 q 39 17 43 4 q 35 44 35 29 q 35 58 35 51 q 38 72 36 64 q 42 90 40 81 q 47 113 44 100 q -19 57 13 82 q -81 14 -50 32 q -136 -9 -111 0 q -181 -18 -161 -18 q -204 -14 -194 -18 q -221 -1 -214 -10 q -231 15 -228 4 q -235 39 -235 25 q -231 74 -235 56 q -217 113 -226 93 q -194 155 -207 132 q -161 201 -181 178 l -7 404 l -7 404 m 228 639 l 374 481 l 347 481 l 185 594 q 170 605 176 600 q 161 614 164 610 q 156 621 158 617 q 154 631 154 625 q 154 634 154 632 q 156 638 154 636 q 159 645 157 642 q 164 651 161 649 q 174 660 169 657 q 185 663 179 663 q 195 661 190 663 q 206 657 200 660 q 216 649 210 654 q 228 638 222 644 l 228 639 z "},"":{"ha":586,"x_min":-235,"x_max":419,"o":"m -7 404 l 74 404 l -168 90 q -179 71 -174 79 q -189 54 -185 63 q -195 41 -193 47 q -197 29 -197 35 q -195 21 -197 25 q -190 14 -193 17 q -183 10 -187 13 q -172 8 -178 8 q -93 36 -140 8 q 15 118 -46 64 q 141 244 79 174 q 263 403 203 315 l 344 404 l 96 81 l 93 78 q 74 47 81 60 q 68 28 68 35 q 70 22 68 25 q 75 15 72 18 q 83 10 79 13 q 92 8 88 8 q 127 19 106 8 q 179 51 149 29 q 247 103 210 72 q 329 176 285 135 l 349 161 q 271 85 310 118 q 196 28 232 53 q 133 -6 161 6 q 86 -18 106 -18 q 65 -14 74 -18 q 49 -1 56 -10 q 39 17 43 4 q 35 44 35 29 q 35 58 35 51 q 38 72 36 64 q 42 90 40 81 q 47 113 44 100 q -19 57 13 82 q -81 14 -50 32 q -136 -9 -111 0 q -181 -18 -161 -18 q -204 -14 -194 -18 q -221 -1 -214 -10 q -231 15 -228 4 q -235 39 -235 25 q -231 74 -235 56 q -217 113 -226 93 q -194 155 -207 132 q -161 201 -181 178 l -7 404 l -7 404 m 283 658 l 347 658 l 419 481 l 382 481 l 296 601 l 110 481 l 74 481 l 283 658 l 283 658 z "},"":{"ha":586,"x_min":-235,"x_max":446,"o":"m -7 404 l 74 404 l -168 90 q -179 71 -174 79 q -189 54 -185 63 q -195 41 -193 47 q -197 29 -197 35 q -195 21 -197 25 q -190 14 -193 17 q -183 10 -187 13 q -172 8 -178 8 q -93 36 -140 8 q 15 118 -46 64 q 141 244 79 174 q 263 403 203 315 l 344 404 l 96 81 l 93 78 q 74 47 81 60 q 68 28 68 35 q 70 22 68 25 q 75 15 72 18 q 83 10 79 13 q 92 8 88 8 q 127 19 106 8 q 179 51 149 29 q 247 103 210 72 q 329 176 285 135 l 349 161 q 271 85 310 118 q 196 28 232 53 q 133 -6 161 6 q 86 -18 106 -18 q 65 -14 74 -18 q 49 -1 56 -10 q 39 17 43 4 q 35 44 35 29 q 35 58 35 51 q 38 72 36 64 q 42 90 40 81 q 47 113 44 100 q -19 57 13 82 q -81 14 -50 32 q -136 -9 -111 0 q -181 -18 -161 -18 q -204 -14 -194 -18 q -221 -1 -214 -10 q -231 15 -228 4 q -235 39 -235 25 q -231 74 -235 56 q -217 113 -226 93 q -194 155 -207 132 q -161 201 -181 178 l -7 404 l -7 404 m 411 604 q 424 600 418 603 q 436 590 431 597 q 444 578 442 585 q 446 564 446 571 q 441 542 446 553 q 426 522 436 532 q 405 508 417 513 q 381 503 393 503 q 367 506 374 503 q 356 514 361 508 q 348 526 350 519 q 346 540 346 532 q 351 562 346 551 q 365 582 356 572 q 388 598 376 593 q 411 603 399 603 l 411 604 m 219 604 q 233 600 226 603 q 244 590 239 597 q 253 578 250 585 q 256 564 256 571 q 251 542 256 553 q 235 522 246 532 q 214 508 225 513 q 189 503 203 503 q 176 506 182 503 q 164 514 169 508 q 156 526 158 519 q 153 540 153 532 q 158 562 153 551 q 174 582 164 572 q 196 598 185 593 q 219 603 207 603 l 219 604 z "},"":{"ha":688,"x_min":-93,"x_max":715,"o":"m 460 636 q 526 646 496 642 q 582 651 556 650 q 626 656 607 654 q 660 658 646 658 q 686 656 675 658 q 703 650 697 654 q 713 641 710 647 q 715 626 715 635 q 712 609 715 617 q 701 597 708 601 q 686 590 696 593 q 663 588 676 588 q 628 590 649 588 q 583 596 608 592 q 526 607 558 600 q 454 624 494 614 l 438 525 q 323 369 381 449 q 208 207 265 290 q 83 22 150 124 q -61 -203 15 -81 l -93 -186 q 67 58 -1 -49 q 185 246 136 165 q 273 399 233 326 q 344 539 313 472 l 432 629 q 376 617 403 622 q 322 608 349 611 q 275 604 297 606 q 233 603 253 603 q 208 604 218 603 q 190 610 197 606 q 181 619 185 613 q 178 635 178 625 q 182 651 178 644 q 192 664 186 658 q 210 670 199 668 q 238 672 222 672 q 265 671 249 672 q 303 665 281 669 q 358 654 324 661 q 438 636 392 647 l 446 656 q 535 835 499 775 q 592 896 571 896 q 609 894 601 896 q 624 888 617 892 q 633 877 631 882 q 636 865 636 872 q 626 835 636 854 q 594 788 615 815 q 540 723 574 761 q 460 635 506 685 l 460 636 z "},"":{"ha":561,"x_min":-51,"x_max":514,"o":"m 482 531 l 514 531 l 432 433 q 449 424 442 429 q 460 411 456 418 q 467 397 465 404 q 469 379 469 389 q 464 351 469 365 q 447 325 458 338 q 424 306 436 313 q 399 300 411 300 q 383 302 390 300 q 371 308 376 304 q 363 318 365 313 q 360 329 360 324 q 369 351 360 343 q 397 363 379 360 q 425 372 417 367 q 433 382 433 376 q 431 393 433 389 q 425 400 429 397 q 415 406 421 404 q 403 407 410 407 q 357 395 385 407 q 293 358 329 383 q 258 332 275 346 q 224 301 240 318 q 188 268 206 286 q 153 231 171 250 q 108 176 128 201 q 74 128 89 151 q 53 88 60 106 q 46 60 46 71 q 48 45 46 51 q 56 33 50 39 q 69 27 61 29 q 88 25 78 25 q 149 38 114 25 q 228 78 183 51 q 322 143 272 106 q 428 228 372 181 l 443 208 q 334 118 386 157 q 236 51 282 79 q 151 13 189 25 q 85 0 114 0 q 82 0 83 0 q 81 0 81 0 q 78 0 79 0 q 75 0 76 0 q 71 0 74 0 q 65 0 68 0 l -18 -99 l -51 -99 l 38 6 q 23 16 29 10 q 11 32 17 22 q 4 52 7 42 q 1 75 1 63 q 15 142 1 107 q 54 217 28 178 q 115 291 81 257 q 193 356 150 325 q 221 374 207 365 q 249 390 235 383 q 275 405 261 399 q 303 417 289 411 q 357 433 331 428 q 406 439 383 439 l 482 531 l 482 531 z "},"":{"ha":954,"x_min":-178,"x_max":1053,"o":"m 99 47 q 48 64 71 57 q 7 75 25 71 q -8 79 0 78 q -24 82 -15 81 q -40 83 -32 82 q -56 83 -47 83 q -90 81 -75 83 q -118 72 -106 78 q -137 62 -131 68 q -143 49 -143 56 q -137 34 -143 40 q -119 25 -131 28 q -93 19 -110 21 q -56 17 -76 17 q -13 18 -33 17 q 25 24 7 19 q 62 32 43 26 q 99 46 81 38 l 99 47 m 858 619 l 871 604 q 824 567 844 585 q 788 529 803 549 q 765 492 774 510 q 757 457 757 474 q 760 435 757 444 q 769 418 764 425 q 785 409 776 413 q 808 406 794 406 q 837 412 821 406 q 871 429 853 418 q 908 456 890 440 q 943 489 925 471 q 977 532 963 510 q 1003 578 992 554 q 1019 625 1014 603 q 1024 667 1024 647 q 1017 704 1024 688 q 997 731 1011 721 q 965 747 983 742 q 922 753 946 753 q 824 732 872 753 q 728 669 776 711 q 606 531 681 628 q 432 281 532 433 l 667 282 l 663 256 l 413 256 q 369 199 392 225 q 321 149 346 172 q 268 105 296 126 q 208 64 240 83 q 213 63 210 64 q 219 61 215 63 q 351 32 297 42 q 435 22 404 22 q 509 31 474 22 q 578 56 544 39 q 651 102 613 72 q 733 174 690 132 l 753 160 q 669 79 713 113 q 579 24 625 46 q 485 -6 535 4 q 381 -17 435 -17 q 333 -14 358 -17 q 281 -6 307 -11 q 219 8 254 -1 q 142 31 185 17 q 97 13 119 21 q 51 0 75 4 q 6 -8 29 -6 q -40 -10 -17 -10 q -101 -6 -75 -10 q -143 3 -126 -3 q -169 22 -161 10 q -178 49 -178 33 q -168 76 -178 64 q -139 99 -158 89 q -94 113 -121 108 q -33 117 -67 117 q 8 115 -14 117 q 54 107 29 113 q 109 94 81 101 q 169 76 138 88 q 209 108 189 90 q 249 147 229 126 q 288 197 268 169 q 328 254 308 224 l 128 256 l 138 282 l 344 282 q 500 501 424 407 q 649 657 576 594 q 790 750 721 719 q 925 781 860 781 q 981 774 957 781 q 1021 751 1004 767 q 1044 715 1036 738 q 1053 665 1053 693 q 1033 569 1053 617 q 972 474 1013 521 q 890 403 932 426 q 806 379 849 379 q 774 385 788 379 q 749 400 760 390 q 733 423 739 410 q 728 453 728 436 q 737 497 728 475 q 764 543 746 519 q 806 585 782 567 q 858 618 829 604 l 858 619 z "},"":{"ha":688,"x_min":-106,"x_max":672,"o":"m 343 606 l 335 606 q 253 594 289 604 q 192 564 218 583 q 154 519 167 546 q 142 458 142 492 q 142 453 142 456 q 142 447 142 450 q 142 437 142 442 q 144 425 143 432 q 148 408 146 417 q 153 388 150 399 l 218 175 l 226 175 q 306 184 271 174 q 367 214 342 194 q 406 260 393 233 q 418 319 418 286 q 418 334 418 326 q 415 351 418 342 q 411 371 414 361 q 406 392 408 381 l 343 606 l 343 606 m 401 646 l 449 490 q 457 457 453 472 q 463 426 461 442 q 466 397 465 411 q 467 368 467 382 q 451 277 467 317 q 403 207 435 238 q 328 163 372 178 q 231 147 285 147 l 224 149 q 228 126 226 136 q 231 104 229 115 q 233 85 233 94 q 233 65 233 75 q 217 -4 233 28 q 169 -64 201 -36 q 99 -105 138 -92 q 15 -118 60 -118 q -33 -112 -11 -118 q -71 -96 -54 -107 q -97 -69 -89 -85 q -106 -35 -106 -54 q -101 -13 -106 -24 q -89 3 -97 -3 q -72 16 -82 11 q -51 21 -62 21 q -35 18 -42 21 q -21 11 -28 15 q -12 1 -15 6 q -10 -11 -10 -4 q -17 -35 -10 -26 q -36 -46 -24 -43 q -56 -53 -50 -50 q -62 -57 -62 -56 q -56 -71 -62 -64 q -39 -83 -50 -78 q -12 -91 -26 -89 q 21 -93 3 -93 q 83 -84 56 -93 q 132 -56 111 -75 q 163 -13 153 -37 q 174 43 174 11 q 174 61 174 51 q 171 81 174 71 q 166 103 169 90 q 157 133 163 117 l 113 290 q 103 324 107 307 q 97 354 100 340 q 94 383 96 369 q 92 407 92 396 q 108 499 92 458 q 157 569 125 539 q 233 614 189 599 q 331 629 276 629 l 339 631 q 338 630 338 629 q 338 632 338 631 q 328 677 332 660 q 325 704 325 694 q 342 781 325 746 q 392 846 358 817 q 465 890 425 875 q 550 904 504 904 q 600 899 578 904 q 639 881 622 893 q 664 853 656 868 q 672 819 672 839 q 668 799 672 808 q 656 779 664 789 q 638 767 647 771 q 617 763 628 763 q 602 765 608 763 q 589 772 596 768 q 581 784 583 778 q 578 799 578 790 q 581 812 578 806 q 588 824 583 818 q 599 832 593 829 q 611 835 606 835 l 618 836 q 624 835 622 835 q 628 836 626 835 q 631 839 631 838 q 632 842 632 840 q 626 855 632 849 q 608 867 619 861 q 583 876 597 874 q 553 878 568 878 q 483 868 514 878 q 431 839 453 858 q 397 794 408 821 q 385 733 385 768 q 386 714 385 724 q 389 693 388 704 q 394 670 392 682 q 401 644 397 658 l 401 646 z "},"":{"ha":694,"x_min":60,"x_max":632,"o":"m 632 1003 l 632 958 l 544 958 l 544 0 l 496 0 l 496 958 l 367 958 l 367 0 l 318 0 l 318 529 q 213 549 260 531 q 131 597 165 567 q 78 671 96 629 q 60 764 60 713 q 78 860 60 817 q 133 936 97 904 q 219 985 171 968 q 328 1001 268 1001 l 632 1003 l 632 1003 z "},"":{"ha":554,"x_min":-549,"x_max":611,"o":"m -6 288 l -467 -353 l -549 -353 l -57 318 q 131 560 42 454 q 299 740 219 665 q 440 851 378 814 q 549 889 503 889 q 575 885 564 889 q 594 874 586 881 q 607 858 603 868 q 611 836 611 847 q 605 798 611 818 q 583 757 599 778 q 549 715 569 736 q 501 674 529 694 q 481 658 493 668 q 453 638 469 649 q 344 541 385 590 q 289 440 303 492 q 284 413 288 431 q 278 368 281 394 q 275 339 276 354 q 272 307 274 324 q 256 215 267 256 q 229 146 246 174 q 179 82 207 111 q 117 29 151 53 q 94 16 106 22 q 72 6 83 10 q 28 -8 50 -3 q -15 -12 6 -12 q -52 -8 -36 -12 q -79 1 -68 -4 q -97 22 -90 10 q -103 50 -103 33 q -98 78 -103 65 q -83 103 -93 92 q -62 119 -74 114 q -37 125 -50 125 q -24 124 -31 125 q -14 119 -18 122 q -8 113 -10 117 q -6 103 -6 108 q -14 85 -6 93 q -37 69 -22 76 q -62 56 -54 64 q -69 38 -69 47 q -67 26 -69 32 q -61 18 -65 21 q -49 12 -56 14 q -35 10 -43 10 q -6 16 -21 10 q 28 33 10 22 q 47 46 38 39 q 65 61 56 53 q 83 78 74 68 q 101 97 92 88 q 172 213 140 144 q 226 371 203 282 q 236 409 232 393 q 243 435 240 425 q 265 488 253 463 q 294 535 278 513 q 313 557 303 546 q 335 579 322 568 q 359 601 346 590 q 386 624 372 613 q 400 633 392 628 q 419 647 408 639 q 539 751 499 707 q 579 825 579 796 q 577 840 579 833 q 569 851 575 846 q 559 860 565 857 q 546 863 553 863 q 460 829 510 863 q 344 729 410 796 q 193 552 281 663 q -4 286 106 442 l -6 288 z "},"":{"ha":1140,"x_min":103,"x_max":1039,"o":"m 486 486 q 494 483 490 483 q 504 483 499 483 q 515 483 508 483 q 531 483 522 483 q 608 491 575 483 q 664 514 642 499 q 699 551 688 529 q 710 603 710 574 q 699 649 710 628 q 669 685 689 669 q 623 708 650 700 q 561 715 596 715 q 529 712 543 715 q 506 701 515 708 q 491 685 496 694 q 486 664 486 675 l 486 486 l 486 486 m 318 736 l 582 736 q 672 726 632 735 q 739 700 711 718 q 783 658 768 682 q 797 603 797 633 q 785 556 797 576 q 750 519 774 535 q 689 490 726 503 q 600 467 651 478 q 655 444 632 457 q 694 414 678 431 q 722 374 710 397 q 743 321 735 351 q 747 305 744 315 q 751 282 749 294 q 765 237 756 251 q 788 222 774 222 q 813 228 803 222 q 829 243 822 233 q 839 269 836 253 q 842 308 842 286 l 868 311 l 868 306 q 861 251 868 274 q 842 214 854 229 q 810 192 829 200 q 765 183 792 183 q 737 187 750 183 q 713 196 724 190 q 694 212 701 203 q 682 231 686 221 q 674 264 676 244 q 669 308 671 283 q 668 350 669 333 q 664 375 667 367 q 643 415 656 399 q 611 442 631 432 q 569 457 593 453 q 513 461 544 461 q 508 461 511 461 q 499 461 504 461 q 492 461 494 461 q 486 461 489 461 l 486 293 q 491 260 486 274 q 506 239 496 246 q 533 228 515 232 q 578 224 551 224 l 578 199 l 318 199 l 318 225 q 363 228 344 224 q 390 239 381 232 q 406 260 401 246 q 410 292 410 274 l 410 640 q 406 672 410 658 q 390 693 401 686 q 363 706 381 701 q 318 711 344 710 l 318 736 l 318 736 m 572 879 q 490 870 531 878 q 413 846 450 863 q 340 808 374 831 q 278 754 307 785 q 224 690 247 724 q 186 618 201 657 q 163 540 171 579 q 154 458 154 500 q 163 375 154 415 q 186 296 171 335 q 224 224 201 257 q 278 161 247 190 q 341 108 307 131 q 411 69 375 85 q 488 46 449 54 q 571 38 528 38 q 653 46 614 38 q 731 69 693 54 q 801 108 768 85 q 864 161 835 131 q 916 226 893 192 q 954 299 939 260 q 978 377 971 338 q 986 458 986 417 q 978 541 986 500 q 954 621 971 582 q 915 695 938 661 q 865 757 893 729 q 803 808 836 786 q 731 847 769 831 q 652 870 692 863 q 572 878 613 878 l 572 879 m 572 928 q 661 918 617 926 q 749 892 706 910 q 830 849 792 874 q 900 790 868 824 q 958 720 933 758 q 1001 638 983 682 q 1030 549 1021 594 q 1039 458 1039 504 q 1030 368 1039 413 q 1003 281 1021 324 q 959 199 985 238 q 899 126 933 161 q 829 68 867 93 q 749 25 792 43 q 663 0 707 7 q 571 -7 618 -7 q 479 0 524 -7 q 392 25 435 7 q 312 68 350 43 q 239 126 274 93 q 181 199 206 161 q 138 279 156 236 q 111 366 119 321 q 103 458 103 411 q 111 549 103 504 q 138 636 119 593 q 179 717 154 679 q 238 788 204 754 q 309 847 271 821 q 390 890 347 872 q 480 918 435 910 q 572 926 525 926 l 572 928 z "},"":{"ha":1140,"x_min":103,"x_max":1039,"o":"m 757 740 l 779 742 l 779 532 l 753 532 q 725 613 743 578 q 683 671 707 647 q 628 706 658 694 q 560 718 597 718 q 485 701 517 718 q 429 653 453 685 q 396 573 407 621 q 385 461 385 525 q 397 349 385 397 q 433 268 410 300 q 492 218 457 235 q 574 201 526 201 q 631 209 604 201 q 682 231 658 217 q 728 267 706 246 q 768 318 750 289 l 788 307 q 746 244 769 271 q 693 200 722 218 q 631 174 664 182 q 560 165 597 165 q 457 185 504 165 q 371 247 410 206 q 312 339 332 289 q 292 449 292 389 q 311 563 292 511 q 369 658 331 615 q 455 723 408 701 q 557 744 501 744 q 606 738 581 744 q 656 721 631 732 q 695 703 681 710 q 714 697 710 697 q 731 700 724 697 q 743 708 738 703 q 753 722 750 714 q 757 739 756 729 l 757 740 m 572 879 q 490 870 531 878 q 413 846 450 863 q 340 808 374 831 q 278 754 307 785 q 224 690 247 724 q 186 618 201 657 q 163 540 171 579 q 154 458 154 500 q 163 375 154 415 q 186 296 171 335 q 224 224 201 257 q 278 161 247 190 q 341 108 307 131 q 411 69 375 85 q 488 46 449 54 q 571 38 528 38 q 653 46 614 38 q 731 69 693 54 q 801 108 768 85 q 864 161 835 131 q 916 226 893 192 q 954 299 939 260 q 978 377 971 338 q 986 458 986 417 q 978 541 986 500 q 954 621 971 582 q 915 695 938 661 q 865 757 893 729 q 803 808 836 786 q 731 847 769 831 q 652 870 692 863 q 572 878 613 878 l 572 879 m 572 928 q 661 918 617 926 q 749 892 706 910 q 830 849 792 874 q 900 790 868 824 q 958 720 933 758 q 1001 638 983 682 q 1030 549 1021 594 q 1039 458 1039 504 q 1030 368 1039 413 q 1003 281 1021 324 q 959 199 985 238 q 899 126 933 161 q 829 68 867 93 q 749 25 792 43 q 663 0 707 7 q 571 -7 618 -7 q 479 0 524 -7 q 392 25 435 7 q 312 68 350 43 q 239 126 274 93 q 181 199 206 161 q 138 279 156 236 q 111 366 119 321 q 103 458 103 411 q 111 549 103 504 q 138 636 119 593 q 179 717 154 679 q 238 788 204 754 q 309 847 271 821 q 390 890 347 872 q 480 918 435 910 q 572 926 525 926 l 572 928 z "},"":{"ha":1140,"x_min":172,"x_max":974,"o":"m 543 971 l 658 971 l 756 690 l 864 971 l 974 971 l 974 954 l 953 954 q 939 950 944 953 q 928 942 933 947 q 922 930 924 936 q 919 915 919 924 l 919 665 q 922 650 919 657 q 928 638 924 643 q 939 630 933 632 q 953 628 944 628 l 974 629 l 974 611 l 818 611 l 818 629 l 839 629 q 853 630 847 628 q 864 638 858 632 q 870 650 868 643 q 872 664 872 657 l 872 942 l 747 608 l 742 608 l 624 939 l 624 665 q 626 650 624 657 q 632 638 628 643 q 643 630 638 632 q 657 628 649 628 l 676 629 l 676 611 l 543 611 l 543 628 l 563 628 q 576 628 569 626 q 588 636 582 631 q 594 649 592 642 q 597 664 597 656 l 597 915 q 594 928 597 921 q 588 940 592 935 q 576 950 582 947 q 563 953 569 953 l 543 954 l 543 971 l 543 971 m 178 971 l 474 971 l 482 851 l 465 851 q 456 898 464 878 q 438 929 449 918 q 410 947 426 942 q 369 953 393 953 l 353 954 l 353 665 q 356 650 353 657 q 363 638 358 643 q 374 630 368 632 q 386 628 379 628 l 407 629 l 407 611 l 243 611 l 243 629 l 265 629 q 279 630 274 628 q 290 638 285 632 q 297 650 294 643 q 299 664 299 657 l 299 954 l 285 954 q 244 947 261 953 q 215 929 226 942 q 197 898 204 918 q 186 850 189 878 l 172 851 l 178 971 l 178 971 z "},"":{"ha":694,"x_min":256,"x_max":507,"o":"m 471 589 l 283 481 l 256 481 l 435 640 q 447 649 442 644 q 457 656 451 653 q 467 660 463 658 q 478 661 472 661 q 488 659 483 661 q 497 651 493 657 q 505 643 503 647 q 507 633 507 639 q 505 620 507 626 q 499 610 503 614 q 489 599 496 604 q 471 588 482 594 l 471 589 z "},"":{"ha":694,"x_min":206,"x_max":499,"o":"m 464 604 q 477 600 471 603 q 489 590 483 597 q 497 578 494 585 q 499 564 499 571 q 494 542 499 553 q 479 522 490 532 q 458 508 469 513 q 433 503 447 503 q 420 506 426 503 q 408 514 414 508 q 401 526 403 519 q 399 540 399 532 q 404 562 399 551 q 419 582 410 572 q 440 598 429 593 q 464 603 451 603 l 464 604 m 272 604 q 285 600 279 603 q 297 590 292 597 q 306 578 303 585 q 308 564 308 571 q 303 542 308 553 q 288 522 299 532 q 267 508 278 513 q 242 503 256 503 q 228 506 235 503 q 217 514 222 508 q 208 526 211 519 q 206 540 206 532 q 211 562 206 551 q 226 582 217 572 q 249 598 238 593 q 272 603 260 603 l 272 604 z "},"":{"ha":1157,"x_min":172,"x_max":983,"o":"m 825 783 l 868 751 l 721 563 l 983 563 l 983 510 l 686 510 l 538 318 l 983 318 l 983 261 l 501 261 l 329 42 l 289 75 l 433 261 l 172 261 l 172 318 l 467 318 l 617 510 l 172 510 l 172 563 l 653 563 l 825 783 l 825 783 z "},"":{"ha":1389,"x_min":-261,"x_max":1339,"o":"m 385 379 q 362 354 375 368 q 331 321 349 340 q 241 229 279 267 q 178 169 203 192 q 214 139 194 153 q 256 114 233 125 q 303 94 279 103 q 353 82 326 86 q 369 129 363 104 q 382 182 376 154 q 390 239 388 210 q 393 297 393 268 q 392 315 393 306 q 390 333 392 324 q 389 354 390 343 q 385 378 388 365 l 385 379 m 379 418 q 351 499 369 463 q 307 563 333 536 q 252 604 281 590 q 193 618 224 618 q 138 606 163 618 q 93 567 113 593 q 64 508 74 540 q 54 433 54 475 q 56 402 54 418 q 61 371 57 386 q 69 338 64 354 q 81 307 74 322 q 113 246 93 275 q 156 189 132 217 q 215 242 186 215 q 271 299 244 269 q 326 356 299 326 q 379 417 353 386 l 379 418 m 817 633 q 781 583 797 606 q 750 539 764 560 q 722 500 736 519 q 694 461 708 481 q 734 474 714 468 q 774 486 754 481 q 816 497 794 492 q 860 506 838 501 q 842 532 850 518 q 829 561 835 546 q 822 594 825 576 q 817 632 819 611 l 817 633 m 1099 742 l 1115 724 q 1084 697 1097 710 q 1063 674 1071 685 q 1058 667 1060 671 q 1053 660 1056 663 q 1048 646 1050 653 q 1046 632 1046 639 q 1049 615 1046 622 q 1058 603 1053 608 q 1072 595 1064 597 q 1092 593 1081 593 q 1117 597 1103 593 q 1150 611 1132 601 q 1187 633 1169 621 q 1221 660 1204 644 q 1258 695 1242 676 q 1283 732 1274 714 q 1300 769 1294 751 q 1306 803 1306 786 q 1301 827 1306 817 q 1286 844 1296 838 q 1262 857 1276 853 q 1228 861 1247 861 q 1094 842 1158 861 q 972 782 1031 822 q 885 700 914 743 q 856 611 856 657 q 858 588 856 600 q 865 563 860 575 q 877 537 869 550 q 894 510 885 524 l 914 511 q 952 508 936 510 q 979 501 968 506 q 996 493 990 499 q 1001 481 1001 488 q 999 471 1001 475 q 989 464 996 467 q 976 461 983 463 q 957 460 968 460 q 937 461 947 460 q 917 464 926 463 q 899 470 907 467 q 885 479 892 474 q 735 422 804 460 q 607 329 665 385 q 521 221 550 274 q 492 118 492 168 q 505 74 492 94 q 543 39 518 54 q 601 15 568 24 q 674 7 633 7 q 814 26 747 7 q 940 82 881 44 q 1031 159 1001 119 q 1061 238 1061 199 q 1054 272 1061 257 q 1032 296 1047 286 q 999 312 1018 307 q 954 317 979 317 q 912 313 933 317 q 869 304 890 310 q 827 288 849 297 q 785 265 806 278 q 700 201 743 239 q 613 110 657 163 l 594 119 q 667 212 626 171 q 756 283 707 253 q 853 331 804 315 q 951 346 901 346 q 1009 339 983 346 q 1053 317 1035 332 q 1081 283 1072 303 q 1090 239 1090 264 q 1058 147 1090 192 q 961 61 1026 103 q 826 0 897 19 q 675 -19 754 -19 q 590 -10 628 -19 q 522 14 553 -1 q 476 56 493 32 q 454 111 460 81 l 376 0 l 301 0 l 340 58 q 291 69 315 61 q 243 88 267 78 q 198 113 221 99 q 153 146 175 128 q 56 72 101 103 q -24 21 11 40 q -94 -6 -60 3 q -160 -15 -129 -15 q -201 -9 -183 -15 q -233 8 -219 -3 q -255 38 -249 21 q -261 75 -261 54 q -254 112 -261 94 q -232 144 -247 129 q -212 163 -222 156 q -190 174 -201 169 q -180 176 -185 175 q -169 176 -175 176 q -151 174 -160 176 q -135 165 -142 171 q -125 151 -129 160 q -121 135 -121 143 q -125 117 -121 125 q -135 101 -129 108 q -150 90 -142 94 q -168 86 -158 86 q -178 88 -172 86 q -189 90 -183 89 q -198 94 -194 93 q -203 94 -201 94 q -215 92 -210 94 q -222 86 -219 90 q -228 76 -226 82 q -229 61 -229 69 q -224 42 -229 51 q -208 26 -219 33 q -185 15 -199 19 q -153 11 -171 11 q -94 22 -126 11 q -25 51 -61 32 q 50 101 10 71 q 133 169 90 131 q 81 236 104 201 q 43 306 58 271 q 21 377 29 342 q 13 447 13 413 q 25 529 13 492 q 61 596 38 567 q 116 641 85 626 q 185 656 147 656 q 252 641 219 656 q 315 597 285 626 q 368 531 346 568 q 404 444 390 493 q 599 647 511 563 q 753 785 686 732 q 873 864 819 838 q 967 890 926 890 q 977 890 971 890 q 990 888 983 889 q 996 886 993 886 q 1000 886 999 886 q 990 872 996 881 q 975 850 983 863 q 965 838 969 843 q 958 828 961 832 q 1025 854 992 843 q 1093 874 1058 865 q 1158 886 1126 882 q 1217 890 1189 890 q 1272 885 1249 890 q 1310 869 1294 881 q 1332 844 1325 860 q 1339 808 1339 828 q 1333 762 1339 786 q 1311 714 1326 738 q 1277 668 1297 690 q 1232 626 1257 646 q 1192 599 1213 611 q 1153 578 1172 588 q 1114 565 1132 569 q 1079 561 1096 561 q 1051 565 1064 561 q 1029 578 1039 569 q 1017 598 1021 586 q 1013 624 1013 610 q 1018 653 1013 639 q 1035 683 1024 668 q 1063 713 1046 699 q 1099 740 1079 726 l 1099 742 m 946 858 q 856 822 908 851 q 738 736 804 792 q 590 599 671 681 q 415 410 510 517 q 416 401 415 406 q 417 392 417 396 q 419 376 418 383 q 419 360 419 368 q 420 349 419 354 q 421 339 421 343 q 422 328 422 333 q 422 317 422 322 q 422 297 422 307 q 421 278 422 288 q 420 258 421 268 q 418 239 419 249 q 414 199 417 219 q 408 160 411 179 q 507 301 453 226 q 622 457 561 376 q 766 639 685 539 q 946 857 847 739 l 946 858 z "}}}
